<svg width="105" height="104" viewBox="0 0 105 104" fill="none" xmlns="http://www.w3.org/2000/svg">
<rect x="10" y="10" width="85" height="84" rx="20" fill="#AE8EC0"/>
<g clip-path="url(#clip0_164_313)">
<path d="M25 56.5071H79.8438M76.75 56.5071C76.75 44.2932 65.8586 34.3906 52.4219 34.3906C38.9852 34.3906 28.0937 44.2932 28.0937 56.5071" stroke="#191919" stroke-width="3" stroke-linecap="round" stroke-linejoin="round"/>
<path d="M42.2902 39.7611C39.7766 41.2518 37.6992 43.2754 36.2367 45.6578C34.7743 48.0403 33.9706 50.7101 33.8948 53.4375M52.4222 34.3892V31.5M53.7441 65.0966C61.0538 65.0161 61.9903 64.7386 75.5058 61.6193C76.3566 61.4237 76.988 61.82 77.1736 62.27C77.3634 62.7303 77.2861 63.5459 76.1316 63.8182C73.8534 64.3551 59.6503 70.3125 56.4159 70.3125C53.1816 70.3125 43.7597 69.6733 40.2159 69.6733C36.6722 69.6733 32.5378 71.7188 32.5378 71.7188C29.6972 69.3153 27.8972 65.3267 27.4191 61.0057H62.5191C63.9675 61.0057 64.4316 62.8466 63.1941 63.358C61.3589 64.1161 58.2441 65.0966 53.7441 65.0966Z" stroke="#191919" stroke-width="3" stroke-linecap="round" stroke-linejoin="round"/>
</g>
<defs>
<clipPath id="clip0_164_313">
<rect width="55" height="50" fill="white" transform="translate(25 27)"/>
</clipPath>
</defs>
</svg>
