<svg width="30" height="30" viewBox="0 0 62 62" fill="none" xmlns="http://www.w3.org/2000/svg">
<path d="M56 0H6C2.68629 0 0 2.68629 0 6V56C0 59.3137 2.68629 62 6 62H56C59.3137 62 62 59.3137 62 56V6C62 2.68629 59.3137 0 56 0Z" fill="white"/>
<path d="M44 31.75C44.0052 33.7298 43.5426 35.6829 42.65 37.45C41.5916 39.5677 39.9646 41.3488 37.9512 42.594C35.9377 43.8391 33.6174 44.4991 31.25 44.5C29.2702 44.5052 27.3172 44.0426 25.55 43.15L17 46L19.85 37.45C18.9574 35.6829 18.4948 33.7298 18.5 31.75C18.5009 29.3827 19.1609 27.0623 20.4061 25.0489C21.6512 23.0354 23.4324 21.4084 25.55 20.35C27.3172 19.4574 29.2702 18.9949 31.25 19H32C35.1265 19.1725 38.0796 20.4922 40.2937 22.7063C42.5079 24.9205 43.8275 27.8735 44 31V31.75Z" stroke="black" stroke-width="3" stroke-linecap="round" stroke-linejoin="round"/>
</svg>
