<svg width="190" height="47" viewBox="0 0 190 47" fill="none" xmlns="http://www.w3.org/2000/svg">
<g filter="url(#filter0_d_164_140)">
<rect x="0.687378" width="185.859" height="44" rx="12" fill="#EC8D5F" shape-rendering="crispEdges"/>
<rect x="1.68738" y="1" width="183.859" height="42" rx="11" stroke="#2E2F35" stroke-width="2" shape-rendering="crispEdges"/>
<path d="M31.9268 29.168C31.1894 29.168 30.5081 29.0373 29.8828 28.776C29.2668 28.5053 28.7254 28.1273 28.2588 27.642C27.8014 27.1567 27.4468 26.5873 27.1948 25.934C26.9428 25.2807 26.8168 24.5667 26.8168 23.792C26.8168 23.008 26.9428 22.2893 27.1948 21.636C27.4468 20.9827 27.8014 20.4133 28.2588 19.928C28.7161 19.4427 29.2574 19.0693 29.8828 18.808C30.5081 18.5373 31.1894 18.402 31.9268 18.402C32.6454 18.402 33.2894 18.528 33.8588 18.78C34.4374 19.032 34.9228 19.3587 35.3148 19.76C35.7161 20.1613 36.0008 20.5907 36.1688 21.048L34.9088 21.622C34.6661 21.0433 34.2881 20.5767 33.7748 20.222C33.2614 19.858 32.6454 19.676 31.9268 19.676C31.1988 19.676 30.5501 19.8487 29.9808 20.194C29.4208 20.5393 28.9821 21.02 28.6648 21.636C28.3474 22.252 28.1888 22.9707 28.1888 23.792C28.1888 24.604 28.3474 25.318 28.6648 25.934C28.9821 26.55 29.4208 27.0307 29.9808 27.376C30.5501 27.7213 31.1988 27.894 31.9268 27.894C32.6454 27.894 33.2614 27.7167 33.7748 27.362C34.2881 26.998 34.6661 26.5267 34.9088 25.948L36.1688 26.522C36.0008 26.9793 35.7161 27.4087 35.3148 27.81C34.9228 28.2113 34.4374 28.538 33.8588 28.79C33.2894 29.042 32.6454 29.168 31.9268 29.168ZM37.8809 29V21.454H39.1549V22.84L39.0149 22.644C39.1923 22.2147 39.4629 21.8973 39.8269 21.692C40.1909 21.4773 40.6343 21.37 41.1569 21.37H41.6189V22.602H40.9609C40.4289 22.602 39.9996 22.77 39.6729 23.106C39.3463 23.4327 39.1829 23.8993 39.1829 24.506V29H37.8809ZM46.2475 29.168C45.5195 29.168 44.8708 28.9953 44.3015 28.65C43.7321 28.3047 43.2841 27.8333 42.9575 27.236C42.6308 26.6293 42.4675 25.9527 42.4675 25.206C42.4675 24.45 42.6261 23.778 42.9435 23.19C43.2701 22.602 43.7088 22.14 44.2595 21.804C44.8195 21.4587 45.4448 21.286 46.1355 21.286C46.6955 21.286 47.1901 21.3887 47.6195 21.594C48.0581 21.79 48.4268 22.0607 48.7255 22.406C49.0335 22.742 49.2668 23.1293 49.4255 23.568C49.5935 23.9973 49.6775 24.4453 49.6775 24.912C49.6775 25.0147 49.6681 25.1313 49.6495 25.262C49.6401 25.3833 49.6261 25.5 49.6075 25.612H43.4195V24.492H48.8515L48.2355 24.996C48.3195 24.5107 48.2728 24.0767 48.0955 23.694C47.9181 23.3113 47.6568 23.008 47.3115 22.784C46.9661 22.56 46.5741 22.448 46.1355 22.448C45.6968 22.448 45.2955 22.56 44.9315 22.784C44.5675 23.008 44.2828 23.33 44.0775 23.75C43.8815 24.1607 43.8021 24.6507 43.8395 25.22C43.8021 25.7707 43.8861 26.256 44.0915 26.676C44.3061 27.0867 44.6048 27.4087 44.9875 27.642C45.3795 27.866 45.8041 27.978 46.2615 27.978C46.7655 27.978 47.1901 27.8613 47.5355 27.628C47.8808 27.3947 48.1608 27.096 48.3755 26.732L49.4675 27.292C49.3181 27.6373 49.0848 27.9547 48.7675 28.244C48.4595 28.524 48.0908 28.748 47.6615 28.916C47.2415 29.084 46.7701 29.168 46.2475 29.168ZM53.4914 29.168C52.9967 29.168 52.558 29.0793 52.1754 28.902C51.802 28.7153 51.508 28.4633 51.2934 28.146C51.0787 27.8193 50.9714 27.446 50.9714 27.026C50.9714 26.6247 51.0554 26.2653 51.2234 25.948C51.4007 25.6213 51.6714 25.346 52.0354 25.122C52.4087 24.898 52.8754 24.7393 53.4354 24.646L56.2354 24.184V25.276L53.7294 25.696C53.244 25.78 52.8894 25.934 52.6654 26.158C52.4507 26.382 52.3434 26.6573 52.3434 26.984C52.3434 27.292 52.4647 27.5487 52.7074 27.754C52.9594 27.9593 53.272 28.062 53.6454 28.062C54.1214 28.062 54.532 27.964 54.8774 27.768C55.232 27.5627 55.5074 27.2873 55.7034 26.942C55.9087 26.5967 56.0114 26.214 56.0114 25.794V23.876C56.0114 23.4653 55.8574 23.134 55.5494 22.882C55.2507 22.6207 54.854 22.49 54.3594 22.49C53.93 22.49 53.5474 22.602 53.2114 22.826C52.8847 23.0407 52.642 23.33 52.4834 23.694L51.3494 23.106C51.4894 22.7607 51.7134 22.4527 52.0214 22.182C52.3294 21.902 52.6887 21.6827 53.0994 21.524C53.51 21.3653 53.9394 21.286 54.3874 21.286C54.966 21.286 55.4747 21.398 55.9134 21.622C56.352 21.8367 56.6927 22.14 56.9354 22.532C57.1874 22.9147 57.3134 23.3627 57.3134 23.876V29H56.0394V27.572L56.2774 27.656C56.1187 27.9547 55.904 28.216 55.6334 28.44C55.3627 28.664 55.0454 28.8413 54.6814 28.972C54.3174 29.1027 53.9207 29.168 53.4914 29.168ZM62.2614 29.084C61.524 29.084 60.9547 28.874 60.5534 28.454C60.1614 28.034 59.9654 27.4413 59.9654 26.676V22.7H58.5934V21.454H58.8734C59.2094 21.454 59.4754 21.3513 59.6714 21.146C59.8674 20.9407 59.9654 20.67 59.9654 20.334V19.718H61.2674V21.454H62.9614V22.7H61.2674V26.634C61.2674 26.886 61.3047 27.1053 61.3794 27.292C61.4634 27.4787 61.5987 27.628 61.7854 27.74C61.972 27.8427 62.2194 27.894 62.5274 27.894C62.5927 27.894 62.672 27.8893 62.7654 27.88C62.868 27.8707 62.9614 27.8613 63.0454 27.852V29C62.924 29.028 62.7887 29.0467 62.6394 29.056C62.49 29.0747 62.364 29.084 62.2614 29.084ZM68.0131 29.168C67.2851 29.168 66.6364 28.9953 66.0671 28.65C65.4977 28.3047 65.0497 27.8333 64.7231 27.236C64.3964 26.6293 64.2331 25.9527 64.2331 25.206C64.2331 24.45 64.3917 23.778 64.7091 23.19C65.0357 22.602 65.4744 22.14 66.0251 21.804C66.5851 21.4587 67.2104 21.286 67.9011 21.286C68.4611 21.286 68.9557 21.3887 69.3851 21.594C69.8237 21.79 70.1924 22.0607 70.4911 22.406C70.7991 22.742 71.0324 23.1293 71.1911 23.568C71.3591 23.9973 71.4431 24.4453 71.4431 24.912C71.4431 25.0147 71.4337 25.1313 71.4151 25.262C71.4057 25.3833 71.3917 25.5 71.3731 25.612H65.1851V24.492H70.6171L70.0011 24.996C70.0851 24.5107 70.0384 24.0767 69.8611 23.694C69.6837 23.3113 69.4224 23.008 69.0771 22.784C68.7317 22.56 68.3397 22.448 67.9011 22.448C67.4624 22.448 67.0611 22.56 66.6971 22.784C66.3331 23.008 66.0484 23.33 65.8431 23.75C65.6471 24.1607 65.5677 24.6507 65.6051 25.22C65.5677 25.7707 65.6517 26.256 65.8571 26.676C66.0717 27.0867 66.3704 27.4087 66.7531 27.642C67.1451 27.866 67.5697 27.978 68.0271 27.978C68.5311 27.978 68.9557 27.8613 69.3011 27.628C69.6464 27.3947 69.9264 27.096 70.1411 26.732L71.2331 27.292C71.0837 27.6373 70.8504 27.9547 70.5331 28.244C70.2251 28.524 69.8564 28.748 69.4271 28.916C69.0071 29.084 68.5357 29.168 68.0131 29.168ZM76.3586 29V22.7H74.9166V21.454H76.3586V20.922C76.3586 20.3807 76.4753 19.9233 76.7086 19.55C76.9513 19.1767 77.2686 18.892 77.6606 18.696C78.0619 18.5 78.5053 18.402 78.9906 18.402C79.0933 18.402 79.2053 18.4113 79.3266 18.43C79.4573 18.4393 79.5646 18.4533 79.6486 18.472V19.634C79.5739 19.6153 79.4853 19.606 79.3826 19.606C79.2799 19.5967 79.2006 19.592 79.1446 19.592C78.7153 19.592 78.3606 19.6947 78.0806 19.9C77.8099 20.1053 77.6746 20.446 77.6746 20.922V21.454H79.4666V22.7H77.6746V29H76.3586ZM81.0294 29V21.454H82.3034V22.84L82.1634 22.644C82.3407 22.2147 82.6114 21.8973 82.9754 21.692C83.3394 21.4773 83.7827 21.37 84.3054 21.37H84.7674V22.602H84.1094C83.5774 22.602 83.148 22.77 82.8214 23.106C82.4947 23.4327 82.3314 23.8993 82.3314 24.506V29H81.0294ZM89.3959 29.168C88.6679 29.168 88.0192 28.9953 87.4499 28.65C86.8806 28.3047 86.4326 27.8333 86.1059 27.236C85.7792 26.6293 85.6159 25.9527 85.6159 25.206C85.6159 24.45 85.7746 23.778 86.0919 23.19C86.4186 22.602 86.8572 22.14 87.4079 21.804C87.9679 21.4587 88.5932 21.286 89.2839 21.286C89.8439 21.286 90.3386 21.3887 90.7679 21.594C91.2066 21.79 91.5752 22.0607 91.8739 22.406C92.1819 22.742 92.4152 23.1293 92.5739 23.568C92.7419 23.9973 92.8259 24.4453 92.8259 24.912C92.8259 25.0147 92.8166 25.1313 92.7979 25.262C92.7886 25.3833 92.7746 25.5 92.7559 25.612H86.5679V24.492H91.9999L91.3839 24.996C91.4679 24.5107 91.4212 24.0767 91.2439 23.694C91.0666 23.3113 90.8052 23.008 90.4599 22.784C90.1146 22.56 89.7226 22.448 89.2839 22.448C88.8452 22.448 88.4439 22.56 88.0799 22.784C87.7159 23.008 87.4312 23.33 87.2259 23.75C87.0299 24.1607 86.9506 24.6507 86.9879 25.22C86.9506 25.7707 87.0346 26.256 87.2399 26.676C87.4546 27.0867 87.7532 27.4087 88.1359 27.642C88.5279 27.866 88.9526 27.978 89.4099 27.978C89.9139 27.978 90.3386 27.8613 90.6839 27.628C91.0292 27.3947 91.3092 27.096 91.5239 26.732L92.6159 27.292C92.4666 27.6373 92.2332 27.9547 91.9159 28.244C91.6079 28.524 91.2392 28.748 90.8099 28.916C90.3899 29.084 89.9186 29.168 89.3959 29.168ZM97.9955 29.168C97.2675 29.168 96.6188 28.9953 96.0495 28.65C95.4802 28.3047 95.0322 27.8333 94.7055 27.236C94.3788 26.6293 94.2155 25.9527 94.2155 25.206C94.2155 24.45 94.3742 23.778 94.6915 23.19C95.0182 22.602 95.4568 22.14 96.0075 21.804C96.5675 21.4587 97.1928 21.286 97.8835 21.286C98.4435 21.286 98.9382 21.3887 99.3675 21.594C99.8062 21.79 100.175 22.0607 100.474 22.406C100.782 22.742 101.015 23.1293 101.174 23.568C101.342 23.9973 101.426 24.4453 101.426 24.912C101.426 25.0147 101.416 25.1313 101.398 25.262C101.388 25.3833 101.374 25.5 101.356 25.612H95.1675V24.492H100.6L99.9835 24.996C100.068 24.5107 100.021 24.0767 99.8435 23.694C99.6662 23.3113 99.4048 23.008 99.0595 22.784C98.7142 22.56 98.3222 22.448 97.8835 22.448C97.4448 22.448 97.0435 22.56 96.6795 22.784C96.3155 23.008 96.0308 23.33 95.8255 23.75C95.6295 24.1607 95.5502 24.6507 95.5875 25.22C95.5502 25.7707 95.6342 26.256 95.8395 26.676C96.0542 27.0867 96.3528 27.4087 96.7355 27.642C97.1275 27.866 97.5522 27.978 98.0095 27.978C98.5135 27.978 98.9382 27.8613 99.2835 27.628C99.6288 27.3947 99.9088 27.096 100.124 26.732L101.216 27.292C101.066 27.6373 100.833 27.9547 100.516 28.244C100.208 28.524 99.8388 28.748 99.4095 28.916C98.9895 29.084 98.5182 29.168 97.9955 29.168ZM107.755 29.168C107.26 29.168 106.822 29.0793 106.439 28.902C106.066 28.7153 105.772 28.4633 105.557 28.146C105.342 27.8193 105.235 27.446 105.235 27.026C105.235 26.6247 105.319 26.2653 105.487 25.948C105.664 25.6213 105.935 25.346 106.299 25.122C106.672 24.898 107.139 24.7393 107.699 24.646L110.499 24.184V25.276L107.993 25.696C107.508 25.78 107.153 25.934 106.929 26.158C106.714 26.382 106.607 26.6573 106.607 26.984C106.607 27.292 106.728 27.5487 106.971 27.754C107.223 27.9593 107.536 28.062 107.909 28.062C108.385 28.062 108.796 27.964 109.141 27.768C109.496 27.5627 109.771 27.2873 109.967 26.942C110.172 26.5967 110.275 26.214 110.275 25.794V23.876C110.275 23.4653 110.121 23.134 109.813 22.882C109.514 22.6207 109.118 22.49 108.623 22.49C108.194 22.49 107.811 22.602 107.475 22.826C107.148 23.0407 106.906 23.33 106.747 23.694L105.613 23.106C105.753 22.7607 105.977 22.4527 106.285 22.182C106.593 21.902 106.952 21.6827 107.363 21.524C107.774 21.3653 108.203 21.286 108.651 21.286C109.23 21.286 109.738 21.398 110.177 21.622C110.616 21.8367 110.956 22.14 111.199 22.532C111.451 22.9147 111.577 23.3627 111.577 23.876V29H110.303V27.572L110.541 27.656C110.382 27.9547 110.168 28.216 109.897 28.44C109.626 28.664 109.309 28.8413 108.945 28.972C108.581 29.1027 108.184 29.168 107.755 29.168ZM117.096 29.168C116.358 29.168 115.7 28.9953 115.122 28.65C114.552 28.3047 114.104 27.8333 113.778 27.236C113.451 26.6387 113.288 25.9667 113.288 25.22C113.288 24.464 113.451 23.792 113.778 23.204C114.104 22.616 114.552 22.1493 115.122 21.804C115.7 21.4587 116.358 21.286 117.096 21.286C117.59 21.286 118.052 21.3747 118.482 21.552C118.911 21.7293 119.289 21.9673 119.616 22.266C119.942 22.5647 120.18 22.9147 120.33 23.316L119.168 23.876C118.99 23.484 118.72 23.1667 118.356 22.924C117.992 22.672 117.572 22.546 117.096 22.546C116.638 22.546 116.223 22.6627 115.85 22.896C115.486 23.1293 115.196 23.4467 114.982 23.848C114.767 24.2493 114.66 24.7113 114.66 25.234C114.66 25.738 114.767 26.1953 114.982 26.606C115.196 27.0073 115.486 27.3247 115.85 27.558C116.223 27.7913 116.638 27.908 117.096 27.908C117.572 27.908 117.992 27.7867 118.356 27.544C118.72 27.292 118.99 26.9607 119.168 26.55L120.33 27.138C120.18 27.53 119.942 27.88 119.616 28.188C119.289 28.4867 118.911 28.7247 118.482 28.902C118.052 29.0793 117.59 29.168 117.096 29.168ZM125.531 29.168C124.794 29.168 124.136 28.9953 123.557 28.65C122.988 28.3047 122.54 27.8333 122.213 27.236C121.887 26.6387 121.723 25.9667 121.723 25.22C121.723 24.464 121.887 23.792 122.213 23.204C122.54 22.616 122.988 22.1493 123.557 21.804C124.136 21.4587 124.794 21.286 125.531 21.286C126.026 21.286 126.488 21.3747 126.917 21.552C127.347 21.7293 127.725 21.9673 128.051 22.266C128.378 22.5647 128.616 22.9147 128.765 23.316L127.603 23.876C127.426 23.484 127.155 23.1667 126.791 22.924C126.427 22.672 126.007 22.546 125.531 22.546C125.074 22.546 124.659 22.6627 124.285 22.896C123.921 23.1293 123.632 23.4467 123.417 23.848C123.203 24.2493 123.095 24.7113 123.095 25.234C123.095 25.738 123.203 26.1953 123.417 26.606C123.632 27.0073 123.921 27.3247 124.285 27.558C124.659 27.7913 125.074 27.908 125.531 27.908C126.007 27.908 126.427 27.7867 126.791 27.544C127.155 27.292 127.426 26.9607 127.603 26.55L128.765 27.138C128.616 27.53 128.378 27.88 128.051 28.188C127.725 28.4867 127.347 28.7247 126.917 28.902C126.488 29.0793 126.026 29.168 125.531 29.168ZM134.051 29.168C133.323 29.168 132.665 29 132.077 28.664C131.489 28.3187 131.022 27.8473 130.677 27.25C130.332 26.6527 130.159 25.976 130.159 25.22C130.159 24.464 130.327 23.792 130.663 23.204C131.008 22.616 131.475 22.1493 132.063 21.804C132.651 21.4587 133.314 21.286 134.051 21.286C134.779 21.286 135.437 21.4587 136.025 21.804C136.613 22.14 137.075 22.602 137.411 23.19C137.756 23.778 137.929 24.4547 137.929 25.22C137.929 25.9853 137.752 26.6667 137.397 27.264C137.042 27.852 136.571 28.3187 135.983 28.664C135.404 29 134.76 29.168 134.051 29.168ZM134.051 27.908C134.518 27.908 134.938 27.7913 135.311 27.558C135.694 27.3247 135.992 27.0027 136.207 26.592C136.431 26.1813 136.543 25.724 136.543 25.22C136.543 24.7067 136.431 24.254 136.207 23.862C135.992 23.4607 135.694 23.1433 135.311 22.91C134.938 22.6673 134.518 22.546 134.051 22.546C133.575 22.546 133.146 22.6673 132.763 22.91C132.39 23.1433 132.091 23.4607 131.867 23.862C131.643 24.254 131.531 24.7067 131.531 25.22C131.531 25.724 131.643 26.1813 131.867 26.592C132.091 27.0027 132.39 27.3247 132.763 27.558C133.146 27.7913 133.575 27.908 134.051 27.908ZM142.301 29.168C141.76 29.168 141.27 29.042 140.831 28.79C140.402 28.538 140.066 28.188 139.823 27.74C139.59 27.2827 139.473 26.76 139.473 26.172V21.454H140.775V26.032C140.775 26.4053 140.85 26.732 140.999 27.012C141.158 27.292 141.372 27.5113 141.643 27.67C141.923 27.8287 142.24 27.908 142.595 27.908C142.95 27.908 143.262 27.8287 143.533 27.67C143.813 27.5113 144.028 27.2827 144.177 26.984C144.336 26.6853 144.415 26.3307 144.415 25.92V21.454H145.731V29H144.457V27.53L144.667 27.656C144.49 28.132 144.186 28.5053 143.757 28.776C143.337 29.0373 142.852 29.168 142.301 29.168ZM147.748 29V21.454H149.022V22.924L148.812 22.798C148.999 22.322 149.297 21.9533 149.708 21.692C150.128 21.4213 150.618 21.286 151.178 21.286C151.719 21.286 152.2 21.4073 152.62 21.65C153.049 21.8927 153.385 22.2287 153.628 22.658C153.88 23.0873 154.006 23.5727 154.006 24.114V29H152.69V24.534C152.69 24.114 152.615 23.7593 152.466 23.47C152.317 23.1807 152.102 22.9567 151.822 22.798C151.551 22.63 151.239 22.546 150.884 22.546C150.529 22.546 150.212 22.63 149.932 22.798C149.661 22.9567 149.447 23.1853 149.288 23.484C149.129 23.7733 149.05 24.1233 149.05 24.534V29H147.748ZM158.935 29.084C158.198 29.084 157.629 28.874 157.227 28.454C156.835 28.034 156.639 27.4413 156.639 26.676V22.7H155.267V21.454H155.547C155.883 21.454 156.149 21.3513 156.345 21.146C156.541 20.9407 156.639 20.67 156.639 20.334V19.718H157.941V21.454H159.635V22.7H157.941V26.634C157.941 26.886 157.979 27.1053 158.053 27.292C158.137 27.4787 158.273 27.628 158.459 27.74C158.646 27.8427 158.893 27.894 159.201 27.894C159.267 27.894 159.346 27.8893 159.439 27.88C159.542 27.8707 159.635 27.8613 159.719 27.852V29C159.598 29.028 159.463 29.0467 159.313 29.056C159.164 29.0747 159.038 29.084 158.935 29.084Z" fill="white"/>
</g>
<defs>
<filter id="filter0_d_164_140" x="0.687378" y="0" width="188.859" height="47" filterUnits="userSpaceOnUse" color-interpolation-filters="sRGB">
<feFlood flood-opacity="0" result="BackgroundImageFix"/>
<feColorMatrix in="SourceAlpha" type="matrix" values="0 0 0 0 0 0 0 0 0 0 0 0 0 0 0 0 0 0 127 0" result="hardAlpha"/>
<feOffset dx="3" dy="3"/>
<feComposite in2="hardAlpha" operator="out"/>
<feColorMatrix type="matrix" values="0 0 0 0 0.180392 0 0 0 0 0.184314 0 0 0 0 0.207843 0 0 0 1 0"/>
<feBlend mode="normal" in2="BackgroundImageFix" result="effect1_dropShadow_164_140"/>
<feBlend mode="normal" in="SourceGraphic" in2="effect1_dropShadow_164_140" result="shape"/>
</filter>
</defs>
</svg>
