<svg width="22" height="22" viewBox="0 0 24 24" fill="none" xmlns="http://www.w3.org/2000/svg">
<path d="M23.3686 3.73965L12.2918 0.0473757C12.1023 -0.0157919 11.8975 -0.0157919 11.708 0.0473757L0.631148 3.73965C0.447348 3.80092 0.287487 3.91847 0.17421 4.07565C0.0609337 4.23283 -1.43563e-05 4.42167 2.53655e-09 4.61541V13.8461C2.53655e-09 14.0909 0.0972516 14.3257 0.270361 14.4988C0.44347 14.6719 0.678256 14.7692 0.923069 14.7692C1.16788 14.7692 1.40267 14.6719 1.57578 14.4988C1.74889 14.3257 1.84614 14.0909 1.84614 13.8461V5.89617L5.72187 7.18731C4.69214 8.85092 4.36469 10.8552 4.81142 12.76C5.25815 14.6648 6.44255 16.3145 8.10455 17.3468C6.02764 18.1615 4.23227 19.6349 2.91921 21.6495C2.85092 21.751 2.80348 21.8651 2.77966 21.985C2.75584 22.105 2.75611 22.2286 2.78045 22.3484C2.80479 22.4683 2.85271 22.5822 2.92144 22.6834C2.99016 22.7846 3.07832 22.8711 3.18078 22.9379C3.28325 23.0048 3.39797 23.0506 3.51829 23.0727C3.6386 23.0948 3.76211 23.0927 3.88164 23.0667C4.00116 23.0406 4.11432 22.9911 4.21452 22.9209C4.31473 22.8507 4.39999 22.7614 4.46535 22.658C6.20418 19.9903 8.95031 18.4614 11.9999 18.4614C15.0495 18.4614 17.7956 19.9903 19.5344 22.658C19.6698 22.8592 19.879 22.999 20.1166 23.0473C20.3543 23.0955 20.6014 23.0483 20.8046 22.9158C21.0077 22.7833 21.1505 22.5762 21.2022 22.3392C21.2538 22.1023 21.2102 21.8545 21.0806 21.6495C19.7675 19.6349 17.9652 18.1615 15.8952 17.3468C17.5557 16.3146 18.7389 14.6659 19.1856 12.7625C19.6322 10.8591 19.3058 8.8562 18.2779 7.19308L23.3686 5.49694C23.5525 5.43571 23.7124 5.31817 23.8257 5.16099C23.939 5.00381 24 4.81495 24 4.62118C24 4.42741 23.939 4.23856 23.8257 4.08138C23.7124 3.92419 23.5525 3.80666 23.3686 3.74542V3.73965ZM17.5383 11.0769C17.5386 11.9525 17.3312 12.8157 16.9333 13.5956C16.5353 14.3755 15.9581 15.05 15.249 15.5637C14.5399 16.0774 13.7192 16.4156 12.854 16.5506C11.9889 16.6857 11.1041 16.6137 10.2722 16.3405C9.4403 16.0674 8.68501 15.6009 8.0683 14.9793C7.4516 14.3577 6.99105 13.5988 6.72445 12.7648C6.45785 11.9308 6.39279 11.0454 6.53462 10.1814C6.67644 9.31737 7.0211 8.49927 7.54032 7.79423L11.708 9.17884C11.8975 9.242 12.1023 9.242 12.2918 9.17884L16.4595 7.79423C17.1608 8.74499 17.5389 9.89548 17.5383 11.0769ZM11.9999 7.33501L3.84227 4.61541L11.9999 1.89582L20.1575 4.61541L11.9999 7.33501Z" fill="black"/>
</svg>
