<svg width="105" height="105" viewBox="0 0 105 105" fill="none" xmlns="http://www.w3.org/2000/svg">
<rect x="10" y="10" width="85" height="85" rx="20" fill="#AE8EC0"/>
<path d="M53.0553 83.3116C53.0553 77.8624 55.0453 72.7636 59.0252 68.0151C63.0052 63.2667 67.6848 60.3958 73.0642 59.4025C73.6799 59.254 74.2726 59.2213 74.8424 59.3042C75.41 59.385 75.9089 59.6601 76.339 60.1295C76.7407 60.5879 76.983 61.1086 77.066 61.6915C77.149 62.2744 77.1162 62.8421 76.9678 63.3944C75.8172 68.6996 72.8961 73.3454 68.2044 77.3319C63.5106 81.3184 58.4609 83.3116 53.0553 83.3116ZM56.7951 79.6537C61.0829 78.5075 64.6939 76.4663 67.6281 73.5299C70.5623 70.5957 72.6036 66.9858 73.7519 62.7002C69.4641 63.8463 65.8531 65.8876 62.9189 68.824C59.9826 71.756 57.9413 75.3659 56.7951 79.6537ZM53.0553 83.3935C53.0553 77.9443 51.0653 72.8454 47.0854 68.097C43.1054 63.3486 38.4258 60.4777 33.0464 59.4843C32.4307 59.3359 31.838 59.3031 31.2682 59.3861C30.7006 59.4669 30.2017 59.7419 29.7716 60.2113C29.3699 60.6698 29.1276 61.1905 29.0446 61.7734C28.9617 62.3563 28.9944 62.9239 29.1429 63.4763C30.2934 68.7814 33.2145 73.4273 37.9062 77.4138C42.6 81.4003 47.6497 83.3935 53.0553 83.3935ZM49.3155 79.6537C45.0277 78.5075 41.4167 76.4663 38.4825 73.5299C35.5483 70.5957 33.507 66.9858 32.3587 62.7002C36.6465 63.8463 40.2575 65.8876 43.1917 68.824C46.128 71.756 48.1693 75.3659 49.3155 79.6537ZM53.0553 45.2947C54.1513 45.2947 55.0868 44.9072 55.8618 44.1322C56.6368 43.3571 57.0243 42.4216 57.0243 41.3257C57.0243 40.2297 56.6368 39.2942 55.8618 38.5192C55.0868 37.7442 54.1513 37.3566 53.0553 37.3566C51.9593 37.3566 51.0238 37.7442 50.2488 38.5192C49.4738 39.2942 49.0863 40.2297 49.0863 41.3257C49.0863 42.4216 49.4738 43.3571 50.2488 44.1322C51.0238 44.9072 51.9593 45.2947 53.0553 45.2947ZM53.0717 59.6513C51.371 59.6513 49.8351 59.1492 48.4641 58.1449C47.0908 57.1385 46.1488 55.7631 45.6379 54.0187C45.365 54.1475 45.067 54.225 44.7439 54.2512C44.4208 54.2774 44.101 54.2916 43.7844 54.2938C41.6754 54.2938 39.8699 53.557 38.3679 52.0833C36.8659 50.6097 36.1149 48.8107 36.1149 46.6865C36.1149 45.715 36.3168 44.7795 36.7207 43.88C37.1224 42.9783 37.642 42.1269 38.2795 41.3257C37.6551 40.5244 37.1519 39.673 36.7698 38.7713C36.3878 37.8719 36.1967 36.9364 36.1967 35.9649C36.1967 33.8406 36.9357 32.0417 38.4138 30.568C39.8918 29.0944 41.682 28.3575 43.7844 28.3575C44.0988 28.3575 44.4186 28.3717 44.7439 28.4001C45.0692 28.4285 45.3879 28.4831 45.7001 28.5639C46.211 26.8653 47.1378 25.5128 48.4804 24.5064C49.8209 23.5021 51.3459 23 53.0553 23C54.7647 23 56.2897 23.5021 57.6302 24.5064C58.9728 25.5128 59.9007 26.8664 60.4137 28.5671C60.7259 28.482 61.0436 28.4263 61.3667 28.4001C61.692 28.3717 62.0118 28.3575 62.3262 28.3575C64.4308 28.3575 66.221 29.0944 67.6968 30.568C69.1749 32.0417 69.9139 33.8406 69.9139 35.9649C69.9139 36.9495 69.7261 37.8992 69.3506 38.8139C68.9751 39.7287 68.4686 40.5659 67.8311 41.3257C68.4555 42.1269 68.9587 42.9783 69.3408 43.88C69.7228 44.7795 69.9139 45.715 69.9139 46.6865C69.9139 48.8107 69.1749 50.6097 67.6968 52.0833C66.2188 53.557 64.4286 54.2938 62.3262 54.2938C62.0118 54.2938 61.692 54.2796 61.3667 54.2512C61.0414 54.2228 60.7019 54.1464 60.3482 54.022C59.8789 55.7642 58.9728 57.1385 57.6302 58.1449C56.2897 59.1492 54.7702 59.6513 53.0717 59.6513ZM62.3262 51.019C63.5182 51.019 64.5389 50.5933 65.3881 49.7419C66.2352 48.8904 66.6587 47.8676 66.6587 46.6734C66.6587 45.7914 66.4011 44.9792 65.8859 44.237C65.3728 43.4969 64.684 43.0471 63.8195 42.8877L60.2598 42.1247C60.1834 42.6247 60.0699 43.1126 59.9192 43.5885C59.7664 44.0667 59.5547 44.5295 59.2839 44.9771C59.011 45.4268 58.725 45.8285 58.4259 46.1822C58.129 46.5337 57.7623 46.859 57.3256 47.1581L59.6311 49.732C59.9869 50.1185 60.3875 50.4296 60.8329 50.6653C61.2783 50.9011 61.776 51.019 62.3262 51.019ZM60.2598 40.5266L63.8195 39.7636C64.684 39.6042 65.3696 39.1523 65.8761 38.4078C66.3848 37.6612 66.6391 36.8469 66.6391 35.9649C66.6391 34.7728 66.2243 33.7533 65.3947 32.9062C64.5629 32.057 63.5401 31.6323 62.3262 31.6323C61.7542 31.6323 61.2543 31.7502 60.8264 31.986C60.3985 32.2218 60 32.5329 59.6311 32.9193L57.306 35.4933C57.7426 35.7924 58.1137 36.1177 58.4194 36.4692C58.7229 36.8228 59.011 37.2246 59.2839 37.6743C59.5568 38.1218 59.7686 38.5847 59.9192 39.0628C60.0721 39.5387 60.1856 40.0267 60.2598 40.5266ZM50.1407 34.6746C50.6167 34.4999 51.0926 34.358 51.5686 34.2489C52.0423 34.1397 52.5412 34.0851 53.0651 34.0851C53.5891 34.0851 54.089 34.1397 54.565 34.2489C55.0409 34.358 55.5103 34.4999 55.9731 34.6746L57.3256 30.5811C57.6858 29.4655 57.4075 28.4689 56.4905 27.5912C55.5736 26.7136 54.4285 26.2748 53.0553 26.2748C51.6821 26.2748 50.537 26.7136 49.6201 27.5912C48.7031 28.4689 48.4248 29.4655 48.785 30.5811L50.1407 34.6746ZM53.0553 56.3766C54.4285 56.3766 55.5736 55.9377 56.4905 55.0601C57.4075 54.1825 57.6858 53.1858 57.3256 52.0702L55.9699 47.9768C55.5092 48.1951 55.0398 48.3479 54.5617 48.4352C54.088 48.5225 53.5891 48.5662 53.0651 48.5662C52.5412 48.5662 52.039 48.5225 51.5587 48.4352C51.0741 48.3479 50.6014 48.1951 50.1407 47.9768L48.785 52.0702C48.4248 53.1858 48.7031 54.1825 49.6201 55.0601C50.537 55.9377 51.6821 56.3766 53.0553 56.3766ZM45.8508 40.5266C45.9272 40.0267 46.0407 39.5387 46.1914 39.0628C46.3442 38.5847 46.556 38.1218 46.8267 37.6743C47.0996 37.2246 47.3856 36.8228 47.6847 36.4692C47.9816 36.1177 48.3484 35.7924 48.785 35.4933L46.4795 32.9193C46.1237 32.5329 45.7231 32.2218 45.2777 31.986C44.8323 31.7502 44.3346 31.6323 43.7844 31.6323C42.5924 31.6323 41.5717 32.057 40.7225 32.9062C39.8754 33.7533 39.4519 34.7728 39.4519 35.9649C39.4519 36.8469 39.7095 37.6612 40.2247 38.4078C40.7378 39.1523 41.4266 39.6042 42.2911 39.7636L45.8508 40.5266ZM43.7877 50.9994C44.3488 50.9994 44.8563 50.8848 45.3104 50.6555C45.7624 50.4263 46.1521 50.113 46.4795 49.7157L48.8046 47.1581C48.368 46.859 47.9969 46.5337 47.6912 46.1822C47.3878 45.8285 47.0996 45.4268 46.8267 44.9771C46.5538 44.5295 46.342 44.0667 46.1914 43.5885C46.0385 43.1126 45.925 42.6247 45.8508 42.1247L42.2911 42.8877C41.4266 43.0471 40.7301 43.499 40.2018 44.2435C39.6735 44.9902 39.4093 45.8045 39.4093 46.6865C39.4202 47.8894 39.8514 48.909 40.7028 49.7451C41.5543 50.5813 42.5815 50.9994 43.7844 50.9994" fill="#191919"/>
</svg>
