<svg width="105" height="104" viewBox="0 0 105 104" fill="none" xmlns="http://www.w3.org/2000/svg">
<rect x="10" y="10" width="85" height="84" rx="20" fill="#AE8EC0"/>
<path d="M26.8964 83.5452C27.9767 83.5722 29.0515 83.3828 30.0574 82.988C31.0634 82.5933 31.9802 82.0013 32.7538 81.2467C33.5275 80.4922 34.1423 79.5905 34.562 78.5948C34.9818 77.599 35.1981 76.5293 35.1981 75.4486C35.1981 74.368 34.9818 73.2983 34.562 72.3025C34.1423 71.3067 33.5275 70.405 32.7538 69.6505C31.9802 68.896 31.0634 68.304 30.0574 67.9092C29.0515 67.5145 27.9767 67.3251 26.8964 67.3521C24.7841 67.405 22.7762 68.2812 21.3009 69.7938C19.8257 71.3065 18.9999 73.3357 18.9999 75.4486C18.9999 77.5615 19.8257 79.5908 21.3009 81.1034C22.7762 82.6161 24.7841 83.4923 26.8964 83.5452ZM63.3397 75.4461C64.42 75.4731 65.4947 75.2837 66.5007 74.889C67.5067 74.4942 68.4235 73.9022 69.1971 73.1477C69.9707 72.3932 70.5856 71.4915 71.0053 70.4957C71.4251 69.4999 71.6414 68.4302 71.6414 67.3496C71.6414 66.2689 71.4251 65.1992 71.0053 64.2034C70.5856 63.2077 69.9707 62.306 69.1971 61.5514C68.4235 60.7969 67.5067 60.2049 66.5007 59.8101C65.4947 59.4154 64.42 59.226 63.3397 59.253C61.2274 59.3059 59.2194 60.1821 57.7442 61.6948C56.2689 63.2074 55.4432 65.2366 55.4432 67.3496C55.4432 69.4625 56.2689 71.4917 57.7442 73.0044C59.2194 74.517 61.2274 75.3932 63.3397 75.4461Z" stroke="#191919" stroke-width="3" stroke-linecap="round" stroke-linejoin="round"/>
<path d="M34.9956 75.446V42.573C34.9981 42.1288 35.1463 41.6977 35.4175 41.3459C35.6887 40.9941 36.0678 40.741 36.4967 40.6256L42.8867 38.7948M34.9956 53.1773L55.5856 47.4568M71.4338 67.352V60.2063M53.6331 35.4172C51.8581 35.1078 51.8581 32.5518 53.6331 32.2425C56.7858 31.6949 59.704 30.2205 62.0154 28.0076C64.3268 25.7947 65.9266 22.9434 66.6109 19.8175L66.7174 19.3256C67.1028 17.5658 69.6081 17.5556 70.0088 19.3103L70.1355 19.8834C70.8455 22.9955 72.4596 25.8282 74.7751 28.0254C77.0905 30.2227 80.0039 31.6863 83.1488 32.2323C84.939 32.5468 84.939 35.1129 83.1488 35.4273C80.0039 35.9734 77.0905 37.437 74.7751 39.6343C72.4596 41.8315 70.8455 44.6642 70.1355 47.7763L70.0088 48.3443C69.603 50.1041 67.1028 50.0888 66.7174 48.3341L66.6109 47.8422C65.9266 44.7163 64.3268 41.865 62.0154 39.6521C59.704 37.4391 56.7858 35.9648 53.6331 35.4172Z" stroke="#191919" stroke-width="3" stroke-linecap="round" stroke-linejoin="round"/>
</svg>
