<svg width="214" height="67" viewBox="0 0 214 67" fill="none" xmlns="http://www.w3.org/2000/svg">
<g filter="url(#filter0_d_164_334)">
<path d="M0 15C0 6.71573 6.71573 0 15 0H210.047V49C210.047 57.2843 203.331 64 195.047 64H0V15Z" fill="#EC8D5F" shape-rendering="crispEdges"/>
<path d="M1 15C1 7.26801 7.26801 1 15 1H209.047V49C209.047 56.732 202.779 63 195.047 63H1V15Z" stroke="#2E2F35" stroke-width="2" shape-rendering="crispEdges"/>
<path d="M70.9951 37.156C70.3018 37.156 69.6604 37.0303 69.0711 36.779C68.4818 36.5277 67.9661 36.1767 67.5241 35.726C67.0821 35.2753 66.7354 34.7467 66.4841 34.14C66.2414 33.5333 66.1201 32.8703 66.1201 32.151C66.1201 31.4317 66.2371 30.7687 66.4711 30.162C66.7138 29.5467 67.0518 29.018 67.4851 28.576C67.9271 28.1253 68.4428 27.7787 69.0321 27.536C69.6214 27.2847 70.2628 27.159 70.9561 27.159C71.6494 27.159 72.2691 27.276 72.8151 27.51C73.3698 27.744 73.8378 28.056 74.2191 28.446C74.6004 28.8273 74.8734 29.2477 75.0381 29.707L73.4651 30.461C73.2831 29.9583 72.9754 29.551 72.5421 29.239C72.1088 28.927 71.5801 28.771 70.9561 28.771C70.3494 28.771 69.8121 28.914 69.3441 29.2C68.8848 29.486 68.5251 29.8803 68.2651 30.383C68.0138 30.8857 67.8881 31.475 67.8881 32.151C67.8881 32.827 68.0181 33.4207 68.2781 33.932C68.5468 34.4347 68.9151 34.829 69.3831 35.115C69.8511 35.401 70.3884 35.544 70.9951 35.544C71.4891 35.544 71.9441 35.4487 72.3601 35.258C72.7761 35.0587 73.1098 34.7813 73.3611 34.426C73.6124 34.062 73.7381 33.633 73.7381 33.139V32.398L74.5441 33.1H70.9561V31.605H75.5061V32.58C75.5061 33.3253 75.3804 33.984 75.1291 34.556C74.8778 35.128 74.5354 35.609 74.1021 35.999C73.6774 36.3803 73.1964 36.6707 72.6591 36.87C72.1218 37.0607 71.5671 37.156 70.9951 37.156ZM81.3161 37.156C80.5881 37.156 79.9511 36.9913 79.4051 36.662C78.8591 36.3327 78.4345 35.8863 78.1311 35.323C77.8278 34.7597 77.6761 34.1357 77.6761 33.451C77.6761 32.7403 77.8278 32.112 78.1311 31.566C78.4431 31.0113 78.8635 30.5737 79.3921 30.253C79.9295 29.9323 80.5275 29.772 81.1861 29.772C81.7408 29.772 82.2261 29.863 82.6421 30.045C83.0668 30.227 83.4265 30.4783 83.7211 30.799C84.0158 31.1197 84.2411 31.488 84.3971 31.904C84.5531 32.3113 84.6311 32.7533 84.6311 33.23C84.6311 33.3513 84.6225 33.477 84.6051 33.607C84.5965 33.737 84.5748 33.8497 84.5401 33.945H79.0801V32.645H83.5781L82.7721 33.256C82.8501 32.8573 82.8285 32.502 82.7071 32.19C82.5945 31.878 82.4038 31.631 82.1351 31.449C81.8751 31.267 81.5588 31.176 81.1861 31.176C80.8308 31.176 80.5145 31.267 80.2371 31.449C79.9598 31.6223 79.7475 31.8823 79.6001 32.229C79.4615 32.567 79.4095 32.9787 79.4441 33.464C79.4095 33.8973 79.4658 34.283 79.6131 34.621C79.7691 34.9503 79.9945 35.206 80.2891 35.388C80.5925 35.57 80.9391 35.661 81.3291 35.661C81.7191 35.661 82.0485 35.5787 82.3171 35.414C82.5945 35.2493 82.8111 35.0283 82.9671 34.751L84.3451 35.427C84.2065 35.765 83.9898 36.064 83.6951 36.324C83.4005 36.584 83.0495 36.7877 82.6421 36.935C82.2435 37.0823 81.8015 37.156 81.3161 37.156ZM90.3461 37.078C89.5488 37.078 88.9291 36.8613 88.4871 36.428C88.0538 35.986 87.8371 35.3663 87.8371 34.569V31.449H86.6151V29.928H86.7451C87.0918 29.928 87.3604 29.837 87.5511 29.655C87.7418 29.473 87.8371 29.2087 87.8371 28.862V28.316H89.5401V29.928H91.1651V31.449H89.5401V34.478C89.5401 34.712 89.5791 34.9113 89.6571 35.076C89.7438 35.2407 89.8738 35.3663 90.0471 35.453C90.2291 35.5397 90.4588 35.583 90.7361 35.583C90.7968 35.583 90.8661 35.5787 90.9441 35.57C91.0308 35.5613 91.1131 35.5527 91.1911 35.544V37C91.0698 37.0173 90.9311 37.0347 90.7751 37.052C90.6191 37.0693 90.4761 37.078 90.3461 37.078ZM99.8938 37.156C99.1398 37.156 98.4811 36.9783 97.9178 36.623C97.3631 36.259 96.9818 35.7693 96.7738 35.154L98.0478 34.543C98.2298 34.9417 98.4811 35.2537 98.8018 35.479C99.1311 35.7043 99.4951 35.817 99.8938 35.817C100.206 35.817 100.453 35.7477 100.635 35.609C100.817 35.4703 100.908 35.2883 100.908 35.063C100.908 34.9243 100.869 34.8117 100.791 34.725C100.721 34.6297 100.622 34.5517 100.492 34.491C100.37 34.4217 100.236 34.3653 100.089 34.322L98.9318 33.997C98.3338 33.8237 97.8788 33.5593 97.5668 33.204C97.2634 32.8487 97.1118 32.4283 97.1118 31.943C97.1118 31.5097 97.2201 31.1327 97.4368 30.812C97.6621 30.4827 97.9698 30.227 98.3598 30.045C98.7584 29.863 99.2134 29.772 99.7248 29.772C100.392 29.772 100.981 29.9323 101.493 30.253C102.004 30.5737 102.368 31.0243 102.585 31.605L101.285 32.216C101.163 31.8953 100.96 31.6397 100.674 31.449C100.388 31.2583 100.067 31.163 99.7118 31.163C99.4258 31.163 99.2004 31.228 99.0358 31.358C98.8711 31.488 98.7888 31.657 98.7888 31.865C98.7888 31.995 98.8234 32.1077 98.8928 32.203C98.9621 32.2983 99.0574 32.3763 99.1788 32.437C99.3088 32.4977 99.4561 32.554 99.6208 32.606L100.752 32.944C101.332 33.1173 101.779 33.3773 102.091 33.724C102.411 34.0707 102.572 34.4953 102.572 34.998C102.572 35.4227 102.459 35.7997 102.234 36.129C102.008 36.4497 101.696 36.701 101.298 36.883C100.899 37.065 100.431 37.156 99.8938 37.156ZM108.304 37.078C107.507 37.078 106.887 36.8613 106.445 36.428C106.012 35.986 105.795 35.3663 105.795 34.569V31.449H104.573V29.928H104.703C105.05 29.928 105.319 29.837 105.509 29.655C105.7 29.473 105.795 29.2087 105.795 28.862V28.316H107.498V29.928H109.123V31.449H107.498V34.478C107.498 34.712 107.537 34.9113 107.615 35.076C107.702 35.2407 107.832 35.3663 108.005 35.453C108.187 35.5397 108.417 35.583 108.694 35.583C108.755 35.583 108.824 35.5787 108.902 35.57C108.989 35.5613 109.071 35.5527 109.149 35.544V37C109.028 37.0173 108.889 37.0347 108.733 37.052C108.577 37.0693 108.434 37.078 108.304 37.078ZM113.77 37.156C113.276 37.156 112.847 37.0737 112.483 36.909C112.119 36.7443 111.838 36.5103 111.638 36.207C111.439 35.895 111.339 35.5353 111.339 35.128C111.339 34.738 111.426 34.3913 111.599 34.088C111.773 33.776 112.041 33.516 112.405 33.308C112.769 33.1 113.229 32.9527 113.783 32.866L116.097 32.489V33.789L114.108 34.127C113.77 34.1877 113.519 34.296 113.354 34.452C113.19 34.608 113.107 34.8117 113.107 35.063C113.107 35.3057 113.198 35.5007 113.38 35.648C113.571 35.7867 113.805 35.856 114.082 35.856C114.438 35.856 114.75 35.7823 115.018 35.635C115.296 35.479 115.508 35.2667 115.655 34.998C115.811 34.7293 115.889 34.4347 115.889 34.114V32.294C115.889 31.9907 115.768 31.7393 115.525 31.54C115.291 31.332 114.979 31.228 114.589 31.228C114.225 31.228 113.9 31.3277 113.614 31.527C113.337 31.7177 113.133 31.9733 113.003 32.294L111.612 31.618C111.751 31.2453 111.968 30.9247 112.262 30.656C112.566 30.3787 112.921 30.162 113.328 30.006C113.736 29.85 114.178 29.772 114.654 29.772C115.235 29.772 115.746 29.8803 116.188 30.097C116.63 30.305 116.973 30.5997 117.215 30.981C117.467 31.3537 117.592 31.7913 117.592 32.294V37H115.98V35.791L116.344 35.765C116.162 36.0683 115.946 36.324 115.694 36.532C115.443 36.7313 115.157 36.8873 114.836 37C114.516 37.104 114.16 37.156 113.77 37.156ZM120.366 37V29.928H121.965V31.501L121.835 31.267C122 30.7383 122.256 30.37 122.602 30.162C122.958 29.954 123.382 29.85 123.876 29.85H124.292V31.358H123.681C123.196 31.358 122.806 31.5097 122.511 31.813C122.217 32.1077 122.069 32.5237 122.069 33.061V37H120.366ZM129.783 37.156C129.055 37.156 128.418 36.9913 127.872 36.662C127.326 36.3327 126.901 35.8863 126.598 35.323C126.294 34.7597 126.143 34.1357 126.143 33.451C126.143 32.7403 126.294 32.112 126.598 31.566C126.91 31.0113 127.33 30.5737 127.859 30.253C128.396 29.9323 128.994 29.772 129.653 29.772C130.207 29.772 130.693 29.863 131.109 30.045C131.533 30.227 131.893 30.4783 132.188 30.799C132.482 31.1197 132.708 31.488 132.864 31.904C133.02 32.3113 133.098 32.7533 133.098 33.23C133.098 33.3513 133.089 33.477 133.072 33.607C133.063 33.737 133.041 33.8497 133.007 33.945H127.547V32.645H132.045L131.239 33.256C131.317 32.8573 131.295 32.502 131.174 32.19C131.061 31.878 130.87 31.631 130.602 31.449C130.342 31.267 130.025 31.176 129.653 31.176C129.297 31.176 128.981 31.267 128.704 31.449C128.426 31.6223 128.214 31.8823 128.067 32.229C127.928 32.567 127.876 32.9787 127.911 33.464C127.876 33.8973 127.932 34.283 128.08 34.621C128.236 34.9503 128.461 35.206 128.756 35.388C129.059 35.57 129.406 35.661 129.796 35.661C130.186 35.661 130.515 35.5787 130.784 35.414C131.061 35.2493 131.278 35.0283 131.434 34.751L132.812 35.427C132.673 35.765 132.456 36.064 132.162 36.324C131.867 36.584 131.516 36.7877 131.109 36.935C130.71 37.0823 130.268 37.156 129.783 37.156ZM138.878 37.156C138.193 37.156 137.582 36.9957 137.045 36.675C136.507 36.3457 136.083 35.8993 135.771 35.336C135.459 34.7727 135.303 34.1487 135.303 33.464C135.303 32.7707 135.459 32.1467 135.771 31.592C136.083 31.0373 136.507 30.5953 137.045 30.266C137.591 29.9367 138.197 29.772 138.865 29.772C139.402 29.772 139.879 29.8803 140.295 30.097C140.719 30.305 141.053 30.5997 141.296 30.981L141.036 31.332V27.159H142.739V37H141.127V35.635L141.309 35.973C141.066 36.3543 140.728 36.649 140.295 36.857C139.861 37.0563 139.389 37.156 138.878 37.156ZM139.06 35.596C139.45 35.596 139.792 35.505 140.087 35.323C140.381 35.141 140.611 34.8897 140.776 34.569C140.949 34.2483 141.036 33.88 141.036 33.464C141.036 33.0567 140.949 32.6927 140.776 32.372C140.611 32.0427 140.381 31.787 140.087 31.605C139.792 31.423 139.45 31.332 139.06 31.332C138.678 31.332 138.336 31.4273 138.033 31.618C137.729 31.8 137.491 32.0513 137.318 32.372C137.153 32.684 137.071 33.048 137.071 33.464C137.071 33.88 137.153 34.2483 137.318 34.569C137.491 34.8897 137.729 35.141 138.033 35.323C138.336 35.505 138.678 35.596 139.06 35.596Z" fill="white"/>
</g>
<defs>
<filter id="filter0_d_164_334" x="0" y="0" width="213.047" height="67" filterUnits="userSpaceOnUse" color-interpolation-filters="sRGB">
<feFlood flood-opacity="0" result="BackgroundImageFix"/>
<feColorMatrix in="SourceAlpha" type="matrix" values="0 0 0 0 0 0 0 0 0 0 0 0 0 0 0 0 0 0 127 0" result="hardAlpha"/>
<feOffset dx="3" dy="3"/>
<feComposite in2="hardAlpha" operator="out"/>
<feColorMatrix type="matrix" values="0 0 0 0 0.180392 0 0 0 0 0.184314 0 0 0 0 0.207843 0 0 0 1 0"/>
<feBlend mode="normal" in2="BackgroundImageFix" result="effect1_dropShadow_164_334"/>
<feBlend mode="normal" in="SourceGraphic" in2="effect1_dropShadow_164_334" result="shape"/>
</filter>
</defs>
</svg>
