<svg width="41" height="41" viewBox="0 0 41 41" fill="none" xmlns="http://www.w3.org/2000/svg">
<path d="M36.8598 17.2356H35.5173V17.1665H20.5173V23.8331H29.9364C28.5623 27.714 24.8698 30.4998 20.5173 30.4998C14.9948 30.4998 10.5173 26.0223 10.5173 20.4998C10.5173 14.9773 14.9948 10.4998 20.5173 10.4998C23.0664 10.4998 25.3856 11.4615 27.1514 13.0323L31.8656 8.31813C28.8889 5.54396 24.9073 3.83313 20.5173 3.83313C11.3131 3.83313 3.85059 11.2956 3.85059 20.4998C3.85059 29.704 11.3131 37.1665 20.5173 37.1665C29.7214 37.1665 37.1839 29.704 37.1839 20.4998C37.1839 19.3823 37.0689 18.2915 36.8598 17.2356Z" fill="#FFC107"/>
<path d="M5.77319 12.7423L11.249 16.7581C12.7307 13.0898 16.319 10.4998 20.5182 10.4998C23.0674 10.4998 25.3865 11.4615 27.1524 13.0323L31.8665 8.31813C28.8899 5.54396 24.9082 3.83313 20.5182 3.83313C14.1165 3.83313 8.56486 7.4473 5.77319 12.7423Z" fill="#FF3D00"/>
<path d="M20.5191 37.1669C24.8241 37.1669 28.7358 35.5194 31.6933 32.8403L26.535 28.4753C24.8054 29.7906 22.692 30.502 20.5191 30.5003C16.1841 30.5003 12.5033 27.7361 11.1166 23.8786L5.68164 28.0661C8.43997 33.4636 14.0416 37.1669 20.5191 37.1669Z" fill="#4CAF50"/>
<path d="M36.8606 17.236H35.5181V17.1669H20.5181V23.8335H29.9372C29.2799 25.6805 28.0959 27.2945 26.5314 28.476L26.5339 28.4744L31.6922 32.8394C31.3272 33.171 37.1847 28.8335 37.1847 20.5002C37.1847 19.3827 37.0697 18.2919 36.8606 17.236Z" fill="#1976D2"/>
</svg>
