<svg width="21" height="24" viewBox="0 0 23 28" fill="none" xmlns="http://www.w3.org/2000/svg">
<path d="M13.5286 2.56202C13.5286 2.37381 13.6034 2.19332 13.7365 2.06023C13.8695 1.92715 14.05 1.85238 14.2383 1.85238H22.0443C22.2325 1.85238 22.413 1.92715 22.5461 2.06023C22.6791 2.19332 22.7539 2.37381 22.7539 2.56202C22.7539 2.75023 22.6791 2.93073 22.5461 3.06381C22.413 3.19689 22.2325 3.27166 22.0443 3.27166H14.2383C14.05 3.27166 13.8695 3.19689 13.7365 3.06381C13.6034 2.93073 13.5286 2.75023 13.5286 2.56202ZM22.0443 6.11021H14.2383C14.05 6.11021 13.8695 6.18497 13.7365 6.31806C13.6034 6.45114 13.5286 6.63164 13.5286 6.81985C13.5286 7.00806 13.6034 7.18855 13.7365 7.32164C13.8695 7.45472 14.05 7.52949 14.2383 7.52949H22.0443C22.2325 7.52949 22.413 7.45472 22.5461 7.32164C22.6791 7.18855 22.7539 7.00806 22.7539 6.81985C22.7539 6.63164 22.6791 6.45114 22.5461 6.31806C22.413 6.18497 22.2325 6.11021 22.0443 6.11021ZM22.0443 10.368H16.3672C16.179 10.368 15.9985 10.4428 15.8654 10.5759C15.7323 10.709 15.6575 10.8895 15.6575 11.0777C15.6575 11.2659 15.7323 11.4464 15.8654 11.5795C15.9985 11.7125 16.179 11.7873 16.3672 11.7873H22.0443C22.2325 11.7873 22.413 11.7125 22.5461 11.5795C22.6791 11.4464 22.7539 11.2659 22.7539 11.0777C22.7539 10.8895 22.6791 10.709 22.5461 10.5759C22.413 10.4428 22.2325 10.368 22.0443 10.368ZM13.5064 12.3195C13.5296 12.4098 13.5348 12.5038 13.5217 12.5961C13.5086 12.6883 13.4774 12.7771 13.43 12.8574C13.3825 12.9376 13.3197 13.0077 13.2452 13.0637C13.1706 13.1196 13.0858 13.1604 12.9955 13.1835C12.9377 13.1991 12.878 13.2069 12.8181 13.2066C12.6607 13.2067 12.5078 13.1544 12.3833 13.0581C12.2589 12.9617 12.17 12.8267 12.1306 12.6744C11.5842 10.5508 9.43933 8.94876 7.14099 8.94876C4.84265 8.94876 2.69777 10.5499 2.15135 12.6744C2.1043 12.8567 1.98675 13.0128 1.82455 13.1085C1.66236 13.2042 1.46881 13.2315 1.28648 13.1844C1.10416 13.1374 0.94799 13.0198 0.852336 12.8576C0.756683 12.6954 0.729379 12.5019 0.776431 12.3195C1.27229 10.3938 2.71374 8.83433 4.54283 8.06171C3.83854 7.51925 3.32171 6.76995 3.06482 5.91889C2.80793 5.06784 2.82386 4.15772 3.11038 3.31618C3.3969 2.47464 3.93964 1.74388 4.66248 1.2264C5.38533 0.708917 6.25201 0.430664 7.14099 0.430664C8.02997 0.430664 8.89666 0.708917 9.6195 1.2264C10.3423 1.74388 10.8851 2.47464 11.1716 3.31618C11.4581 4.15772 11.4741 5.06784 11.2172 5.91889C10.9603 6.76995 10.4434 7.51925 9.73915 8.06171C11.5691 8.83433 13.0106 10.3938 13.5064 12.3195ZM7.14188 7.52949C7.70329 7.52949 8.2521 7.36301 8.71889 7.0511C9.18569 6.7392 9.54952 6.29588 9.76436 5.7772C9.9792 5.25852 10.0354 4.68779 9.92589 4.13716C9.81636 3.58654 9.54602 3.08075 9.14904 2.68378C8.75206 2.2868 8.24628 2.01645 7.69565 1.90693C7.14503 1.7974 6.57429 1.85361 6.05561 2.06846C5.53694 2.2833 5.09362 2.64712 4.78171 3.11392C4.46981 3.58072 4.30333 4.12952 4.30333 4.69093C4.30333 5.44377 4.60239 6.16576 5.13472 6.69809C5.66705 7.23042 6.38905 7.52949 7.14188 7.52949Z" fill="black"/>
<path d="M13.5286 16.9243C13.5286 16.7361 13.6034 16.5556 13.7365 16.4225C13.8695 16.2895 14.05 16.2147 14.2383 16.2147H22.0443C22.2325 16.2147 22.413 16.2895 22.5461 16.4225C22.6791 16.5556 22.7539 16.7361 22.7539 16.9243C22.7539 17.1125 22.6791 17.293 22.5461 17.4261C22.413 17.5592 22.2325 17.634 22.0443 17.634H14.2383C14.05 17.634 13.8695 17.5592 13.7365 17.4261C13.6034 17.293 13.5286 17.1125 13.5286 16.9243ZM22.0443 20.4725H14.2383C14.05 20.4725 13.8695 20.5473 13.7365 20.6804C13.6034 20.8134 13.5286 20.9939 13.5286 21.1822C13.5286 21.3704 13.6034 21.5509 13.7365 21.6839C13.8695 21.817 14.05 21.8918 14.2383 21.8918H22.0443C22.2325 21.8918 22.413 21.817 22.5461 21.6839C22.6791 21.5509 22.7539 21.3704 22.7539 21.1822C22.7539 20.9939 22.6791 20.8134 22.5461 20.6804C22.413 20.5473 22.2325 20.4725 22.0443 20.4725ZM22.0443 24.7303H16.3672C16.179 24.7303 15.9985 24.8051 15.8654 24.9382C15.7323 25.0713 15.6575 25.2518 15.6575 25.44C15.6575 25.6282 15.7323 25.8087 15.8654 25.9418C15.9985 26.0749 16.179 26.1496 16.3672 26.1496H22.0443C22.2325 26.1496 22.413 26.0749 22.5461 25.9418C22.6791 25.8087 22.7539 25.6282 22.7539 25.44C22.7539 25.2518 22.6791 25.0713 22.5461 24.9382C22.413 24.8051 22.2325 24.7303 22.0443 24.7303ZM13.5064 26.6818C13.5296 26.7721 13.5348 26.8661 13.5217 26.9584C13.5086 27.0507 13.4774 27.1394 13.43 27.2197C13.3825 27.2999 13.3197 27.37 13.2452 27.426C13.1706 27.4819 13.0858 27.5227 12.9955 27.5458C12.9377 27.5614 12.878 27.5692 12.8181 27.5689C12.6607 27.569 12.5078 27.5167 12.3833 27.4204C12.2589 27.324 12.17 27.189 12.1306 27.0367C11.5842 24.9131 9.43933 23.3111 7.14099 23.3111C4.84265 23.3111 2.69777 24.9122 2.15135 27.0367C2.1043 27.219 1.98675 27.3752 1.82455 27.4708C1.66236 27.5665 1.46881 27.5938 1.28648 27.5467C1.10416 27.4997 0.94799 27.3821 0.852336 27.2199C0.756683 27.0577 0.729379 26.8642 0.776431 26.6818C1.27229 24.7561 2.71374 23.1966 4.54283 22.424C3.83854 21.8816 3.32171 21.1323 3.06482 20.2812C2.80793 19.4301 2.82386 18.52 3.11038 17.6785C3.3969 16.8369 3.93964 16.1062 4.66248 15.5887C5.38533 15.0712 6.25201 14.793 7.14099 14.793C8.02997 14.793 8.89666 15.0712 9.6195 15.5887C10.3423 16.1062 10.8851 16.8369 11.1716 17.6785C11.4581 18.52 11.4741 19.4301 11.2172 20.2812C10.9603 21.1323 10.4434 21.8816 9.73915 22.424C11.5691 23.1966 13.0106 24.7561 13.5064 26.6818ZM7.14188 21.8918C7.70329 21.8918 8.2521 21.7253 8.71889 21.4134C9.18569 21.1015 9.54952 20.6582 9.76436 20.1395C9.9792 19.6208 10.0354 19.0501 9.92589 18.4995C9.81636 17.9488 9.54602 17.4431 9.14904 17.0461C8.75206 16.6491 8.24628 16.3788 7.69565 16.2692C7.14503 16.1597 6.57429 16.2159 6.05561 16.4308C5.53694 16.6456 5.09362 17.0094 4.78171 17.4762C4.46981 17.943 4.30333 18.4918 4.30333 19.0532C4.30333 19.8061 4.60239 20.5281 5.13472 21.0604C5.66705 21.5927 6.38905 21.8918 7.14188 21.8918Z" fill="black"/>
</svg>
