<svg width="28" height="28" viewBox="0 0 44 44" fill="none" xmlns="http://www.w3.org/2000/svg">
<mask id="path-1-inside-1_392_415" fill="white">
<path d="M20.875 17.9575C20.635 18.2335 20.5 18.6145 20.5 18.997C20.5 19.1959 20.421 19.3867 20.2803 19.5273C20.1397 19.668 19.9489 19.747 19.75 19.747C19.5511 19.747 19.3603 19.668 19.2197 19.5273C19.079 19.3867 19 19.1959 19 18.997C19 18.2875 19.2415 17.542 19.75 16.966C20.2705 16.375 21.04 15.997 22 15.997C22.96 15.997 23.7295 16.375 24.25 16.966C24.7585 17.5435 25 18.286 25 18.997C25 19.732 24.826 20.302 24.547 20.782C24.3025 21.2005 23.983 21.532 23.7295 21.7975L23.6665 21.862C23.3875 22.1545 23.173 22.393 23.0155 22.693C22.8655 22.9795 22.75 23.359 22.75 23.9365C22.75 24.1354 22.671 24.3262 22.5303 24.4668C22.3897 24.6075 22.1989 24.6865 22 24.6865C21.8011 24.6865 21.6103 24.6075 21.4697 24.4668C21.329 24.3262 21.25 24.1354 21.25 23.9365C21.25 23.1385 21.415 22.516 21.6865 21.997C21.952 21.4915 22.3015 21.121 22.5835 20.8255L22.6165 20.791C22.8985 20.4955 23.0995 20.2855 23.251 20.026C23.3935 19.7815 23.5 19.4725 23.5 18.997C23.5 18.6145 23.3665 18.232 23.125 17.9575C22.8955 17.698 22.54 17.497 22 17.497C21.46 17.497 21.1045 17.698 20.875 17.9575ZM22 28.315C22.1411 28.3203 22.2819 28.2971 22.4138 28.2468C22.5458 28.1965 22.6662 28.1201 22.768 28.0221C22.8697 27.9241 22.9506 27.8067 23.0059 27.6767C23.0612 27.5467 23.0897 27.407 23.0897 27.2657C23.0897 27.1245 23.0612 26.9847 23.0059 26.8548C22.9506 26.7248 22.8697 26.6073 22.768 26.5094C22.6662 26.4114 22.5458 26.335 22.4138 26.2847C22.2819 26.2343 22.1411 26.2112 22 26.2165C21.7215 26.2165 21.4544 26.3271 21.2575 26.524C21.0606 26.7209 20.95 26.988 20.95 27.2665C20.95 27.545 21.0606 27.812 21.2575 28.009C21.4544 28.2059 21.7215 28.3165 22 28.3165M10 21.997C10.0007 19.3747 10.8602 16.8249 12.4473 14.7374C14.0343 12.6499 16.2614 11.1397 18.788 10.4379C21.3146 9.73597 24.0016 9.88101 26.4379 10.8508C28.8743 11.8206 30.9259 13.5617 32.279 15.8079C33.6321 18.0541 34.2122 20.6817 33.9306 23.2888C33.649 25.8959 32.5211 28.3389 30.7195 30.2444C28.9179 32.1498 26.5418 33.4126 23.9546 33.8397C21.3673 34.2669 18.7114 33.8347 16.393 32.6095L10.933 33.9745C10.8073 34.0061 10.6756 34.0046 10.5507 33.9701C10.4258 33.9357 10.312 33.8694 10.2203 33.7779C10.1286 33.6863 10.0622 33.5726 10.0275 33.4478C9.99285 33.3229 9.99112 33.1912 10.0225 33.0655L11.3875 27.604C10.4754 25.8758 9.99908 23.9511 10 21.997ZM22 11.497C20.1676 11.4964 18.3669 11.9754 16.7769 12.8864C15.187 13.7974 13.8631 15.1086 12.9369 16.6897C12.0107 18.2708 11.5143 20.0668 11.4973 21.8991C11.4802 23.7315 11.9429 25.5364 12.8395 27.1345C12.9337 27.3012 12.9605 27.4976 12.9145 27.6835L11.7805 32.2165L16.3135 31.0825C16.4994 31.0365 16.6958 31.0633 16.8625 31.1575C18.2624 31.9417 19.8234 32.3947 21.4256 32.4816C23.0278 32.5685 24.6287 32.287 26.1052 31.6588C27.5817 31.0306 28.8945 30.0723 29.943 28.8576C30.9914 27.6429 31.7475 26.2041 32.1532 24.6516C32.5588 23.0992 32.6033 21.4744 32.2832 19.9021C31.963 18.3297 31.2868 16.8517 30.3064 15.5815C29.326 14.3112 28.0675 13.2826 26.6275 12.5745C25.1876 11.8665 23.6046 11.4979 22 11.497Z"/>
</mask>
<path d="M20.875 17.9575C20.635 18.2335 20.5 18.6145 20.5 18.997C20.5 19.1959 20.421 19.3867 20.2803 19.5273C20.1397 19.668 19.9489 19.747 19.75 19.747C19.5511 19.747 19.3603 19.668 19.2197 19.5273C19.079 19.3867 19 19.1959 19 18.997C19 18.2875 19.2415 17.542 19.75 16.966C20.2705 16.375 21.04 15.997 22 15.997C22.96 15.997 23.7295 16.375 24.25 16.966C24.7585 17.5435 25 18.286 25 18.997C25 19.732 24.826 20.302 24.547 20.782C24.3025 21.2005 23.983 21.532 23.7295 21.7975L23.6665 21.862C23.3875 22.1545 23.173 22.393 23.0155 22.693C22.8655 22.9795 22.75 23.359 22.75 23.9365C22.75 24.1354 22.671 24.3262 22.5303 24.4668C22.3897 24.6075 22.1989 24.6865 22 24.6865C21.8011 24.6865 21.6103 24.6075 21.4697 24.4668C21.329 24.3262 21.25 24.1354 21.25 23.9365C21.25 23.1385 21.415 22.516 21.6865 21.997C21.952 21.4915 22.3015 21.121 22.5835 20.8255L22.6165 20.791C22.8985 20.4955 23.0995 20.2855 23.251 20.026C23.3935 19.7815 23.5 19.4725 23.5 18.997C23.5 18.6145 23.3665 18.232 23.125 17.9575C22.8955 17.698 22.54 17.497 22 17.497C21.46 17.497 21.1045 17.698 20.875 17.9575ZM22 28.315C22.1411 28.3203 22.2819 28.2971 22.4138 28.2468C22.5458 28.1965 22.6662 28.1201 22.768 28.0221C22.8697 27.9241 22.9506 27.8067 23.0059 27.6767C23.0612 27.5467 23.0897 27.407 23.0897 27.2657C23.0897 27.1245 23.0612 26.9847 23.0059 26.8548C22.9506 26.7248 22.8697 26.6073 22.768 26.5094C22.6662 26.4114 22.5458 26.335 22.4138 26.2847C22.2819 26.2343 22.1411 26.2112 22 26.2165C21.7215 26.2165 21.4544 26.3271 21.2575 26.524C21.0606 26.7209 20.95 26.988 20.95 27.2665C20.95 27.545 21.0606 27.812 21.2575 28.009C21.4544 28.2059 21.7215 28.3165 22 28.3165M10 21.997C10.0007 19.3747 10.8602 16.8249 12.4473 14.7374C14.0343 12.6499 16.2614 11.1397 18.788 10.4379C21.3146 9.73597 24.0016 9.88101 26.4379 10.8508C28.8743 11.8206 30.9259 13.5617 32.279 15.8079C33.6321 18.0541 34.2122 20.6817 33.9306 23.2888C33.649 25.8959 32.5211 28.3389 30.7195 30.2444C28.9179 32.1498 26.5418 33.4126 23.9546 33.8397C21.3673 34.2669 18.7114 33.8347 16.393 32.6095L10.933 33.9745C10.8073 34.0061 10.6756 34.0046 10.5507 33.9701C10.4258 33.9357 10.312 33.8694 10.2203 33.7779C10.1286 33.6863 10.0622 33.5726 10.0275 33.4478C9.99285 33.3229 9.99112 33.1912 10.0225 33.0655L11.3875 27.604C10.4754 25.8758 9.99908 23.9511 10 21.997ZM22 11.497C20.1676 11.4964 18.3669 11.9754 16.7769 12.8864C15.187 13.7974 13.8631 15.1086 12.9369 16.6897C12.0107 18.2708 11.5143 20.0668 11.4973 21.8991C11.4802 23.7315 11.9429 25.5364 12.8395 27.1345C12.9337 27.3012 12.9605 27.4976 12.9145 27.6835L11.7805 32.2165L16.3135 31.0825C16.4994 31.0365 16.6958 31.0633 16.8625 31.1575C18.2624 31.9417 19.8234 32.3947 21.4256 32.4816C23.0278 32.5685 24.6287 32.287 26.1052 31.6588C27.5817 31.0306 28.8945 30.0723 29.943 28.8576C30.9914 27.6429 31.7475 26.2041 32.1532 24.6516C32.5588 23.0992 32.6033 21.4744 32.2832 19.9021C31.963 18.3297 31.2868 16.8517 30.3064 15.5815C29.326 14.3112 28.0675 13.2826 26.6275 12.5745C25.1876 11.8665 23.6046 11.4979 22 11.497Z" fill="black"/>
<path d="M20.875 17.9575L8.5152 7.02658L8.46939 7.07838L8.42401 7.13056L20.875 17.9575ZM19.75 16.966L32.1195 27.8859L32.1259 27.8786L32.1324 27.8713L19.75 16.966ZM24.25 16.966L36.6336 6.06202L36.6324 6.06069L24.25 16.966ZM24.547 20.782L38.7938 29.1054L38.803 29.0895L38.8123 29.0737L24.547 20.782ZM23.7295 21.7975L35.5332 33.3266L35.5987 33.2597L35.6633 33.1919L23.7295 21.7975ZM23.6665 21.862L11.8627 10.3329L11.7944 10.4028L11.727 10.4735L23.6665 21.862ZM23.0155 22.693L8.40644 15.0232L8.40211 15.0315L8.39778 15.0397L23.0155 22.693ZM21.6865 21.997L7.07878 14.3247L7.07245 14.3367L7.06615 14.3488L21.6865 21.997ZM22.5835 20.8255L10.66 9.42019L10.6534 9.42714L10.6468 9.4341L22.5835 20.8255ZM22.6165 20.791L34.5399 32.1963L34.5466 32.1894L34.5532 32.1824L22.6165 20.791ZM23.251 20.026L37.5003 28.345L37.5065 28.3344L23.251 20.026ZM23.125 17.9575L35.5131 7.05867L35.499 7.04261L35.4848 7.02658L23.125 17.9575ZM23.0897 27.2657H6.58968H23.0897ZM22 26.2165V42.7165H22.3119L22.6235 42.7047L22 26.2165ZM10 21.997L26.5 22.0048V22.0011L10 21.997ZM16.393 32.6095L24.1026 18.0214L18.5185 15.0703L12.3912 16.6022L16.393 32.6095ZM10.933 33.9745L6.93117 17.9671L6.92102 17.9697L6.91088 17.9722L10.933 33.9745ZM10.0225 33.0655L-5.9851 29.0647L-5.98636 29.0698L10.0225 33.0655ZM11.3875 27.604L27.3951 31.6048L28.9252 25.4828L25.9797 19.9022L11.3875 27.604ZM22 11.497L22.009 -5.00298L22.005 -5.00298L22 11.497ZM12.8395 27.1345L-1.55053 35.2077L-1.53897 35.2283L-1.52735 35.2489L12.8395 27.1345ZM12.9145 27.6835L28.9212 31.6878L28.9263 31.6675L28.9313 31.6471L12.9145 27.6835ZM11.7805 32.2165L-4.22622 28.2122L-10.9025 54.8994L15.7848 48.2232L11.7805 32.2165ZM16.3135 31.0825L12.3499 15.0656L12.3295 15.0707L12.3092 15.0758L16.3135 31.0825ZM16.8625 31.1575L8.74811 45.5243L8.77317 45.5385L8.79827 45.5526L16.8625 31.1575ZM8.42401 7.13056C5.37348 10.6387 4.00001 14.9503 4.00001 18.997H37C37 22.2787 35.8965 25.8283 33.326 28.7844L8.42401 7.13056ZM4.00001 18.997C4.00001 14.8199 5.65934 10.8138 8.61307 7.86008L31.9476 31.1946C35.1826 27.9596 37 23.5719 37 18.997H4.00001ZM8.61307 7.86008C11.5668 4.90635 15.5729 3.24701 19.75 3.24701V36.247C24.3249 36.247 28.7125 34.4296 31.9476 31.1946L8.61307 7.86008ZM19.75 3.24701C23.9271 3.24701 27.9332 4.90635 30.8869 7.86008L7.55241 31.1946C10.7874 34.4296 15.1751 36.247 19.75 36.247V3.24701ZM30.8869 7.86008C33.8406 10.8138 35.5 14.8199 35.5 18.997H2.50001C2.50001 23.5719 4.31738 27.9596 7.55241 31.1946L30.8869 7.86008ZM35.5 18.997C35.5 21.8603 34.5555 25.1266 32.1195 27.8859L7.3805 6.04606C3.92752 9.95739 2.50001 14.7147 2.50001 18.997H35.5ZM32.1324 27.8713C29.4449 30.9229 25.6638 32.497 22 32.497V-0.502987C16.4162 -0.502987 11.0961 1.82714 7.3676 6.06069L32.1324 27.8713ZM22 32.497C18.3362 32.497 14.5551 30.9229 11.8676 27.8713L36.6324 6.06069C32.9039 1.82714 27.5838 -0.502987 22 -0.502987V32.497ZM11.8664 27.87C9.45428 25.1305 8.5 21.8759 8.5 18.997H41.5C41.5 14.6961 40.0627 9.95647 36.6336 6.06202L11.8664 27.87ZM8.5 18.997C8.5 18.043 8.61555 16.9345 8.93357 15.74C9.25406 14.5362 9.72723 13.4443 10.2817 12.4903L38.8123 29.0737C40.5897 26.0157 41.5 22.5747 41.5 18.997H8.5ZM10.3002 12.4586C10.7906 11.6192 11.2631 11.0239 11.533 10.7042C11.772 10.4211 11.9836 10.2062 11.7957 10.4031L35.6633 33.1919C35.7545 33.0965 37.4272 31.4446 38.7938 29.1054L10.3002 12.4586ZM11.9257 10.2684L11.8627 10.3329L35.4702 33.3911L35.5332 33.3266L11.9257 10.2684ZM11.727 10.4735C11.457 10.7565 9.74976 12.4645 8.40644 15.0232L37.6245 30.3628C37.0884 31.3841 36.5264 32.1542 36.1216 32.6544C35.7758 33.0818 35.499 33.3627 35.606 33.2505L11.727 10.4735ZM8.39778 15.0397C6.90253 17.8957 6.25 20.9382 6.25 23.9365H39.25C39.25 24.7554 39.1671 25.7952 38.8898 26.9765C38.6044 28.1922 38.1676 29.3255 37.6332 30.3462L8.39778 15.0397ZM6.25 23.9365C6.25 19.7594 7.90936 15.7533 10.8631 12.7996L34.1976 36.1341C37.4326 32.8991 39.25 28.5115 39.25 23.9365H6.25ZM10.8631 12.7996C13.8167 9.8459 17.8228 8.18651 22 8.18651V41.1865C26.575 41.1865 30.9626 39.3691 34.1976 36.1341L10.8631 12.7996ZM22 8.18651C26.1772 8.18651 30.1832 9.8459 33.1369 12.7996L9.80241 36.1341C13.0374 39.3691 17.425 41.1865 22 41.1865V8.18651ZM33.1369 12.7996C36.0906 15.7533 37.75 19.7594 37.75 23.9365H4.75C4.75 28.5115 6.5674 32.8991 9.80241 36.1341L33.1369 12.7996ZM37.75 23.9365C37.75 25.562 37.3768 27.5998 36.3068 29.6452L7.06615 14.3488C5.45318 17.4321 4.75 20.715 4.75 23.9365H37.75ZM36.2942 29.6693C35.3778 31.414 34.2456 32.5046 34.5202 32.2169L10.6468 9.4341C10.3574 9.73736 8.52615 11.569 7.07878 14.3247L36.2942 29.6693ZM34.5069 32.2308L34.5399 32.1963L10.693 9.38569L10.66 9.42019L34.5069 32.2308ZM34.5532 32.1824C34.6048 32.1283 35.0609 31.6576 35.5118 31.1314C36.0448 30.5094 36.7815 29.5764 37.5003 28.345L9.00164 11.707C9.56903 10.7351 10.1294 10.0369 10.4536 9.65855C10.6051 9.48177 10.7173 9.36113 10.7438 9.33263C10.7622 9.31291 10.7689 9.30618 10.6798 9.3996L34.5532 32.1824ZM37.5065 28.3344C39.1662 25.4867 40 22.2965 40 18.997H7C7 17.9856 7.11558 16.741 7.48222 15.3611C7.85828 13.9458 8.40928 12.7234 8.99548 11.7176L37.5065 28.3344ZM40 18.997C40 15.0196 38.6678 10.6445 35.5131 7.05867L10.7369 28.8563C8.06517 25.8195 7 22.2094 7 18.997H40ZM35.4848 7.02658C32.0734 3.16928 27.1915 0.997012 22 0.997012V33.997C20.1784 33.997 18.0795 33.647 15.9479 32.6946C13.8141 31.7412 12.0827 30.3781 10.7652 28.8884L35.4848 7.02658ZM22 0.997012C16.8085 0.997012 11.9266 3.16928 8.5152 7.02658L33.2348 28.8884C31.9173 30.3781 30.1859 31.7412 28.0521 32.6946C25.9205 33.647 23.8215 33.997 22 33.997V0.997012ZM21.3765 44.8032C23.7353 44.8924 26.0879 44.5048 28.2935 43.6637L16.5342 12.83C18.4758 12.0895 20.5469 11.7483 22.6235 11.8268L21.3765 44.8032ZM28.2935 43.6637C30.499 42.8225 32.5122 41.5451 34.2126 39.9078L11.3233 16.1364C12.8202 14.695 14.5926 13.5705 16.5342 12.83L28.2935 43.6637ZM34.2126 39.9078C35.913 38.2705 37.2656 36.307 38.1896 34.1348L7.82225 21.2187C8.63562 19.3063 9.8264 17.5778 11.3233 16.1364L34.2126 39.9078ZM38.1896 34.1348C39.1135 31.9625 39.5897 29.6262 39.5897 27.2657H6.58968C6.58968 25.1877 7.00888 23.131 7.82225 21.2187L38.1896 34.1348ZM39.5897 27.2657C39.5897 24.9052 39.1135 22.569 38.1896 20.3967L7.82225 33.3128C7.00889 31.4005 6.58968 29.3438 6.58968 27.2657H39.5897ZM38.1896 20.3967C37.2656 18.2245 35.913 16.261 34.2126 14.6237L11.3233 38.395C9.8264 36.9537 8.63562 35.2252 7.82225 33.3128L38.1896 20.3967ZM34.2126 14.6237C32.5123 12.9865 30.4991 11.709 28.2935 10.8678L16.5342 41.7015C14.5925 40.961 12.8202 39.8364 11.3233 38.395L34.2126 14.6237ZM28.2935 10.8678C26.0879 10.0267 23.7353 9.63909 21.3765 9.72829L22.6235 42.7047C20.5469 42.7832 18.4758 42.442 16.5342 41.7015L28.2935 10.8678ZM22 9.71651C17.3454 9.71651 12.8815 11.5655 9.59028 14.8568L32.9248 38.1913C30.0274 41.0887 26.0976 42.7165 22 42.7165V9.71651ZM9.59028 14.8568C6.299 18.1481 4.45001 22.612 4.45001 27.2665H37.45C37.45 31.3641 35.8222 35.2938 32.9248 38.1913L9.59028 14.8568ZM4.45001 27.2665C4.45001 31.921 6.29899 36.3849 9.59028 39.6762L32.9248 16.3417C35.8222 19.2392 37.45 23.1689 37.45 27.2665H4.45001ZM9.59028 39.6762C12.8815 42.9675 17.3454 44.8165 22 44.8165V11.8165C26.0976 11.8165 30.0274 13.4443 32.9248 16.3417L9.59028 39.6762ZM26.5 22.0011C26.4997 22.9845 26.1774 23.9407 25.5823 24.7235L-0.687701 4.7513C-4.45692 9.70906 -6.49843 15.765 -6.49999 21.9929L26.5 22.0011ZM25.5823 24.7235C24.9871 25.5063 24.1519 26.0726 23.2045 26.3358L14.3716 -5.46009C8.37095 -3.79311 3.08152 -0.206463 -0.687701 4.7513L25.5823 24.7235ZM23.2045 26.3358C22.257 26.599 21.2494 26.5446 20.3358 26.1809L32.54 -4.47936C26.7537 -6.78259 20.3722 -7.12707 14.3716 -5.46009L23.2045 26.3358ZM20.3358 26.1809C19.4221 25.8173 18.6528 25.1644 18.1454 24.322L46.4126 7.29377C43.199 1.95907 38.3264 -2.17613 32.54 -4.47936L20.3358 26.1809ZM18.1454 24.322C17.638 23.4797 17.4204 22.4944 17.526 21.5167L50.3351 25.0608C51.004 18.869 49.6262 12.6285 46.4126 7.29377L18.1454 24.322ZM17.526 21.5167C17.6316 20.539 18.0546 19.6229 18.7302 18.9084L42.7089 41.5804C46.9876 37.055 49.6663 31.2527 50.3351 25.0608L17.526 21.5167ZM18.7302 18.9084C19.4058 18.1938 20.2968 17.7203 21.267 17.5601L26.6422 50.1194C32.7869 49.105 38.4301 46.1057 42.7089 41.5804L18.7302 18.9084ZM21.267 17.5601C22.2372 17.3999 23.2332 17.562 24.1026 18.0214L8.68338 47.1975C14.1896 50.1075 20.4975 51.1338 26.6422 50.1194L21.267 17.5601ZM12.3912 16.6022L6.93117 17.9671L14.9348 49.9818L20.3948 48.6168L12.3912 16.6022ZM6.91088 17.9722C9.54975 17.309 12.3155 17.3406 14.9385 18.0642L6.16297 49.876C9.03581 50.6685 12.0649 50.7032 14.9551 49.9767L6.91088 17.9722ZM14.9385 18.0642C17.5616 18.7878 19.9524 20.1786 21.8779 22.101L-1.43735 45.4548C0.671594 47.5602 3.29008 49.0835 6.16297 49.876L14.9385 18.0642ZM21.8779 22.101C23.8035 24.0234 25.1982 26.4119 25.9261 29.0338L-5.87111 37.8617C-5.07389 40.7333 -3.54633 43.3492 -1.43735 45.4548L21.8779 22.101ZM25.9261 29.0338C26.654 31.6556 26.6903 34.4212 26.0314 37.0612L-5.98636 29.0698C-6.70804 31.9612 -6.66834 34.9902 -5.87111 37.8617L25.9261 29.0338ZM26.0301 37.0663L27.3951 31.6048L-4.6201 23.6032L-5.9851 29.0647L26.0301 37.0663ZM25.9797 19.9022C26.3217 20.5502 26.5003 21.272 26.5 22.0048L-6.49998 21.9892C-6.50218 26.6302 -5.37097 31.2015 -3.20468 35.3058L25.9797 19.9022ZM22.005 -5.00298C17.2931 -5.00442 12.6628 -3.7727 8.57429 -1.43024L24.9796 27.203C24.071 27.7236 23.0421 27.9973 21.995 27.997L22.005 -5.00298ZM8.57429 -1.43024C4.48583 0.912219 1.08157 4.28385 -1.30014 8.34958L27.1739 25.0298C26.6446 25.9333 25.8881 26.6825 24.9796 27.203L8.57429 -1.43024ZM-1.30014 8.34958C-3.68185 12.4153 -4.95809 17.0335 -5.00202 21.7453L27.9965 22.0529C27.9868 23.1 27.7032 24.1263 27.1739 25.0298L-1.30014 8.34958ZM-5.00202 21.7453C-5.04594 26.4571 -3.85603 31.0983 -1.55053 35.2077L27.2295 19.0613C27.7419 19.9745 28.0063 21.0059 27.9965 22.0529L-5.00202 21.7453ZM-1.52735 35.2489C-3.50474 31.7478 -4.06825 27.6231 -3.10235 23.7199L28.9313 31.6471C29.9892 27.3722 29.3721 22.8546 27.2063 19.0201L-1.52735 35.2489ZM-3.09222 23.6792L-4.22622 28.2122L27.7872 36.2208L28.9212 31.6878L-3.09222 23.6792ZM15.7848 48.2232L20.3178 47.0892L12.3092 15.0758L7.77617 16.2098L15.7848 48.2232ZM20.2771 47.0993C16.3738 48.0653 12.2491 47.5017 8.74811 45.5243L24.9769 16.7906C21.1425 14.625 16.6249 14.0077 12.3499 15.0656L20.2771 47.0993ZM8.79827 45.5526C12.398 47.5691 16.412 48.7339 20.532 48.9574L22.3192 16.0058C23.2348 16.0555 24.1268 16.3143 24.9267 16.7624L8.79827 45.5526ZM20.532 48.9574C24.652 49.1808 28.7685 48.457 32.5652 46.8416L19.6452 16.476C20.4889 16.117 21.4037 15.9561 22.3192 16.0058L20.532 48.9574ZM32.5652 46.8416C36.3619 45.2262 39.7378 42.7621 42.4338 39.6386L17.4522 18.0766C18.0513 17.3825 18.8015 16.835 19.6452 16.476L32.5652 46.8416ZM42.4338 39.6386C45.1297 36.5151 47.0739 32.8152 48.1171 28.8232L16.1892 20.4801C16.421 19.5929 16.8531 18.7708 17.4522 18.0766L42.4338 39.6386ZM48.1171 28.8232C49.1603 24.8311 49.2746 20.6531 48.4514 16.61L16.1149 23.1941C15.932 22.2956 15.9574 21.3672 16.1892 20.4801L48.1171 28.8232ZM48.4514 16.61C47.6282 12.5669 45.8893 8.76622 43.3682 5.4999L17.2445 25.663C16.6843 24.9372 16.2979 24.0926 16.1149 23.1941L48.4514 16.61ZM43.3682 5.4999C40.8472 2.23358 37.611 -0.411493 33.9084 -2.23218L19.3467 27.3813C18.5239 26.9767 17.8047 26.3889 17.2445 25.663L43.3682 5.4999ZM33.9084 -2.23218C30.2057 -4.05287 26.1351 -5.00074 22.009 -5.00298L21.991 27.997C21.0741 27.9965 20.1695 27.7859 19.3467 27.3813L33.9084 -2.23218Z" fill="black" mask="url(#path-1-inside-1_392_415)"/>
</svg>
