<svg width="1440" height="1024" viewBox="0 0 1440 1024" fill="none" xmlns="http://www.w3.org/2000/svg">
<g clip-path="url(#clip0_51_30)">
<rect width="1440" height="1024" fill="#AE8EC0"/>
<path d="M60.6637 53.0631L35.8866 43.1953L37.0659 51.513L45.2656 54.7786L44.7692 50.4503L60.7228 56.804L60.6637 53.0631Z" fill="url(#paint0_linear_51_30)"/>
<path d="M62.106 64.9964L61.9847 61.2822L37.0293 51.3435L41.7976 82.9306L48.3786 75.9997L46.0187 58.5895L62.106 64.9964Z" fill="white"/>
<path d="M48.7114 77.3712L48.2903 75.7062L41.727 82.5925L42.158 84.881L63.5975 84.5906L63.1149 77.6347L48.7114 77.3712Z" fill="white"/>
<path d="M59.62 63.5931L62.0123 61.0865L62.2047 64.6225L59.62 63.5931Z" fill="white"/>
<path d="M59.726 63.8429L62.1009 61.6393L62.3552 64.89L59.726 63.8429Z" fill="#E3E0E0"/>
<path d="M46.9561 65.3135L62.0463 64.9727L45.886 58.5367L46.9561 65.3135Z" fill="#E3E0E0"/>
<path d="M63.1237 77.7417L48.4777 76.1425L48.5778 77.5765L63.1237 77.7417Z" fill="#E3E0E0"/>
<path d="M28.6984 72.6214L43.667 84.8258L36.0986 61.801L28.6984 72.6214Z" fill="#EC8D5F"/>
<path d="M57.0085 78.1766L52.2192 67.2824L45.4153 84.5917L57.0085 78.1766Z" fill="#C3DDB6"/>
<path d="M97.0562 52.4399V77.6399H89.6762V52.4399H97.0562ZM106.416 75.8039L107.856 77.6399H96.9482V75.8039H106.416ZM105.228 64.3199V66.1199H96.9482V64.3199H105.228ZM107.136 52.4399V54.2759H96.9482V52.4399H107.136ZM109.332 69.2879L107.964 77.6399H100.188L101.484 75.8039C102.636 75.8039 103.704 75.5519 104.688 75.0479C105.696 74.5199 106.572 73.7759 107.316 72.8159C108.06 71.8319 108.612 70.6559 108.972 69.2879H109.332ZM105.228 66.0479V70.2239H104.868V70.0439C104.868 68.9159 104.496 67.9919 103.752 67.2719C103.032 66.5279 102.108 66.1439 100.98 66.1199V66.0479H105.228ZM105.228 60.2159V64.3919H100.98V64.3199C102.108 64.2959 103.044 63.9119 103.788 63.1679C104.532 62.4239 104.892 61.4879 104.868 60.3599V60.2159H105.228ZM107.136 54.1679V59.2079H106.776V58.9199C106.776 57.4799 106.368 56.3519 105.552 55.5359C104.736 54.6959 103.596 54.2639 102.132 54.2399V54.1679H107.136ZM107.136 51.7919V52.8359L102.744 52.4399C103.272 52.4399 103.824 52.4039 104.4 52.3319C105 52.2599 105.552 52.1759 106.056 52.0799C106.56 51.9839 106.92 51.8879 107.136 51.7919ZM89.7842 75.0119V77.6399H86.9042V77.2799C86.9042 77.2799 86.9762 77.2799 87.1202 77.2799C87.2882 77.2799 87.3722 77.2799 87.3722 77.2799C87.9962 77.2799 88.5242 77.0639 88.9562 76.6319C89.4122 76.1759 89.6522 75.6359 89.6762 75.0119H89.7842ZM89.7842 55.0679H89.6762C89.6522 54.4439 89.4122 53.9159 88.9562 53.4839C88.5242 53.0279 87.9962 52.7999 87.3722 52.7999C87.3722 52.7999 87.2882 52.7999 87.1202 52.7999C86.9762 52.7999 86.9042 52.7999 86.9042 52.7999V52.4399H89.7842V55.0679ZM123.12 78.5039L110.7 52.6559H119.34L126.288 69.2879L123.12 78.5039ZM123.12 78.5039V72.8879L131.976 52.5479H134.892L125.496 73.1399C125.4 73.3559 125.244 73.7039 125.028 74.1839C124.812 74.6399 124.584 75.1439 124.344 75.6959C124.128 76.2479 123.936 76.7759 123.768 77.2799C123.6 77.7839 123.492 78.1919 123.444 78.5039H123.12ZM130.86 55.0679C131.196 54.3479 131.172 53.7959 130.788 53.4119C130.404 53.0039 129.972 52.7999 129.492 52.7999H129.168V52.4399H137.196V52.7999C137.196 52.7999 137.136 52.7999 137.016 52.7999C136.92 52.7999 136.872 52.7999 136.872 52.7999C136.344 52.7999 135.78 52.9799 135.18 53.3399C134.604 53.6759 134.124 54.2519 133.74 55.0679H130.86ZM120.348 55.0679H111.852C111.468 54.2519 110.976 53.6759 110.376 53.3399C109.8 52.9799 109.236 52.7999 108.684 52.7999C108.684 52.7999 108.636 52.7999 108.54 52.7999C108.444 52.7999 108.396 52.7999 108.396 52.7999V52.4399H122.04V52.7999H121.716C121.26 52.7999 120.852 53.0039 120.492 53.4119C120.156 53.7959 120.108 54.3479 120.348 55.0679ZM146.978 52.4399V77.6399H139.598V52.4399H146.978ZM156.338 75.8039L157.778 77.6399H146.87V75.8039H156.338ZM155.15 64.3199V66.1199H146.87V64.3199H155.15ZM157.058 52.4399V54.2759H146.87V52.4399H157.058ZM159.254 69.2879L157.886 77.6399H150.11L151.406 75.8039C152.558 75.8039 153.626 75.5519 154.61 75.0479C155.618 74.5199 156.494 73.7759 157.238 72.8159C157.982 71.8319 158.534 70.6559 158.894 69.2879H159.254ZM155.15 66.0479V70.2239H154.79V70.0439C154.79 68.9159 154.418 67.9919 153.674 67.2719C152.954 66.5279 152.03 66.1439 150.902 66.1199V66.0479H155.15ZM155.15 60.2159V64.3919H150.902V64.3199C152.03 64.2959 152.966 63.9119 153.71 63.1679C154.454 62.4239 154.814 61.4879 154.79 60.3599V60.2159H155.15ZM157.058 54.1679V59.2079H156.698V58.9199C156.698 57.4799 156.29 56.3519 155.474 55.5359C154.658 54.6959 153.518 54.2639 152.054 54.2399V54.1679H157.058ZM157.058 51.7919V52.8359L152.666 52.4399C153.194 52.4399 153.746 52.4039 154.322 52.3319C154.922 52.2599 155.474 52.1759 155.978 52.0799C156.482 51.9839 156.842 51.8879 157.058 51.7919ZM139.706 75.0119V77.6399H136.826V77.2799C136.826 77.2799 136.898 77.2799 137.042 77.2799C137.21 77.2799 137.294 77.2799 137.294 77.2799C137.918 77.2799 138.446 77.0639 138.878 76.6319C139.334 76.1759 139.574 75.6359 139.598 75.0119H139.706ZM139.706 55.0679H139.598C139.574 54.4439 139.334 53.9159 138.878 53.4839C138.446 53.0279 137.918 52.7999 137.294 52.7999C137.294 52.7999 137.21 52.7999 137.042 52.7999C136.898 52.7999 136.826 52.7999 136.826 52.7999V52.4399H139.706V55.0679ZM163.25 51.8999L187.55 73.4999L188.018 78.1439L163.718 56.5799L163.25 51.8999ZM163.466 75.0839V77.6399H160.478V77.2799C160.478 77.2799 160.586 77.2799 160.802 77.2799C161.018 77.2799 161.138 77.2799 161.162 77.2799C161.762 77.2799 162.278 77.0639 162.71 76.6319C163.142 76.1999 163.358 75.6839 163.358 75.0839H163.466ZM170.774 75.0839C170.774 75.6839 170.99 76.1999 171.422 76.6319C171.854 77.0639 172.37 77.2799 172.97 77.2799C172.994 77.2799 173.114 77.2799 173.33 77.2799C173.546 77.2799 173.654 77.2799 173.654 77.2799V77.6399H170.666V75.0839H170.774ZM163.25 51.8999L170.738 59.6759L170.774 77.6399H163.358V56.3999C163.358 54.9839 163.274 53.8799 163.106 53.0879C162.962 52.2959 162.89 51.8999 162.89 51.8999H163.25ZM187.874 52.4399V73.5359C187.874 74.5199 187.91 75.3599 187.982 76.0559C188.078 76.7519 188.162 77.2799 188.234 77.6399C188.306 77.9759 188.342 78.1439 188.342 78.1439H188.018L180.494 69.7919V52.4399H187.874ZM190.754 52.4399V52.7999C190.754 52.7999 190.646 52.7999 190.43 52.7999C190.214 52.7999 190.106 52.7999 190.106 52.7999C189.506 52.7999 188.99 53.0159 188.558 53.4479C188.126 53.8559 187.898 54.3719 187.874 54.9959H187.766V52.4399H190.754ZM177.578 52.4399H180.566V54.9959H180.494C180.47 54.3719 180.242 53.8559 179.81 53.4479C179.402 53.0159 178.886 52.7999 178.262 52.7999C178.262 52.7999 178.154 52.7999 177.938 52.7999C177.722 52.7999 177.602 52.7999 177.578 52.7999V52.4399ZM207.741 52.5479V77.6399H200.361V52.5479H207.741ZM216.273 52.4039V54.2039H191.829V52.4039H216.273ZM216.273 54.0959V59.1719L215.913 59.1359V58.8839C215.913 57.4439 215.505 56.3159 214.689 55.4999C213.873 54.6599 212.733 54.2279 211.269 54.2039V54.0959H216.273ZM216.273 51.7559V52.7999L211.881 52.4039C212.409 52.4039 212.961 52.3679 213.537 52.2959C214.137 52.2239 214.689 52.1399 215.193 52.0439C215.697 51.9479 216.057 51.8519 216.273 51.7559ZM200.469 75.0119V77.6399H197.589V77.2799C197.589 77.2799 197.661 77.2799 197.805 77.2799C197.973 77.2799 198.057 77.2799 198.057 77.2799C198.681 77.2799 199.209 77.0639 199.641 76.6319C200.097 76.1759 200.337 75.6359 200.361 75.0119H200.469ZM207.633 75.0119H207.741C207.765 75.6359 207.993 76.1759 208.425 76.6319C208.881 77.0639 209.421 77.2799 210.045 77.2799C210.045 77.2799 210.117 77.2799 210.261 77.2799C210.429 77.2799 210.513 77.2799 210.513 77.2799V77.6399H207.633V75.0119ZM196.833 54.0959V54.2039C195.369 54.2279 194.229 54.6599 193.413 55.4999C192.597 56.3159 192.189 57.4439 192.189 58.8839V59.1359L191.829 59.1719V54.0959H196.833ZM191.829 51.7559C192.069 51.8519 192.429 51.9479 192.909 52.0439C193.413 52.1399 193.965 52.2239 194.565 52.2959C195.165 52.3679 195.717 52.4039 196.221 52.4039L191.829 52.7999V51.7559ZM231.682 78.5039L219.262 52.6559H227.902L234.85 69.2879L231.682 78.5039ZM231.682 78.5039V72.8879L240.538 52.5479H243.454L234.058 73.1399C233.962 73.3559 233.806 73.7039 233.59 74.1839C233.374 74.6399 233.146 75.1439 232.906 75.6959C232.69 76.2479 232.498 76.7759 232.33 77.2799C232.162 77.7839 232.054 78.1919 232.006 78.5039H231.682ZM239.422 55.0679C239.758 54.3479 239.734 53.7959 239.35 53.4119C238.966 53.0039 238.534 52.7999 238.054 52.7999H237.73V52.4399H245.758V52.7999C245.758 52.7999 245.698 52.7999 245.578 52.7999C245.482 52.7999 245.434 52.7999 245.434 52.7999C244.906 52.7999 244.342 52.9799 243.742 53.3399C243.166 53.6759 242.686 54.2519 242.302 55.0679H239.422ZM228.91 55.0679H220.414C220.03 54.2519 219.538 53.6759 218.938 53.3399C218.362 52.9799 217.798 52.7999 217.246 52.7999C217.246 52.7999 217.198 52.7999 217.102 52.7999C217.006 52.7999 216.958 52.7999 216.958 52.7999V52.4399H230.602V52.7999H230.278C229.822 52.7999 229.414 53.0039 229.054 53.4119C228.718 53.7959 228.67 54.3479 228.91 55.0679ZM255.541 52.4399V77.6399H248.161V52.4399H255.541ZM264.901 75.8039L266.341 77.6399H255.433V75.8039H264.901ZM263.713 64.3199V66.1199H255.433V64.3199H263.713ZM265.621 52.4399V54.2759H255.433V52.4399H265.621ZM267.817 69.2879L266.449 77.6399H258.673L259.969 75.8039C261.121 75.8039 262.189 75.5519 263.173 75.0479C264.181 74.5199 265.057 73.7759 265.801 72.8159C266.545 71.8319 267.097 70.6559 267.457 69.2879H267.817ZM263.713 66.0479V70.2239H263.353V70.0439C263.353 68.9159 262.981 67.9919 262.237 67.2719C261.517 66.5279 260.593 66.1439 259.465 66.1199V66.0479H263.713ZM263.713 60.2159V64.3919H259.465V64.3199C260.593 64.2959 261.529 63.9119 262.273 63.1679C263.017 62.4239 263.377 61.4879 263.353 60.3599V60.2159H263.713ZM265.621 54.1679V59.2079H265.261V58.9199C265.261 57.4799 264.853 56.3519 264.037 55.5359C263.221 54.6959 262.081 54.2639 260.617 54.2399V54.1679H265.621ZM265.621 51.7919V52.8359L261.229 52.4399C261.757 52.4399 262.309 52.4039 262.885 52.3319C263.485 52.2599 264.037 52.1759 264.541 52.0799C265.045 51.9839 265.405 51.8879 265.621 51.7919ZM248.269 75.0119V77.6399H245.389V77.2799C245.389 77.2799 245.461 77.2799 245.605 77.2799C245.773 77.2799 245.857 77.2799 245.857 77.2799C246.481 77.2799 247.009 77.0639 247.441 76.6319C247.897 76.1759 248.137 75.6359 248.161 75.0119H248.269ZM248.269 55.0679H248.161C248.137 54.4439 247.897 53.9159 247.441 53.4839C247.009 53.0279 246.481 52.7999 245.857 52.7999C245.857 52.7999 245.773 52.7999 245.605 52.7999C245.461 52.7999 245.389 52.7999 245.389 52.7999V52.4399H248.269V55.0679ZM284.592 52.5479V77.6399H277.212V52.5479H284.592ZM293.124 52.4039V54.2039H268.68V52.4039H293.124ZM293.124 54.0959V59.1719L292.764 59.1359V58.8839C292.764 57.4439 292.356 56.3159 291.54 55.4999C290.724 54.6599 289.584 54.2279 288.12 54.2039V54.0959H293.124ZM293.124 51.7559V52.7999L288.732 52.4039C289.26 52.4039 289.812 52.3679 290.388 52.2959C290.988 52.2239 291.54 52.1399 292.044 52.0439C292.548 51.9479 292.908 51.8519 293.124 51.7559ZM277.32 75.0119V77.6399H274.44V77.2799C274.44 77.2799 274.512 77.2799 274.656 77.2799C274.824 77.2799 274.908 77.2799 274.908 77.2799C275.532 77.2799 276.06 77.0639 276.492 76.6319C276.948 76.1759 277.188 75.6359 277.212 75.0119H277.32ZM284.484 75.0119H284.592C284.616 75.6359 284.844 76.1759 285.276 76.6319C285.732 77.0639 286.272 77.2799 286.896 77.2799C286.896 77.2799 286.968 77.2799 287.112 77.2799C287.28 77.2799 287.364 77.2799 287.364 77.2799V77.6399H284.484V75.0119ZM273.684 54.0959V54.2039C272.22 54.2279 271.08 54.6599 270.264 55.4999C269.448 56.3159 269.04 57.4439 269.04 58.8839V59.1359L268.68 59.1719V54.0959H273.684ZM268.68 51.7559C268.92 51.8519 269.28 51.9479 269.76 52.0439C270.264 52.1399 270.816 52.2239 271.416 52.2959C272.016 52.3679 272.568 52.4039 273.072 52.4039L268.68 52.7999V51.7559Z" fill="white"/>
</g>
<defs>
<linearGradient id="paint0_linear_51_30" x1="34.5378" y1="46.5821" x2="55.4436" y2="46.8536" gradientUnits="userSpaceOnUse">
<stop offset="0.331817" stop-color="white"/>
<stop offset="1" stop-color="#E3E0E0"/>
</linearGradient>
<clipPath id="clip0_51_30">
<rect width="1440" height="1024" fill="white"/>
</clipPath>
</defs>
</svg>
