<svg width="150" height="54" viewBox="0 0 150 54" fill="none" xmlns="http://www.w3.org/2000/svg">
<path d="M26.7322 16.1075L8.66748 8.91309L9.52732 14.9774L15.5056 17.3583L15.1436 14.2026L26.7752 18.835L26.7322 16.1075Z" fill="#AE8EC0"/>
<path d="M27.7838 24.8128L27.6953 22.1048L9.50061 14.8586L12.9771 37.8883L17.7752 32.8351L16.0547 20.1415L27.7838 24.8128Z" fill="#AE8EC0"/>
<path d="M18.0178 33.8347L17.7107 32.6207L12.9255 37.6414L13.2398 39.31L28.871 39.0982L28.5192 34.0268L18.0178 33.8347Z" fill="#AE8EC0"/>
<path d="M25.9711 23.7892L27.7153 21.9617L27.8555 24.5397L25.9711 23.7892Z" fill="#AE8EC0"/>
<path d="M26.0486 23.9707L27.7801 22.364L27.9655 24.7341L26.0486 23.9707Z" fill="#AE8EC0"/>
<path d="M16.7379 25.0433L27.7399 24.7948L15.9576 20.1024L16.7379 25.0433Z" fill="#AE8EC0"/>
<path d="M28.5255 34.1045L17.8472 32.9386L17.9202 33.984L28.5255 34.1045Z" fill="#AE8EC0"/>
<path d="M3.42546 30.3725L14.3389 39.2706L8.82088 22.4835L3.42546 30.3725Z" fill="#EC8D5F"/>
<path d="M24.0662 34.4151L20.5744 26.4723L15.6137 39.0923L24.0662 34.4151Z" fill="#C3DDB6"/>
<path d="M40.1525 33.9393L33.8482 20.8191H38.2338L41.7605 29.2613L40.1525 33.9393ZM40.1525 33.9393V31.0887L44.6477 20.7643H46.1278L41.3585 31.2166C41.3098 31.3262 41.2306 31.5029 41.121 31.7465C41.0113 31.978 40.8956 32.2338 40.7738 32.514C40.6641 32.7942 40.5667 33.0622 40.4814 33.318C40.3961 33.5738 40.3413 33.7809 40.3169 33.9393H40.1525ZM44.0812 22.0434C44.2518 21.678 44.2396 21.3978 44.0447 21.2029C43.8498 20.9958 43.6305 20.8922 43.3868 20.8922H43.2224V20.7095H47.2973V20.8922C47.2973 20.8922 47.2669 20.8922 47.2059 20.8922C47.1572 20.8922 47.1329 20.8922 47.1329 20.8922C46.8648 20.8922 46.5786 20.9836 46.274 21.1663C45.9816 21.3369 45.738 21.6292 45.5431 22.0434H44.0812ZM38.7454 22.0434H34.433C34.2381 21.6292 33.9883 21.3369 33.6838 21.1663C33.3914 20.9836 33.1051 20.8922 32.8249 20.8922C32.8249 20.8922 32.8006 20.8922 32.7518 20.8922C32.7031 20.8922 32.6787 20.8922 32.6787 20.8922V20.7095H39.6043V20.8922H39.4398C39.2084 20.8922 39.0013 20.9958 38.8185 21.2029C38.648 21.3978 38.6236 21.678 38.7454 22.0434ZM52.2626 20.7095V33.5007H48.5166V20.7095H52.2626ZM57.0137 32.5688L57.7446 33.5007H52.2078V32.5688H57.0137ZM56.4106 26.7396V27.6533H52.2078V26.7396H56.4106ZM57.3791 20.7095V21.6414H52.2078V20.7095H57.3791ZM58.4938 29.2613L57.7994 33.5007H53.8524L54.5102 32.5688C55.095 32.5688 55.6371 32.4409 56.1365 32.1851C56.6482 31.9171 57.0928 31.5394 57.4705 31.0521C57.8481 30.5527 58.1283 29.9557 58.3111 29.2613H58.4938ZM56.4106 27.6168V29.7365H56.2279V29.6451C56.2279 29.0725 56.0391 28.6035 55.6614 28.238C55.296 27.8604 54.827 27.6655 54.2544 27.6533V27.6168H56.4106ZM56.4106 24.6565V26.7762H54.2544V26.7396C54.827 26.7275 55.3021 26.5325 55.6797 26.1549C56.0574 25.7773 56.2401 25.3022 56.2279 24.7296V24.6565H56.4106ZM57.3791 21.5866V24.1448H57.1964V23.9987C57.1964 23.2677 56.9893 22.6952 56.5751 22.281C56.1609 21.8546 55.5823 21.6353 54.8391 21.6231V21.5866H57.3791ZM57.3791 20.3806V20.9105L55.1498 20.7095C55.4178 20.7095 55.698 20.6912 55.9904 20.6547C56.2949 20.6181 56.5751 20.5755 56.8309 20.5268C57.0868 20.478 57.2695 20.4293 57.3791 20.3806ZM48.5714 32.1668V33.5007H47.1096V33.318C47.1096 33.318 47.1461 33.318 47.2192 33.318C47.3045 33.318 47.3471 33.318 47.3471 33.318C47.6639 33.318 47.9319 33.2084 48.1512 32.9891C48.3826 32.7576 48.5044 32.4835 48.5166 32.1668H48.5714ZM48.5714 22.0434H48.5166C48.5044 21.7267 48.3826 21.4587 48.1512 21.2394C47.9319 21.0079 47.6639 20.8922 47.3471 20.8922C47.3471 20.8922 47.3045 20.8922 47.2192 20.8922C47.1461 20.8922 47.1096 20.8922 47.1096 20.8922V20.7095H48.5714V22.0434ZM60.522 20.4354L72.8564 31.3993L73.0939 33.7566L60.7595 22.8109L60.522 20.4354ZM60.6316 32.2033V33.5007H59.1149V33.318C59.1149 33.318 59.1698 33.318 59.2794 33.318C59.389 33.318 59.4499 33.318 59.4621 33.318C59.7667 33.318 60.0286 33.2084 60.2479 32.9891C60.4672 32.7698 60.5768 32.5079 60.5768 32.2033H60.6316ZM64.3411 32.2033C64.3411 32.5079 64.4507 32.7698 64.67 32.9891C64.8893 33.2084 65.1512 33.318 65.4557 33.318C65.4679 33.318 65.5288 33.318 65.6385 33.318C65.7481 33.318 65.8029 33.318 65.8029 33.318V33.5007H64.2863V32.2033H64.3411ZM60.522 20.4354L64.3228 24.3824L64.3411 33.5007H60.5768V22.7195C60.5768 22.0008 60.5342 21.4404 60.4489 21.0384C60.3758 20.6364 60.3392 20.4354 60.3392 20.4354H60.522ZM73.0209 20.7095V31.4176C73.0209 31.9171 73.0391 32.3434 73.0757 32.6967C73.1244 33.05 73.167 33.318 73.2036 33.5007C73.2401 33.6713 73.2584 33.7566 73.2584 33.7566H73.0939L69.2748 29.5172V20.7095H73.0209ZM74.4827 20.7095V20.8922C74.4827 20.8922 74.4279 20.8922 74.3183 20.8922C74.2086 20.8922 74.1538 20.8922 74.1538 20.8922C73.8492 20.8922 73.5873 21.0019 73.368 21.2211C73.1488 21.4282 73.033 21.6901 73.0209 22.0069H72.966V20.7095H74.4827ZM67.7947 20.7095H69.3114V22.0069H69.2748C69.2627 21.6901 69.1469 21.4282 68.9277 21.2211C68.7206 21.0019 68.4586 20.8922 68.1419 20.8922C68.1419 20.8922 68.0871 20.8922 67.9774 20.8922C67.8678 20.8922 67.8069 20.8922 67.7947 20.8922V20.7095ZM83.1051 20.7643V33.5007H79.3591V20.7643H83.1051ZM87.4358 20.6912V21.6049H75.0283V20.6912H87.4358ZM87.4358 21.5501V24.1266L87.2531 24.1083V23.9804C87.2531 23.2495 87.046 22.6769 86.6318 22.2627C86.2176 21.8363 85.639 21.6171 84.8959 21.6049V21.5501H87.4358ZM87.4358 20.3623V20.8922L85.2065 20.6912C85.4745 20.6912 85.7547 20.6729 86.0471 20.6364C86.3516 20.5998 86.6318 20.5572 86.8877 20.5085C87.1435 20.4597 87.3262 20.411 87.4358 20.3623ZM79.4139 32.1668V33.5007H77.9521V33.318C77.9521 33.318 77.9886 33.318 78.0617 33.318C78.147 33.318 78.1896 33.318 78.1896 33.318C78.5063 33.318 78.7743 33.2084 78.9936 32.9891C79.2251 32.7576 79.3469 32.4835 79.3591 32.1668H79.4139ZM83.0503 32.1668H83.1051C83.1173 32.4835 83.233 32.7576 83.4523 32.9891C83.6837 33.2084 83.9578 33.318 84.2746 33.318C84.2746 33.318 84.3111 33.318 84.3842 33.318C84.4695 33.318 84.5121 33.318 84.5121 33.318V33.5007H83.0503V32.1668ZM77.5683 21.5501V21.6049C76.8252 21.6171 76.2466 21.8363 75.8324 22.2627C75.4182 22.6769 75.2111 23.2495 75.2111 23.9804V24.1083L75.0283 24.1266V21.5501H77.5683ZM75.0283 20.3623C75.1502 20.411 75.3329 20.4597 75.5765 20.5085C75.8324 20.5572 76.1125 20.5998 76.4171 20.6364C76.7217 20.6729 77.0018 20.6912 77.2577 20.6912L75.0283 20.8922V20.3623ZM95.2576 33.9393L88.9534 20.8191H93.339L96.8657 29.2613L95.2576 33.9393ZM95.2576 33.9393V31.0887L99.7528 20.7643H101.233L96.4637 31.2166C96.4149 31.3262 96.3358 31.5029 96.2261 31.7465C96.1165 31.978 96.0008 32.2338 95.8789 32.514C95.7693 32.7942 95.6718 33.0622 95.5866 33.318C95.5013 33.5738 95.4465 33.7809 95.4221 33.9393H95.2576ZM99.1864 22.0434C99.3569 21.678 99.3447 21.3978 99.1498 21.2029C98.9549 20.9958 98.7356 20.8922 98.492 20.8922H98.3275V20.7095H102.402V20.8922C102.402 20.8922 102.372 20.8922 102.311 20.8922C102.262 20.8922 102.238 20.8922 102.238 20.8922C101.97 20.8922 101.684 20.9836 101.379 21.1663C101.087 21.3369 100.843 21.6292 100.648 22.0434H99.1864ZM93.8506 22.0434H89.5381C89.3432 21.6292 89.0935 21.3369 88.7889 21.1663C88.4966 20.9836 88.2103 20.8922 87.9301 20.8922C87.9301 20.8922 87.9057 20.8922 87.857 20.8922C87.8083 20.8922 87.7839 20.8922 87.7839 20.8922V20.7095H94.7094V20.8922H94.545C94.3135 20.8922 94.1064 20.9958 93.9237 21.2029C93.7531 21.3978 93.7288 21.678 93.8506 22.0434ZM107.368 20.7095V33.5007H103.622V20.7095H107.368ZM112.119 32.5688L112.85 33.5007H107.313V32.5688H112.119ZM111.516 26.7396V27.6533H107.313V26.7396H111.516ZM112.484 20.7095V21.6414H107.313V20.7095H112.484ZM113.599 29.2613L112.905 33.5007H108.958L109.615 32.5688C110.2 32.5688 110.742 32.4409 111.242 32.1851C111.753 31.9171 112.198 31.5394 112.576 31.0521C112.953 30.5527 113.233 29.9557 113.416 29.2613H113.599ZM111.516 27.6168V29.7365H111.333V29.6451C111.333 29.0725 111.144 28.6035 110.767 28.238C110.401 27.8604 109.932 27.6655 109.36 27.6533V27.6168H111.516ZM111.516 24.6565V26.7762H109.36V26.7396C109.932 26.7275 110.407 26.5325 110.785 26.1549C111.163 25.7773 111.345 25.3022 111.333 24.7296V24.6565H111.516ZM112.484 21.5866V24.1448H112.302V23.9987C112.302 23.2677 112.094 22.6952 111.68 22.281C111.266 21.8546 110.687 21.6353 109.944 21.6231V21.5866H112.484ZM112.484 20.3806V20.9105L110.255 20.7095C110.523 20.7095 110.803 20.6912 111.096 20.6547C111.4 20.6181 111.68 20.5755 111.936 20.5268C112.192 20.478 112.375 20.4293 112.484 20.3806ZM103.677 32.1668V33.5007H102.215V33.318C102.215 33.318 102.251 33.318 102.324 33.318C102.41 33.318 102.452 33.318 102.452 33.318C102.769 33.318 103.037 33.2084 103.256 32.9891C103.488 32.7576 103.61 32.4835 103.622 32.1668H103.677ZM103.677 22.0434H103.622C103.61 21.7267 103.488 21.4587 103.256 21.2394C103.037 21.0079 102.769 20.8922 102.452 20.8922C102.452 20.8922 102.41 20.8922 102.324 20.8922C102.251 20.8922 102.215 20.8922 102.215 20.8922V20.7095H103.677V22.0434ZM122.114 20.7643V33.5007H118.368V20.7643H122.114ZM126.445 20.6912V21.6049H114.037V20.6912H126.445ZM126.445 21.5501V24.1266L126.262 24.1083V23.9804C126.262 23.2495 126.055 22.6769 125.641 22.2627C125.227 21.8363 124.648 21.6171 123.905 21.6049V21.5501H126.445ZM126.445 20.3623V20.8922L124.216 20.6912C124.484 20.6912 124.764 20.6729 125.056 20.6364C125.361 20.5998 125.641 20.5572 125.897 20.5085C126.153 20.4597 126.335 20.411 126.445 20.3623ZM118.423 32.1668V33.5007H116.961V33.318C116.961 33.318 116.998 33.318 117.071 33.318C117.156 33.318 117.199 33.318 117.199 33.318C117.515 33.318 117.783 33.2084 118.003 32.9891C118.234 32.7576 118.356 32.4835 118.368 32.1668H118.423ZM122.059 32.1668H122.114C122.126 32.4835 122.242 32.7576 122.461 32.9891C122.693 33.2084 122.967 33.318 123.284 33.318C123.284 33.318 123.32 33.318 123.393 33.318C123.479 33.318 123.521 33.318 123.521 33.318V33.5007H122.059V32.1668ZM116.577 21.5501V21.6049C115.834 21.6171 115.256 21.8363 114.841 22.2627C114.427 22.6769 114.22 23.2495 114.22 23.9804V24.1083L114.037 24.1266V21.5501H116.577ZM114.037 20.3623C114.159 20.411 114.342 20.4597 114.586 20.5085C114.841 20.5572 115.122 20.5998 115.426 20.6364C115.731 20.6729 116.011 20.6912 116.267 20.6912L114.037 20.8922V20.3623Z" fill="#AE8EC0"/>
</svg>
