<svg width="28" height="28" viewBox="0 0 44 40" fill="none" xmlns="http://www.w3.org/2000/svg">
<path d="M24.5312 24.6875V27.0312C24.5312 27.6529 24.2761 28.249 23.8219 28.6885C23.3677 29.1281 22.7517 29.375 22.1094 29.375H12.4219C11.7796 29.375 11.1635 29.1281 10.7094 28.6885C10.2552 28.249 10 27.6529 10 27.0312V12.9688C10 12.3471 10.2552 11.751 10.7094 11.3115C11.1635 10.8719 11.7796 10.625 12.4219 10.625H21.625C22.9625 10.625 24.5312 11.6744 24.5312 12.9688V15.3125M28.4062 24.6875L33.25 20L28.4062 15.3125M16.7812 20H32.2812" stroke="black" stroke-width="1.9375" stroke-linecap="round" stroke-linejoin="round"/>
</svg>
