<svg width="105" height="104" viewBox="0 0 105 104" fill="none" xmlns="http://www.w3.org/2000/svg">
<rect x="10" y="10" width="85" height="84" rx="20" fill="#AE8EC0"/>
<path fill-rule="evenodd" clip-rule="evenodd" d="M42.4121 36.3479C43.0239 33.6187 45.696 31.6875 48.7554 31.6875H56.2446C59.3039 31.6875 61.9737 33.6187 62.5879 36.3479C62.6556 36.6484 62.8325 36.9195 63.0903 37.1175C63.348 37.3156 63.6715 37.429 64.0087 37.4396H64.0844C67.2996 37.5687 69.77 37.9271 71.8325 39.1583C73.1319 39.9333 74.2502 40.9292 75.121 42.0937C76.205 43.5396 76.6816 45.2021 76.9108 47.2104C77.1354 49.175 77.1354 51.6354 77.1354 54.7521V54.9292C77.1354 58.0458 77.1354 60.5083 76.9108 62.4708C76.6816 64.4792 76.205 66.1417 75.121 67.5896C74.2475 68.7548 73.13 69.7523 71.8325 70.525C70.2214 71.4854 68.3721 71.9104 66.1308 72.1125C63.9354 72.3125 61.1831 72.3125 57.686 72.3125H47.3139C43.8169 72.3125 41.0646 72.3125 38.8691 72.1125C36.6279 71.9104 34.7785 71.4875 33.1675 70.525C31.8697 69.7517 30.7523 68.7535 29.8789 67.5875C28.795 66.1417 28.3183 64.4792 28.0891 62.4708C27.8646 60.5083 27.8646 58.0458 27.8646 54.9292V54.7521C27.8646 51.6354 27.8646 49.175 28.0891 47.2104C28.3183 45.2021 28.795 43.5396 29.8789 42.0937C30.7523 40.9277 31.8697 39.9296 33.1675 39.1562C35.23 37.9271 37.7004 37.5687 40.9156 37.4417L40.9546 37.4396H40.9912C41.3285 37.429 41.652 37.3156 41.9097 37.1175C42.1674 36.9195 42.3444 36.6484 42.4121 36.3479ZM48.7554 34.8125C47.2887 34.8125 46.0581 35.7354 45.7808 36.9708C45.3339 38.9708 43.3814 40.5458 41.0325 40.5646C37.9433 40.6896 36.2887 41.0333 35.0512 41.7708C34.132 42.3192 33.3401 43.0263 32.7206 43.8521C32.0881 44.6958 31.7077 45.7771 31.506 47.5333C31.3044 49.3167 31.3021 51.6167 31.3021 54.8417C31.3021 58.0667 31.3021 60.3646 31.5083 62.1479C31.7077 63.9042 32.0881 64.9854 32.7229 65.8312C33.3371 66.6521 34.1277 67.3604 35.0535 67.9125C36.0091 68.4813 37.2329 68.825 39.2106 69.0042C41.2135 69.1854 43.7939 69.1875 47.4079 69.1875H57.5921C61.2037 69.1875 63.7841 69.1875 65.7894 69.0042C67.7671 68.825 68.9908 68.4833 69.9464 67.9125C70.8723 67.3604 71.6652 66.6521 72.2794 65.8292C72.9119 64.9854 73.2923 63.9042 73.4939 62.1479C73.6956 60.3646 73.6979 58.0646 73.6979 54.8417C73.6979 51.6167 73.6979 49.3167 73.4916 47.5333C73.2923 45.7771 72.9118 44.6958 72.2771 43.8521C71.6582 43.0252 70.8663 42.3173 69.9464 41.7688C68.7135 41.0333 67.0589 40.6896 63.9652 40.5646C61.6185 40.5437 59.666 38.9729 59.2191 36.9708C59.0725 36.3547 58.6964 35.8035 58.1545 35.4103C57.6125 35.0171 56.9379 34.8059 56.2446 34.8125H48.7554ZM52.5 49.3958C51.1325 49.3958 49.8209 49.8897 48.854 50.7688C47.887 51.6478 47.3437 52.8401 47.3437 54.0833C47.3437 55.3265 47.887 56.5188 48.854 57.3979C49.8209 58.277 51.1325 58.7708 52.5 58.7708C53.8675 58.7708 55.179 58.277 56.146 57.3979C57.113 56.5188 57.6562 55.3265 57.6562 54.0833C57.6562 52.8401 57.113 51.6478 56.146 50.7688C55.179 49.8897 53.8675 49.3958 52.5 49.3958ZM43.9062 54.0833C43.9062 52.0113 44.8116 50.0242 46.4233 48.5591C48.0349 47.0939 50.2208 46.2708 52.5 46.2708C54.7792 46.2708 56.965 47.0939 58.5767 48.5591C60.1883 50.0242 61.0937 52.0113 61.0937 54.0833C61.0937 56.1553 60.1883 58.1425 58.5767 59.6076C56.965 61.0727 54.7792 61.8958 52.5 61.8958C50.2208 61.8958 48.0349 61.0727 46.4233 59.6076C44.8116 58.1425 43.9062 56.1553 43.9062 54.0833ZM64.5312 47.8333C64.5312 47.4189 64.7123 47.0215 65.0346 46.7285C65.357 46.4355 65.7941 46.2708 66.25 46.2708H68.5416C68.9975 46.2708 69.4347 46.4355 69.757 46.7285C70.0793 47.0215 70.2604 47.4189 70.2604 47.8333C70.2604 48.2477 70.0793 48.6452 69.757 48.9382C69.4347 49.2312 68.9975 49.3958 68.5416 49.3958H66.25C65.7941 49.3958 65.357 49.2312 65.0346 48.9382C64.7123 48.6452 64.5312 48.2477 64.5312 47.8333Z" fill="black"/>
</svg>
