<svg width="154" height="154" viewBox="0 0 184 184" fill="none" xmlns="http://www.w3.org/2000/svg">
<path d="M74.7514 82.3097C75.5866 82.3154 76.3991 82.4632 77.1889 82.7529C77.9844 83.037 78.7003 83.5029 79.3366 84.1507C79.973 84.7927 80.4787 85.6535 80.8537 86.733C81.2287 87.8126 81.4162 89.1478 81.4162 90.7387C81.4219 92.2387 81.2628 93.5796 80.9389 94.7615C80.6207 95.9376 80.1634 96.9319 79.5668 97.7444C78.9702 98.5569 78.2514 99.1762 77.4105 99.6024C76.5696 100.028 75.6236 100.242 74.5724 100.242C73.4702 100.242 72.4929 100.026 71.6406 99.5938C70.794 99.162 70.1094 98.5711 69.5866 97.8211C69.0639 97.0711 68.7429 96.2132 68.6236 95.2472H71.7344C71.8935 95.9404 72.2173 96.4916 72.706 96.9007C73.2003 97.3041 73.8224 97.5058 74.5724 97.5058C75.7827 97.5058 76.7145 96.9802 77.3679 95.9291C78.0213 94.8779 78.348 93.4177 78.348 91.5484H78.2287C77.9503 92.0484 77.5895 92.4802 77.1463 92.8438C76.7031 93.2018 76.2003 93.4774 75.6378 93.6705C75.081 93.8637 74.4901 93.9603 73.8651 93.9603C72.8423 93.9603 71.9219 93.716 71.1037 93.2274C70.2912 92.7387 69.6463 92.0683 69.169 91.216C68.6974 90.3637 68.4588 89.3893 68.4531 88.2927C68.4531 87.1563 68.7145 86.1365 69.2372 85.233C69.7656 84.324 70.5014 83.608 71.4446 83.0853C72.3878 82.5569 73.4901 82.2984 74.7514 82.3097ZM74.7599 84.8666C74.1463 84.8666 73.5923 85.0171 73.098 85.3183C72.6094 85.6137 72.223 86.0171 71.9389 86.5285C71.6605 87.0342 71.5213 87.5995 71.5213 88.2245C71.527 88.8438 71.6662 89.4063 71.9389 89.912C72.2173 90.4177 72.5952 90.8183 73.0724 91.1137C73.5554 91.4092 74.1065 91.5569 74.7259 91.5569C75.1861 91.5569 75.6151 91.4688 76.0128 91.2927C76.4105 91.1166 76.7571 90.8722 77.0526 90.5597C77.3537 90.2416 77.5866 89.8808 77.7514 89.4774C77.9219 89.074 78.0043 88.6478 77.9986 88.199C77.9986 87.6024 77.8565 87.0512 77.5724 86.5455C77.294 86.0399 76.9105 85.6336 76.4219 85.3268C75.9389 85.02 75.3849 84.8666 74.7599 84.8666ZM84.2543 100.003V97.7188L90.3139 91.7785C90.8935 91.1933 91.3764 90.6734 91.7628 90.2188C92.1491 89.7643 92.4389 89.324 92.6321 88.8978C92.8253 88.4717 92.9219 88.0171 92.9219 87.5342C92.9219 86.983 92.7969 86.5115 92.5469 86.1194C92.2969 85.7217 91.9531 85.4149 91.5156 85.199C91.0781 84.983 90.581 84.8751 90.0241 84.8751C89.4503 84.8751 88.9474 84.9944 88.5156 85.233C88.0838 85.466 87.7486 85.7984 87.5099 86.2302C87.277 86.662 87.1605 87.1762 87.1605 87.7728H84.152C84.152 86.6649 84.4048 85.7018 84.9105 84.8836C85.4162 84.0654 86.1122 83.4319 86.9986 82.983C87.8906 82.5342 88.9134 82.3097 90.0668 82.3097C91.2372 82.3097 92.2656 82.5285 93.152 82.966C94.0384 83.4035 94.7259 84.0029 95.2145 84.7643C95.7088 85.5257 95.956 86.395 95.956 87.3722C95.956 88.0257 95.831 88.6677 95.581 89.2984C95.331 89.9291 94.8906 90.6279 94.2599 91.395C93.6349 92.162 92.7571 93.091 91.6264 94.1819L88.6179 97.2416V97.3609H96.2202V100.003H84.2543ZM108.493 96.7302V95.8097C108.493 95.1336 108.635 94.5115 108.919 93.9433C109.209 93.3751 109.629 92.9177 110.18 92.5711C110.732 92.2245 111.399 92.0512 112.183 92.0512C112.99 92.0512 113.666 92.2245 114.212 92.5711C114.757 92.912 115.169 93.3666 115.447 93.9347C115.732 94.5029 115.874 95.1279 115.874 95.8097V96.7302C115.874 97.4063 115.732 98.0285 115.447 98.5967C115.163 99.1649 114.746 99.6222 114.195 99.9688C113.649 100.315 112.979 100.489 112.183 100.489C111.388 100.489 110.714 100.315 110.163 99.9688C109.612 99.6222 109.195 99.1649 108.911 98.5967C108.632 98.0285 108.493 97.4063 108.493 96.7302ZM110.717 95.8097V96.7302C110.717 97.1791 110.825 97.591 111.041 97.966C111.257 98.341 111.638 98.5285 112.183 98.5285C112.734 98.5285 113.112 98.3438 113.317 97.9745C113.527 97.5995 113.632 97.1847 113.632 96.7302V95.8097C113.632 95.3552 113.533 94.9404 113.334 94.5654C113.135 94.1847 112.751 93.9944 112.183 93.9944C111.649 93.9944 111.271 94.1847 111.05 94.5654C110.828 94.9404 110.717 95.3552 110.717 95.8097ZM99.6207 86.7416V85.8211C99.6207 85.1393 99.7656 84.5143 100.055 83.9461C100.345 83.3779 100.766 82.9234 101.317 82.5825C101.868 82.2359 102.536 82.0626 103.32 82.0626C104.121 82.0626 104.794 82.2359 105.339 82.5825C105.891 82.9234 106.305 83.3779 106.584 83.9461C106.862 84.5143 107.001 85.1393 107.001 85.8211V86.7416C107.001 87.4234 106.859 88.0484 106.575 88.6166C106.297 89.1791 105.882 89.6308 105.331 89.9717C104.78 90.3126 104.109 90.483 103.32 90.483C102.518 90.483 101.842 90.3126 101.291 89.9717C100.746 89.6308 100.331 89.1762 100.047 88.608C99.7628 88.0399 99.6207 87.4177 99.6207 86.7416ZM101.862 85.8211V86.7416C101.862 87.1961 101.967 87.6109 102.178 87.9859C102.393 88.3552 102.774 88.5399 103.32 88.5399C103.865 88.5399 104.24 88.3552 104.445 87.9859C104.655 87.6109 104.76 87.1961 104.76 86.7416V85.8211C104.76 85.3666 104.661 84.9518 104.462 84.5768C104.263 84.1961 103.882 84.0058 103.32 84.0058C102.78 84.0058 102.402 84.1961 102.186 84.5768C101.97 84.9575 101.862 85.3722 101.862 85.8211ZM100.592 100.003L112.592 82.5484H114.723L102.723 100.003H100.592Z" fill="#292929"/>
<path d="M114.656 22.9055C129.195 27.7427 141.829 37.0584 150.748 49.5173C159.667 61.9763 164.412 76.939 164.305 92.2609L147.364 92.1418C147.447 80.3973 143.809 68.9282 136.973 59.3782C130.137 49.8282 120.452 42.6876 109.308 38.9798L114.656 22.9055Z" fill="#C3DDB6"/>
<path d="M19.1957 91.4037C19.251 79.9538 22.0154 68.6795 27.2628 58.5027C32.5102 48.3258 40.0916 39.5354 49.3873 32.85C58.683 26.1647 69.4289 21.7742 80.7465 20.0377C92.0641 18.3011 103.632 19.2677 114.504 22.8585L109.192 38.9446C100.858 36.1922 91.9909 35.4512 83.3158 36.7823C74.6407 38.1134 66.4037 41.4788 59.2785 46.6032C52.1532 51.7276 46.3419 58.4657 42.3197 66.2664C38.2975 74.0671 36.1785 82.709 36.1361 91.4855L19.1957 91.4037Z" fill="#EC8D5F"/>
<path d="M164.502 92.0029C164.502 101.524 162.627 110.951 158.983 119.747C155.34 128.544 149.999 136.536 143.267 143.268C136.535 150 128.543 155.341 119.746 158.984C110.95 162.628 101.523 164.503 92.002 164.503C82.4811 164.503 73.0535 162.628 64.2574 158.984C55.4613 155.341 47.469 150 40.7367 143.268C34.0045 136.536 28.6642 128.544 25.0207 119.747C21.3772 110.951 19.502 101.524 19.502 92.0029H36.4296C36.4296 99.3008 37.867 106.527 40.6598 113.27C43.4526 120.012 47.546 126.138 52.7064 131.299C57.8667 136.459 63.993 140.552 70.7353 143.345C77.4777 146.138 84.7041 147.575 92.002 147.575C99.2998 147.575 106.526 146.138 113.269 143.345C120.011 140.552 126.137 136.459 131.298 131.299C136.458 126.138 140.551 120.012 143.344 113.27C146.137 106.527 147.574 99.3008 147.574 92.0029H164.502Z" fill="#AE8EC0"/>
</svg>
