<svg width="16" height="16" viewBox="0 0 28 28" fill="none" xmlns="http://www.w3.org/2000/svg">
<path d="M23.3333 12.6667C23.3333 14.7763 22.7077 16.8386 21.5357 18.5927C20.3636 20.3469 18.6977 21.714 16.7486 22.5214C14.7995 23.3287 12.6548 23.5399 10.5857 23.1284C8.51658 22.7168 6.61596 21.7009 5.1242 20.2091C3.63244 18.7174 2.61654 16.8168 2.20496 14.7476C1.79339 12.6785 2.00462 10.5338 2.81196 8.58471C3.61929 6.63563 4.98646 4.96973 6.74059 3.79766C8.49471 2.62559 10.557 2 12.6667 2C15.4956 2 18.2088 3.12381 20.2091 5.12419C22.2095 7.12458 23.3333 9.83769 23.3333 12.6667Z" stroke="#B1AFC8" stroke-width="2.54867" stroke-linecap="round" stroke-linejoin="round"/>
<path d="M25.9999 26.0002L20.2 20.2002" stroke="#B1AFC8" stroke-width="2.54867" stroke-linecap="round" stroke-linejoin="round"/>
</svg>
