<svg width="28" height="28" viewBox="0 0 43 46" fill="none" xmlns="http://www.w3.org/2000/svg">
<path d="M10.0344 19.2911C10.5581 17.6743 11.4179 16.1866 12.5573 14.9256C12.6516 14.8215 12.7746 14.7477 12.9109 14.7136C13.0472 14.6795 13.1905 14.6867 13.3227 14.7343L16.0412 15.7066C16.2347 15.7757 16.441 15.8019 16.6456 15.7834C16.8503 15.7649 17.0485 15.702 17.2264 15.5993C17.4044 15.4966 17.5579 15.3564 17.6763 15.1884C17.7947 15.0204 17.8752 14.8287 17.9121 14.6266L18.4309 11.7834C18.4559 11.6449 18.5216 11.5171 18.6195 11.4162C18.7175 11.3152 18.8432 11.2457 18.9808 11.2164C20.6411 10.8615 22.3578 10.8615 24.0181 11.2164C24.1557 11.2457 24.2814 11.3152 24.3794 11.4162C24.4773 11.5171 24.543 11.6449 24.568 11.7834L25.0868 14.6266C25.1237 14.8287 25.2042 15.0204 25.3226 15.1884C25.441 15.3564 25.5945 15.4966 25.7724 15.5993C25.9504 15.702 26.1486 15.7649 26.3533 15.7834C26.5579 15.8019 26.7642 15.7757 26.9577 15.7066L29.6776 14.7343C29.8099 14.6869 29.9533 14.6799 30.0896 14.7143C30.2259 14.7486 30.3489 14.8227 30.443 14.9271C31.5823 16.1876 32.4421 17.6748 32.9659 19.2911C33.0089 19.4248 33.0113 19.5682 32.9727 19.7032C32.9341 19.8382 32.8562 19.9587 32.749 20.0494L30.545 21.9203C30.3885 22.0534 30.2627 22.2189 30.1764 22.4054C30.0902 22.5919 30.0455 22.7949 30.0455 23.0003C30.0455 23.2058 30.0902 23.4088 30.1764 23.5953C30.2627 23.7818 30.3885 23.9473 30.545 24.0804L32.749 25.9513C32.856 26.0421 32.9336 26.1627 32.9719 26.2977C33.0103 26.4327 33.0077 26.576 32.9645 26.7096C32.4408 28.3264 31.581 29.8141 30.4416 31.075C30.3473 31.1792 30.2242 31.253 30.088 31.2871C29.9517 31.3211 29.8084 31.3139 29.6762 31.2664L26.9577 30.2941C26.7642 30.225 26.5579 30.1988 26.3533 30.2173C26.1486 30.2358 25.9504 30.2986 25.7724 30.4014C25.5945 30.5041 25.441 30.6443 25.3226 30.8123C25.2042 30.9802 25.1237 31.1719 25.0868 31.3741L24.568 34.2187C24.5427 34.3569 24.4769 34.4844 24.379 34.5851C24.2811 34.6858 24.1555 34.7551 24.0181 34.7843C22.3578 35.1392 20.6411 35.1392 18.9808 34.7843C18.8432 34.755 18.7175 34.6855 18.6195 34.5845C18.5216 34.4835 18.4559 34.3557 18.4309 34.2173L17.9121 31.3741C17.8752 31.1719 17.7947 30.9802 17.6763 30.8123C17.5579 30.6443 17.4044 30.5041 17.2264 30.4014C17.0485 30.2986 16.8503 30.2358 16.6456 30.2173C16.441 30.1988 16.2347 30.225 16.0412 30.2941L13.3227 31.2664C13.1904 31.3138 13.047 31.3207 12.9107 31.2864C12.7744 31.2521 12.6514 31.178 12.5573 31.0736C11.418 29.8131 10.5582 28.3259 10.0344 26.7096C9.99122 26.576 9.98863 26.4327 10.027 26.2977C10.0653 26.1627 10.1429 26.0421 10.2499 25.9513L12.4539 24.0804C12.6104 23.9473 12.7362 23.7818 12.8224 23.5953C12.9087 23.4088 12.9534 23.2058 12.9534 23.0003C12.9534 22.7949 12.9087 22.5919 12.8224 22.4054C12.7362 22.2189 12.6104 22.0534 12.4539 21.9203L10.2499 20.0494C10.1429 19.9585 10.0653 19.838 10.027 19.703C9.98863 19.568 9.99122 19.4246 10.0344 19.2911ZM11.5368 19.2826L13.3709 20.8389C13.6845 21.105 13.9365 21.4361 14.1093 21.8094C14.2821 22.1826 14.3716 22.589 14.3716 23.0003C14.3716 23.4116 14.2821 23.818 14.1093 24.1913C13.9365 24.5645 13.6845 24.8957 13.3709 25.1618L11.5382 26.7181C11.9521 27.8264 12.5488 28.8583 13.3014 29.7682L15.5635 28.9603C15.71 28.9084 15.8588 28.8682 16.01 28.8399C16.7496 28.7051 17.5124 28.8697 18.1307 29.2974C18.7489 29.7251 19.172 30.3808 19.3068 31.1204L19.7377 33.486C20.9042 33.6794 22.0947 33.6794 23.2612 33.486L23.6921 31.119C23.7655 30.7143 23.9262 30.3304 24.1629 29.9941C24.3997 29.6578 24.7069 29.377 25.0631 29.1715C25.4194 28.9659 25.8161 28.8404 26.2258 28.8037C26.6355 28.767 27.0482 28.8199 27.4353 28.9589L29.6975 29.7682C30.4512 28.8568 31.0476 27.8259 31.4621 26.7181L29.628 25.1618C29.3139 24.896 29.0616 24.5649 28.8885 24.1916C28.7154 23.8183 28.6258 23.4118 28.6258 23.0003C28.6258 22.5889 28.7154 22.1824 28.8885 21.8091C29.0616 21.4358 29.3139 21.1047 29.628 20.8389L31.4621 19.2826C31.0476 18.1748 30.4512 17.1439 29.6975 16.2324L27.4353 17.0403C27.0483 17.1786 26.6358 17.2309 26.2265 17.1939C25.8172 17.1568 25.4208 17.0312 25.0648 16.8257C24.7089 16.6203 24.4019 16.3398 24.1651 16.0039C23.9283 15.668 23.7674 15.2846 23.6935 14.8803L23.2612 12.5147C22.0947 12.3213 20.9042 12.3213 19.7377 12.5147L19.3068 14.8803C19.2331 15.2847 19.0723 15.6683 18.8356 16.0044C18.5989 16.3405 18.2919 16.621 17.9359 16.8267C17.5799 17.0323 17.1835 17.158 16.7741 17.1952C16.3647 17.2323 15.9521 17.18 15.565 17.0418L13.3014 16.2324C12.5481 17.144 11.9508 18.1749 11.5368 19.2826ZM17.9589 23.0003C17.9589 22.0606 18.3322 21.1593 18.9967 20.4948C19.6612 19.8303 20.5625 19.4569 21.5023 19.4569C22.442 19.4569 23.3433 19.8303 24.0078 20.4948C24.6724 21.1593 25.0457 22.0606 25.0457 23.0003C25.0457 23.9401 24.6724 24.8414 24.0078 25.5059C23.3433 26.1704 22.442 26.5437 21.5023 26.5437C20.5625 26.5437 19.6612 26.1704 18.9967 25.5059C18.3322 24.8414 17.9589 23.9401 17.9589 23.0003ZM19.3762 23.0003C19.3762 23.5642 19.6002 24.105 19.9989 24.5037C20.3977 24.9024 20.9384 25.1264 21.5023 25.1264C22.0661 25.1264 22.6069 24.9024 23.0056 24.5037C23.4043 24.105 23.6283 23.5642 23.6283 23.0003C23.6283 22.4365 23.4043 21.8957 23.0056 21.497C22.6069 21.0983 22.0661 20.8743 21.5023 20.8743C20.9384 20.8743 20.3977 21.0983 19.9989 21.497C19.6002 21.8957 19.3762 22.4365 19.3762 23.0003Z" fill="black"/>
</svg>
