<svg width="522" height="312" viewBox="0 0 522 312" fill="none" xmlns="http://www.w3.org/2000/svg">
<path d="M37.716 91.984C33.8347 91.984 30.2267 91.2733 26.892 89.852C23.612 88.4307 20.7693 86.4627 18.364 83.948C16.0133 81.3787 14.2913 78.3993 13.198 75.01L22.464 70.992C23.94 74.4907 26.072 77.2513 28.86 79.274C31.648 81.242 34.7913 82.226 38.29 82.226C40.258 82.226 41.9527 81.9253 43.374 81.324C44.85 80.668 45.9707 79.7933 46.736 78.7C47.556 77.6067 47.966 76.2947 47.966 74.764C47.966 72.96 47.4193 71.484 46.326 70.336C45.2873 69.1333 43.702 68.204 41.57 67.548L29.844 63.776C25.088 62.3 21.5073 60.086 19.102 57.134C16.6967 54.182 15.494 50.7107 15.494 46.72C15.494 43.2213 16.3413 40.1327 18.036 37.454C19.7853 34.7753 22.1907 32.698 25.252 31.222C28.368 29.6913 31.9213 28.926 35.912 28.926C39.5747 28.926 42.9367 29.582 45.998 30.894C49.0593 32.1513 51.6833 33.928 53.87 36.224C56.1113 38.4653 57.7787 41.1167 58.872 44.178L49.688 48.278C48.4853 45.2167 46.6813 42.866 44.276 41.226C41.8707 39.5313 39.0827 38.684 35.912 38.684C34.0533 38.684 32.4133 39.012 30.992 39.668C29.5707 40.2693 28.45 41.144 27.63 42.292C26.8647 43.3853 26.482 44.6973 26.482 46.228C26.482 47.9227 27.0287 49.426 28.122 50.738C29.2153 51.9953 30.8827 52.9793 33.124 53.69L44.358 57.216C49.2233 58.8013 52.8587 60.988 55.264 63.776C57.724 66.564 58.954 70.008 58.954 74.108C58.954 77.6067 58.052 80.6953 56.248 83.374C54.444 86.0527 51.9567 88.1573 48.786 89.688C45.6153 91.2187 41.9253 91.984 37.716 91.984ZM68.0938 91V28.926H78.8358V55.166L77.3598 53.608C78.3985 50.9293 80.0931 48.9067 82.4438 47.54C84.8491 46.1187 87.6371 45.408 90.8078 45.408C94.0878 45.408 96.9851 46.1187 99.4998 47.54C102.069 48.9613 104.064 50.9567 105.486 53.526C106.907 56.0407 107.618 58.9653 107.618 62.3V91H96.8758V64.842C96.8758 62.874 96.4931 61.1793 95.7278 59.758C94.9625 58.3367 93.8965 57.2433 92.5298 56.478C91.2178 55.658 89.6598 55.248 87.8558 55.248C86.1065 55.248 84.5485 55.658 83.1818 56.478C81.8151 57.2433 80.7491 58.3367 79.9838 59.758C79.2185 61.1793 78.8358 62.874 78.8358 64.842V91H68.0938ZM132.609 91.984C129.165 91.984 126.159 91.2187 123.589 89.688C121.075 88.1573 119.134 86.0253 117.767 83.292C116.455 80.5587 115.799 77.3607 115.799 73.698V46.392H126.541V72.796C126.541 74.6547 126.897 76.2947 127.607 77.716C128.373 79.0827 129.439 80.176 130.805 80.996C132.227 81.7613 133.812 82.144 135.561 82.144C137.311 82.144 138.869 81.7613 140.235 80.996C141.602 80.176 142.668 79.0553 143.433 77.634C144.199 76.2127 144.581 74.518 144.581 72.55V46.392H155.323V91H145.155V82.226L146.057 83.784C145.019 86.5173 143.297 88.5673 140.891 89.934C138.541 91.3007 135.78 91.984 132.609 91.984ZM170.475 91V55.986H162.603V46.392H170.475V44.916C170.475 41.5267 171.158 38.6567 172.525 36.306C173.946 33.9007 175.914 32.0693 178.429 30.812C180.943 29.5547 183.923 28.926 187.367 28.926C188.023 28.926 188.733 28.9807 189.499 29.09C190.319 29.1447 191.002 29.2267 191.549 29.336V38.602C191.002 38.4927 190.483 38.438 189.991 38.438C189.553 38.3833 189.143 38.356 188.761 38.356C186.355 38.356 184.497 38.9027 183.185 39.996C181.873 41.0347 181.217 42.6747 181.217 44.916V46.392H200.733V55.986H181.217V91H170.475ZM230.991 91V28.926H241.733V91H230.991ZM202.947 91V55.986H195.075V46.392H202.947V44.916C202.947 41.5267 203.63 38.6567 204.997 36.306C206.363 33.9007 208.304 32.0693 210.819 30.812C213.388 29.5547 216.395 28.926 219.839 28.926C220.495 28.926 221.205 28.9807 221.971 29.09C222.791 29.1447 223.447 29.2267 223.939 29.336V38.602C223.447 38.4927 222.955 38.438 222.463 38.438C222.025 38.3833 221.615 38.356 221.233 38.356C218.827 38.356 216.969 38.9027 215.657 39.996C214.345 41.0347 213.689 42.6747 213.689 44.916V46.392H233.205V55.986H213.689V91H202.947ZM272.869 91.984C268.277 91.984 264.259 90.9453 260.815 88.868C257.371 86.7907 254.692 83.9753 252.779 80.422C250.866 76.8687 249.909 72.9327 249.909 68.614C249.909 64.1313 250.866 60.168 252.779 56.724C254.747 53.2253 257.398 50.4647 260.733 48.442C264.122 46.4193 267.894 45.408 272.049 45.408C275.548 45.408 278.609 45.982 281.233 47.13C283.912 48.278 286.18 49.8633 288.039 51.886C289.898 53.9087 291.319 56.232 292.303 58.856C293.287 61.4253 293.779 64.2133 293.779 67.22C293.779 67.9853 293.724 68.778 293.615 69.598C293.56 70.418 293.424 71.1287 293.205 71.73H258.765V63.53H287.137L282.053 67.384C282.545 64.8693 282.408 62.628 281.643 60.66C280.932 58.692 279.73 57.134 278.035 55.986C276.395 54.838 274.4 54.264 272.049 54.264C269.808 54.264 267.812 54.838 266.063 55.986C264.314 57.0793 262.974 58.7193 262.045 60.906C261.17 63.038 260.842 65.6347 261.061 68.696C260.842 71.4293 261.198 73.862 262.127 75.994C263.111 78.0713 264.532 79.684 266.391 80.832C268.304 81.98 270.491 82.554 272.951 82.554C275.411 82.554 277.488 82.0347 279.183 80.996C280.932 79.9573 282.299 78.5633 283.283 76.814L291.975 81.078C291.1 83.21 289.734 85.096 287.875 86.736C286.016 88.376 283.802 89.6607 281.233 90.59C278.718 91.5193 275.93 91.984 272.869 91.984ZM321.908 109.122C320.705 109.122 319.53 109.013 318.382 108.794C317.234 108.63 316.195 108.329 315.266 107.892V98.872C315.977 99.036 316.824 99.2 317.808 99.364C318.847 99.528 319.803 99.61 320.678 99.61C323.138 99.61 324.915 99.036 326.008 97.888C327.156 96.74 328.167 95.2367 329.042 93.378L331.994 86.49L331.83 95.51L312.396 46.392H323.958L337.57 82.636H333.47L347 46.392H358.644L339.21 95.51C338.062 98.4073 336.668 100.867 335.028 102.89C333.388 104.913 331.475 106.443 329.288 107.482C327.156 108.575 324.696 109.122 321.908 109.122ZM385.554 91.984C381.181 91.984 377.19 90.9727 373.582 88.95C370.029 86.9273 367.186 84.1667 365.054 80.668C362.977 77.1693 361.938 73.1787 361.938 68.696C361.938 64.2133 362.977 60.2227 365.054 56.724C367.186 53.2253 370.029 50.4647 373.582 48.442C377.136 46.4193 381.126 45.408 385.554 45.408C389.928 45.408 393.891 46.4193 397.444 48.442C400.998 50.4647 403.813 53.2253 405.89 56.724C408.022 60.168 409.088 64.1587 409.088 68.696C409.088 73.1787 408.022 77.1693 405.89 80.668C403.758 84.1667 400.916 86.9273 397.362 88.95C393.809 90.9727 389.873 91.984 385.554 91.984ZM385.554 82.144C387.96 82.144 390.064 81.57 391.868 80.422C393.727 79.274 395.176 77.6887 396.214 75.666C397.308 73.5887 397.854 71.2653 397.854 68.696C397.854 66.072 397.308 63.776 396.214 61.808C395.176 59.7853 393.727 58.2 391.868 57.052C390.064 55.8493 387.96 55.248 385.554 55.248C383.094 55.248 380.935 55.8493 379.076 57.052C377.218 58.2 375.742 59.7853 374.648 61.808C373.61 63.776 373.09 66.072 373.09 68.696C373.09 71.2653 373.61 73.5887 374.648 75.666C375.742 77.6887 377.218 79.274 379.076 80.422C380.935 81.57 383.094 82.144 385.554 82.144ZM433.142 91.984C429.698 91.984 426.692 91.2187 424.122 89.688C421.608 88.1573 419.667 86.0253 418.3 83.292C416.988 80.5587 416.332 77.3607 416.332 73.698V46.392H427.074V72.796C427.074 74.6547 427.43 76.2947 428.14 77.716C428.906 79.0827 429.972 80.176 431.338 80.996C432.76 81.7613 434.345 82.144 436.094 82.144C437.844 82.144 439.402 81.7613 440.768 80.996C442.135 80.176 443.201 79.0553 443.966 77.634C444.732 76.2127 445.114 74.518 445.114 72.55V46.392H455.856V91H445.688V82.226L446.59 83.784C445.552 86.5173 443.83 88.5673 441.424 89.934C439.074 91.3007 436.313 91.984 433.142 91.984ZM465.842 91V46.392H475.928V56.314L475.108 54.838C476.147 51.5033 477.759 49.18 479.946 47.868C482.187 46.556 484.866 45.9 487.982 45.9H490.606V55.412H486.752C483.691 55.412 481.231 56.3687 479.372 58.282C477.513 60.1407 476.584 62.7647 476.584 66.154V91H465.842ZM250.591 203.773C249.019 203.773 247.543 203.647 246.165 203.394C244.806 203.161 243.68 202.86 242.787 202.491L245.583 193.232C247.039 193.678 248.349 193.921 249.514 193.96C250.698 193.998 251.717 193.727 252.571 193.144C253.445 192.562 254.153 191.572 254.697 190.174L255.425 188.281L239.38 142.273H252.426L261.686 175.119H262.151L271.499 142.273H284.632L267.247 191.834C266.413 194.241 265.277 196.338 263.84 198.124C262.423 199.929 260.628 201.317 258.453 202.288C256.279 203.278 253.658 203.773 250.591 203.773ZM309.747 187.874C305.224 187.874 301.312 186.913 298.012 184.991C294.731 183.049 292.198 180.351 290.412 176.896C288.626 173.421 287.733 169.393 287.733 164.811C287.733 160.191 288.626 156.153 290.412 152.697C292.198 149.223 294.731 146.524 298.012 144.602C301.312 142.661 305.224 141.69 309.747 141.69C314.27 141.69 318.172 142.661 321.453 144.602C324.753 146.524 327.296 149.223 329.082 152.697C330.868 156.153 331.761 160.191 331.761 164.811C331.761 169.393 330.868 173.421 329.082 176.896C327.296 180.351 324.753 183.049 321.453 184.991C318.172 186.913 314.27 187.874 309.747 187.874ZM309.805 178.264C311.863 178.264 313.581 177.682 314.959 176.517C316.338 175.333 317.376 173.722 318.075 171.683C318.793 169.645 319.153 167.325 319.153 164.724C319.153 162.122 318.793 159.803 318.075 157.764C317.376 155.726 316.338 154.115 314.959 152.93C313.581 151.746 311.863 151.154 309.805 151.154C307.728 151.154 305.981 151.746 304.564 152.93C303.166 154.115 302.108 155.726 301.39 157.764C300.691 159.803 300.341 162.122 300.341 164.724C300.341 167.325 300.691 169.645 301.39 171.683C302.108 173.722 303.166 175.333 304.564 176.517C305.981 177.682 307.728 178.264 309.805 178.264ZM368.51 167.956V142.273H380.915V187H369.005V178.876H368.539C367.529 181.496 365.85 183.603 363.501 185.195C361.172 186.786 358.328 187.582 354.969 187.582C351.98 187.582 349.349 186.903 347.078 185.544C344.807 184.185 343.03 182.254 341.749 179.749C340.487 177.245 339.847 174.246 339.827 170.751V142.273H352.232V168.538C352.251 171.179 352.96 173.265 354.358 174.799C355.756 176.333 357.629 177.099 359.978 177.099C361.473 177.099 362.87 176.76 364.171 176.08C365.472 175.381 366.52 174.353 367.316 172.994C368.131 171.635 368.529 169.955 368.51 167.956ZM390.837 187V142.273H402.863V150.077H403.329C404.145 147.301 405.513 145.204 407.435 143.787C409.357 142.35 411.57 141.632 414.074 141.632C414.695 141.632 415.365 141.671 416.083 141.749C416.802 141.826 417.433 141.933 417.976 142.069V153.076C417.394 152.901 416.588 152.746 415.559 152.61C414.53 152.474 413.589 152.406 412.735 152.406C410.91 152.406 409.279 152.804 407.843 153.6C406.426 154.377 405.3 155.464 404.465 156.862C403.65 158.259 403.242 159.871 403.242 161.695V187H390.837ZM31.4318 283.728C28.0346 283.728 24.9576 282.854 22.201 281.107C19.4638 279.341 17.2895 276.749 15.6783 273.332C14.0864 269.896 13.2905 265.684 13.2905 260.695C13.2905 255.57 14.1155 251.308 15.7656 247.911C17.4157 244.495 19.6094 241.942 22.3466 240.253C25.1032 238.545 28.1219 237.69 31.4027 237.69C33.907 237.69 35.9938 238.117 37.6634 238.972C39.3523 239.806 40.7112 240.855 41.7401 242.116C42.7884 243.359 43.5843 244.582 44.1278 245.786H44.5064V223.364H56.8821V283H44.652V275.837H44.1278C43.5455 277.079 42.7204 278.312 41.6527 279.535C40.6044 280.738 39.2358 281.738 37.5469 282.534C35.8774 283.33 33.839 283.728 31.4318 283.728ZM35.3629 273.857C37.3625 273.857 39.0514 273.313 40.4297 272.226C41.8274 271.119 42.8951 269.576 43.6328 267.596C44.3899 265.616 44.7685 263.296 44.7685 260.636C44.7685 257.977 44.3996 255.667 43.6619 253.706C42.9242 251.745 41.8565 250.231 40.4588 249.163C39.0611 248.096 37.3625 247.562 35.3629 247.562C33.3246 247.562 31.6065 248.115 30.2088 249.222C28.8111 250.328 27.7531 251.862 27.0348 253.822C26.3165 255.783 25.9574 258.054 25.9574 260.636C25.9574 263.238 26.3165 265.538 27.0348 267.538C27.7725 269.518 28.8305 271.071 30.2088 272.197C31.6065 273.303 33.3246 273.857 35.3629 273.857ZM67.0811 283V238.273H79.1074V246.077H79.5733C80.3887 243.301 81.7573 241.204 83.6792 239.787C85.601 238.35 87.8141 237.632 90.3184 237.632C90.9396 237.632 91.6093 237.671 92.3276 237.749C93.0459 237.826 93.6768 237.933 94.2203 238.069V249.076C93.638 248.901 92.8323 248.746 91.8034 248.61C90.7746 248.474 89.833 248.406 88.9789 248.406C87.1541 248.406 85.5234 248.804 84.0868 249.6C82.6697 250.377 81.5437 251.464 80.709 252.862C79.8936 254.259 79.486 255.871 79.486 257.695V283H67.0811ZM118.935 283.874C114.335 283.874 110.374 282.942 107.055 281.078C103.754 279.195 101.211 276.536 99.4254 273.099C97.6394 269.644 96.7464 265.558 96.7464 260.84C96.7464 256.239 97.6394 252.201 99.4254 248.727C101.211 245.252 103.725 242.544 106.967 240.602C110.229 238.661 114.053 237.69 118.44 237.69C121.391 237.69 124.138 238.166 126.681 239.117C129.244 240.049 131.476 241.456 133.379 243.339C135.3 245.223 136.795 247.591 137.863 250.445C138.931 253.279 139.464 256.598 139.464 260.403V263.81H101.697V256.123H127.788C127.788 254.337 127.399 252.755 126.623 251.376C125.846 249.998 124.769 248.921 123.391 248.144C122.032 247.348 120.45 246.95 118.644 246.95C116.761 246.95 115.092 247.387 113.636 248.261C112.199 249.115 111.073 250.27 110.258 251.726C109.442 253.162 109.025 254.764 109.006 256.531V263.839C109.006 266.053 109.413 267.965 110.229 269.576C111.063 271.187 112.238 272.43 113.752 273.303C115.266 274.177 117.062 274.614 119.139 274.614C120.518 274.614 121.779 274.42 122.925 274.031C124.07 273.643 125.05 273.061 125.866 272.284C126.681 271.508 127.302 270.556 127.729 269.43L139.202 270.188C138.62 272.944 137.426 275.351 135.621 277.409C133.835 279.447 131.525 281.039 128.69 282.185C125.875 283.311 122.624 283.874 118.935 283.874ZM160.314 283.844C157.46 283.844 154.917 283.349 152.685 282.359C150.452 281.35 148.686 279.865 147.385 277.904C146.104 275.924 145.463 273.459 145.463 270.508C145.463 268.023 145.919 265.936 146.832 264.247C147.744 262.558 148.987 261.199 150.559 260.17C152.131 259.142 153.917 258.365 155.917 257.841C157.936 257.317 160.052 256.948 162.265 256.734C164.866 256.463 166.963 256.21 168.555 255.977C170.147 255.725 171.302 255.356 172.02 254.871C172.738 254.385 173.097 253.667 173.097 252.716V252.541C173.097 250.697 172.515 249.27 171.35 248.261C170.205 247.251 168.574 246.746 166.458 246.746C164.226 246.746 162.449 247.241 161.129 248.232C159.809 249.202 158.936 250.425 158.509 251.901L147.036 250.969C147.618 248.251 148.763 245.902 150.472 243.922C152.18 241.922 154.383 240.389 157.082 239.321C159.799 238.234 162.944 237.69 166.516 237.69C169.001 237.69 171.379 237.982 173.651 238.564C175.941 239.146 177.97 240.049 179.737 241.272C181.522 242.495 182.93 244.067 183.959 245.989C184.988 247.892 185.502 250.173 185.502 252.832V283H173.738V276.798H173.388C172.67 278.195 171.709 279.428 170.506 280.496C169.302 281.544 167.856 282.369 166.167 282.971C164.478 283.553 162.527 283.844 160.314 283.844ZM163.866 275.283C165.691 275.283 167.303 274.924 168.7 274.206C170.098 273.468 171.195 272.478 171.991 271.236C172.787 269.993 173.185 268.586 173.185 267.013V262.267C172.796 262.519 172.263 262.752 171.583 262.966C170.923 263.16 170.176 263.344 169.341 263.519C168.506 263.674 167.671 263.82 166.837 263.956C166.002 264.072 165.245 264.179 164.565 264.276C163.109 264.49 161.838 264.83 160.751 265.295C159.664 265.761 158.819 266.392 158.217 267.188C157.616 267.965 157.315 268.935 157.315 270.1C157.315 271.789 157.926 273.08 159.149 273.973C160.392 274.847 161.964 275.283 163.866 275.283ZM195.126 283V238.273H206.949V246.164H207.473C208.404 243.543 209.958 241.476 212.132 239.962C214.306 238.447 216.907 237.69 219.936 237.69C223.003 237.69 225.614 238.457 227.769 239.991C229.924 241.505 231.36 243.563 232.078 246.164H232.544C233.457 243.602 235.107 241.554 237.495 240.02C239.902 238.467 242.746 237.69 246.027 237.69C250.2 237.69 253.588 239.02 256.189 241.68C258.81 244.32 260.12 248.067 260.12 252.92V283H247.745V255.366C247.745 252.881 247.085 251.017 245.765 249.775C244.444 248.532 242.794 247.911 240.814 247.911C238.562 247.911 236.806 248.629 235.544 250.066C234.282 251.483 233.651 253.357 233.651 255.686V283H221.625V255.104C221.625 252.91 220.994 251.163 219.732 249.862C218.489 248.562 216.849 247.911 214.811 247.911C213.432 247.911 212.19 248.261 211.083 248.96C209.996 249.639 209.132 250.6 208.492 251.842C207.851 253.065 207.531 254.502 207.531 256.152V283H195.126ZM312.688 238.273V247.591H285.753V238.273H312.688ZM291.868 227.557H304.273V269.256C304.273 270.401 304.447 271.294 304.797 271.935C305.146 272.556 305.631 272.993 306.253 273.245C306.893 273.497 307.631 273.624 308.466 273.624C309.048 273.624 309.631 273.575 310.213 273.478C310.795 273.362 311.242 273.274 311.552 273.216L313.503 282.447C312.882 282.641 312.009 282.864 310.883 283.116C309.757 283.388 308.388 283.553 306.777 283.612C303.787 283.728 301.166 283.33 298.915 282.418C296.682 281.505 294.945 280.088 293.702 278.166C292.46 276.244 291.848 273.818 291.868 270.886V227.557ZM340.672 283.874C336.071 283.874 332.111 282.942 328.791 281.078C325.491 279.195 322.948 276.536 321.162 273.099C319.376 269.644 318.483 265.558 318.483 260.84C318.483 256.239 319.376 252.201 321.162 248.727C322.948 245.252 325.462 242.544 328.704 240.602C331.965 238.661 335.789 237.69 340.177 237.69C343.127 237.69 345.874 238.166 348.417 239.117C350.98 240.049 353.212 241.456 355.115 243.339C357.037 245.223 358.532 247.591 359.599 250.445C360.667 253.279 361.201 256.598 361.201 260.403V263.81H323.433V256.123H349.524C349.524 254.337 349.136 252.755 348.359 251.376C347.583 249.998 346.505 248.921 345.127 248.144C343.768 247.348 342.186 246.95 340.381 246.95C338.497 246.95 336.828 247.387 335.372 248.261C333.935 249.115 332.809 250.27 331.994 251.726C331.179 253.162 330.761 254.764 330.742 256.531V263.839C330.742 266.053 331.15 267.965 331.965 269.576C332.8 271.187 333.974 272.43 335.488 273.303C337.003 274.177 338.798 274.614 340.876 274.614C342.254 274.614 343.516 274.42 344.661 274.031C345.806 273.643 346.787 273.061 347.602 272.284C348.417 271.508 349.039 270.556 349.466 269.43L360.939 270.188C360.356 272.944 359.162 275.351 357.357 277.409C355.571 279.447 353.261 281.039 350.427 282.185C347.612 283.311 344.36 283.874 340.672 283.874ZM382.05 283.844C379.197 283.844 376.653 283.349 374.421 282.359C372.189 281.35 370.422 279.865 369.121 277.904C367.84 275.924 367.199 273.459 367.199 270.508C367.199 268.023 367.656 265.936 368.568 264.247C369.48 262.558 370.723 261.199 372.295 260.17C373.868 259.142 375.654 258.365 377.653 257.841C379.672 257.317 381.788 256.948 384.001 256.734C386.603 256.463 388.699 256.21 390.291 255.977C391.883 255.725 393.038 255.356 393.756 254.871C394.474 254.385 394.834 253.667 394.834 252.716V252.541C394.834 250.697 394.251 249.27 393.086 248.261C391.941 247.251 390.31 246.746 388.194 246.746C385.962 246.746 384.186 247.241 382.866 248.232C381.546 249.202 380.672 250.425 380.245 251.901L368.772 250.969C369.354 248.251 370.5 245.902 372.208 243.922C373.916 241.922 376.12 240.389 378.818 239.321C381.536 238.234 384.681 237.69 388.253 237.69C390.738 237.69 393.116 237.982 395.387 238.564C397.678 239.146 399.706 240.049 401.473 241.272C403.259 242.495 404.666 244.067 405.695 245.989C406.724 247.892 407.238 250.173 407.238 252.832V283H395.474V276.798H395.125C394.407 278.195 393.446 279.428 392.242 280.496C391.038 281.544 389.592 282.369 387.903 282.971C386.214 283.553 384.263 283.844 382.05 283.844ZM385.603 275.283C387.428 275.283 389.039 274.924 390.437 274.206C391.834 273.468 392.931 272.478 393.727 271.236C394.523 269.993 394.921 268.586 394.921 267.013V262.267C394.533 262.519 393.999 262.752 393.319 262.966C392.659 263.16 391.912 263.344 391.077 263.519C390.242 263.674 389.408 263.82 388.573 263.956C387.738 264.072 386.981 264.179 386.302 264.276C384.846 264.49 383.574 264.83 382.487 265.295C381.4 265.761 380.555 266.392 379.954 267.188C379.352 267.965 379.051 268.935 379.051 270.1C379.051 271.789 379.662 273.08 380.885 273.973C382.128 274.847 383.7 275.283 385.603 275.283ZM416.862 283V238.273H428.685V246.164H429.209C430.141 243.543 431.694 241.476 433.868 239.962C436.042 238.447 438.644 237.69 441.672 237.69C444.739 237.69 447.35 238.457 449.505 239.991C451.66 241.505 453.097 243.563 453.815 246.164H454.281C455.193 243.602 456.843 241.554 459.231 240.02C461.638 238.467 464.482 237.69 467.763 237.69C471.937 237.69 475.324 239.02 477.926 241.68C480.546 244.32 481.857 248.067 481.857 252.92V283H469.481V255.366C469.481 252.881 468.821 251.017 467.501 249.775C466.181 248.532 464.531 247.911 462.551 247.911C460.299 247.911 458.542 248.629 457.28 250.066C456.018 251.483 455.387 253.357 455.387 255.686V283H443.361V255.104C443.361 252.91 442.73 251.163 441.468 249.862C440.226 248.562 438.585 247.911 436.547 247.911C435.169 247.911 433.926 248.261 432.82 248.96C431.733 249.639 430.869 250.6 430.228 251.842C429.588 253.065 429.267 254.502 429.267 256.152V283H416.862ZM498.906 283.757C496.984 283.757 495.334 283.078 493.956 281.719C492.597 280.34 491.917 278.69 491.917 276.768C491.917 274.866 492.597 273.235 493.956 271.876C495.334 270.518 496.984 269.838 498.906 269.838C500.77 269.838 502.4 270.518 503.798 271.876C505.196 273.235 505.895 274.866 505.895 276.768C505.895 278.05 505.565 279.224 504.905 280.292C504.264 281.34 503.42 282.185 502.371 282.825C501.323 283.446 500.168 283.757 498.906 283.757Z" fill="#2E2F35"/>
<path d="M21.291 183.156C20.9707 181.928 20.0365 178.805 18.4883 173.787C16.9401 168.715 14.778 161.402 12.002 151.846C12.002 151.739 11.9486 151.525 11.8418 151.205C11.7884 150.831 11.7617 150.591 11.7617 150.484C11.8685 149.844 12.349 149.47 13.2031 149.363C14.0573 149.203 14.6979 149.15 15.125 149.203C16.2995 149.363 17.1536 149.737 17.6875 150.324C18.2747 150.911 18.7552 151.766 19.1289 152.887L23.7734 168.182L24.0938 168.582C24.7344 167.514 25.1081 166.286 25.2148 164.898C25.3216 163.51 25.4551 162.176 25.6152 160.895C25.8288 159.56 26.2025 158.359 26.7363 157.291C27.2702 156.223 28.2845 155.476 29.7793 155.049C30.0996 155.049 30.4466 155.129 30.8203 155.289C31.194 155.396 31.541 155.583 31.8613 155.85C32.235 156.063 32.5553 156.33 32.8223 156.65C33.0892 156.917 33.276 157.211 33.3828 157.531L37.707 171.385L38.5879 172.586C38.8014 171.625 39.0684 170.077 39.3887 167.941C39.7624 165.806 40.1094 163.59 40.4297 161.295C40.8034 158.946 41.1237 156.784 41.3906 154.809C41.6576 152.78 41.8444 151.392 41.9512 150.645C41.9512 150.538 41.9512 150.351 41.9512 150.084C42.0046 149.817 42.0312 149.63 42.0312 149.523C42.4583 149.043 43.0456 148.696 43.793 148.482C44.5404 148.215 45.2077 148.135 45.7949 148.242C46.0085 148.296 46.2754 148.429 46.5957 148.643C46.9694 148.803 47.3164 149.043 47.6367 149.363C47.957 149.63 48.1973 149.924 48.3574 150.244C48.571 150.564 48.6777 150.858 48.6777 151.125L44.1133 183.957C44.0599 184.277 43.873 184.544 43.5527 184.758C43.2324 184.918 42.8587 185.078 42.4316 185.238C42.0579 185.345 41.6576 185.425 41.2305 185.479C40.8568 185.479 40.5632 185.479 40.3496 185.479C39.0684 184.998 37.9473 184.224 36.9863 183.156C36.0788 182.035 35.2513 180.807 34.5039 179.473C33.8099 178.138 33.1693 176.777 32.582 175.389C32.0482 173.947 31.4609 172.666 30.8203 171.545L30.5 171.465C30.1263 171.839 29.806 172.666 29.5391 173.947C29.3255 175.229 29.1387 176.59 28.9785 178.031C28.8184 179.473 28.6849 180.781 28.5781 181.955C28.4714 183.076 28.418 183.69 28.418 183.797C28.3112 184.544 27.804 185.132 26.8965 185.559C26.0423 185.986 25.2682 186.146 24.5742 186.039C23.8268 185.932 23.1595 185.585 22.5723 184.998C22.0384 184.357 21.6113 183.743 21.291 183.156ZM71.0996 164.658C70.6191 165.512 70.0586 166.553 69.418 167.781C68.8307 168.956 68.1901 170.237 67.4961 171.625C66.8021 172.96 66.028 174.321 65.1738 175.709C64.373 177.044 63.5189 178.271 62.6113 179.393C61.7572 180.514 60.8496 181.475 59.8887 182.275C58.9277 183.023 57.9401 183.477 56.9258 183.637C56.4987 183.637 56.0182 183.61 55.4844 183.557C54.9505 183.45 54.4167 183.316 53.8828 183.156C53.349 182.943 52.8952 182.676 52.5215 182.355C52.2012 181.982 52.041 181.501 52.041 180.914C52.0944 175.469 52.4948 170.531 53.2422 166.1C53.9896 161.615 55.1641 157.691 56.7656 154.328C58.3672 150.911 60.4225 148.082 62.9316 145.84C65.4408 143.598 68.4837 141.996 72.0605 141.035C72.1673 141.035 72.3542 141.035 72.6211 141.035C72.9414 140.982 73.1549 140.955 73.2617 140.955C74.8633 140.902 76.0111 141.649 76.7051 143.197C77.4525 144.692 77.9863 147.094 78.3066 150.404C78.6803 153.661 78.9206 157.878 79.0273 163.057C79.1875 168.182 79.4811 174.348 79.9082 181.555C80.0684 182.142 80.1484 182.649 80.1484 183.076C80.2018 183.503 80.2285 184.01 80.2285 184.598C80.2285 185.398 79.9883 186.012 79.5078 186.439C79.0273 186.813 78.4134 187 77.666 187C76.1178 187 75.0234 186.573 74.3828 185.719C73.7422 184.865 73.3151 183.717 73.1016 182.275C73.1016 182.222 73.0482 181.795 72.9414 180.994C72.888 180.193 72.7812 179.286 72.6211 178.271C72.5143 177.204 72.4076 176.136 72.3008 175.068C72.194 174.001 72.1139 173.12 72.0605 172.426V172.105C71.9538 171.572 71.8737 170.904 71.8203 170.104C71.8203 169.303 71.7669 168.529 71.6602 167.781C71.5534 166.874 71.4733 165.966 71.4199 165.059L71.0996 164.658ZM69.3379 148.803C67.8965 149.87 66.4818 151.312 65.0938 153.127C63.7057 154.942 62.7181 156.704 62.1309 158.412C61.8639 159.213 61.5703 160.307 61.25 161.695C60.9297 163.083 60.6361 164.471 60.3691 165.859C60.1556 167.194 59.9688 168.449 59.8086 169.623C59.6484 170.744 59.5684 171.465 59.5684 171.785C59.6217 171.785 59.6751 171.732 59.7285 171.625C59.8353 171.518 59.9154 171.438 59.9688 171.385C63.2786 168.182 65.6009 164.738 66.9355 161.055C68.3236 157.318 69.1243 153.234 69.3379 148.803ZM100.408 209.021C100.301 207.9 100.221 206.539 100.168 204.938C100.168 203.336 100.168 201.654 100.168 199.893C100.168 198.131 100.168 196.342 100.168 194.527C100.221 192.712 100.301 191.057 100.408 189.562V186.68C100.141 186.306 99.821 185.932 99.4473 185.559C99.0736 185.132 98.4062 184.331 97.4453 183.156C96.5378 181.928 95.2298 180.14 93.5215 177.791C91.8132 175.389 89.5176 172.052 86.6348 167.781C85.5137 166.607 84.793 165.646 84.4727 164.898C84.1523 164.098 84.0456 163.457 84.1523 162.977C84.2591 162.496 84.526 162.149 84.9531 161.936C85.4336 161.722 85.8874 161.615 86.3145 161.615C87.3822 161.615 88.3431 161.855 89.1973 162.336C90.0514 162.816 90.8255 163.43 91.5195 164.178C92.2135 164.925 92.8275 165.753 93.3613 166.66C93.9486 167.514 94.5091 168.342 95.043 169.143C95.3633 169.623 95.7637 170.237 96.2441 170.984C96.7246 171.732 97.2051 172.479 97.6855 173.227C98.166 173.921 98.5664 174.535 98.8867 175.068C99.2604 175.602 99.4473 175.869 99.4473 175.869L100.408 176.91V168.502C100.408 165.833 100.355 163.243 100.248 160.734C100.141 158.172 100.088 155.583 100.088 152.967C100.088 152.219 100.355 151.605 100.889 151.125C101.423 150.645 102.063 150.431 102.811 150.484C103.718 150.591 104.385 150.751 104.812 150.965C105.293 151.178 105.773 151.605 106.254 152.246C106.681 152.833 106.868 153.527 106.814 154.328C106.814 155.129 106.841 155.903 106.895 156.65C107.108 161.722 107.268 166.794 107.375 171.865C107.535 176.883 107.615 181.928 107.615 187C107.562 187.48 107.535 188.441 107.535 189.883C107.535 191.378 107.535 193.059 107.535 194.928C107.589 196.796 107.615 198.745 107.615 200.773C107.669 202.802 107.695 204.644 107.695 206.299C107.749 208.007 107.775 209.395 107.775 210.463C107.829 211.584 107.882 212.118 107.936 212.064C107.936 212.865 107.642 213.452 107.055 213.826C106.521 214.2 105.854 214.387 105.053 214.387C103.985 214.387 103.184 214.227 102.65 213.906C102.17 213.639 101.796 213.239 101.529 212.705C101.262 212.225 101.076 211.664 100.969 211.023C100.862 210.383 100.675 209.715 100.408 209.021ZM152.299 163.617C151.551 163.617 150.884 163.804 150.297 164.178C149.71 164.551 149.016 164.738 148.215 164.738C148.108 164.738 147.814 164.738 147.334 164.738C146.907 164.685 146.64 164.658 146.533 164.658C146.32 164.391 146.079 164.178 145.812 164.018C145.546 163.857 145.279 163.697 145.012 163.537C144.745 163.324 144.505 163.083 144.291 162.816C144.131 162.549 144.051 162.176 144.051 161.695C144.051 160.895 144.371 160.254 145.012 159.773C145.652 159.24 146.4 158.786 147.254 158.412C148.108 158.038 148.962 157.691 149.816 157.371C150.724 157.051 151.445 156.677 151.979 156.25V152.727C151.979 148.776 151.792 144.826 151.418 140.875C151.044 136.871 150.857 132.921 150.857 129.023C150.857 127.956 151.124 127.262 151.658 126.941C152.192 126.621 152.913 126.461 153.82 126.461C154.888 126.461 155.662 126.781 156.143 127.422C156.676 128.009 157.05 128.757 157.264 129.664C157.477 130.518 157.584 131.452 157.584 132.467C157.584 133.428 157.611 134.255 157.664 134.949C157.664 135.643 157.717 136.871 157.824 138.633C157.931 140.395 158.038 142.263 158.145 144.238C158.251 146.214 158.358 148.082 158.465 149.844C158.572 151.605 158.652 152.833 158.705 153.527C158.919 153.474 159.319 153.34 159.906 153.127C160.547 152.86 161.214 152.62 161.908 152.406C162.602 152.139 163.243 151.899 163.83 151.686C164.471 151.472 164.924 151.312 165.191 151.205C166.579 150.618 168.021 149.977 169.516 149.283C171.01 148.536 172.532 148.162 174.08 148.162C175.148 148.162 175.949 148.536 176.482 149.283C177.07 149.977 177.363 150.805 177.363 151.766C177.363 152.46 177.096 152.967 176.562 153.287C176.029 153.607 175.468 153.901 174.881 154.168L160.307 159.613C160.146 159.72 159.986 159.827 159.826 159.934C159.666 159.987 159.506 160.094 159.346 160.254V162.816C159.346 164.685 159.372 166.633 159.426 168.662C159.533 170.637 159.719 172.559 159.986 174.428C160.253 176.029 160.547 177.604 160.867 179.152C161.188 180.701 161.348 182.275 161.348 183.877C161.348 184.357 161.188 184.998 160.867 185.799C160.547 186.6 160.04 187 159.346 187C157.904 187 156.73 186.573 155.822 185.719C154.915 184.865 154.408 183.717 154.301 182.275C154.034 179.499 153.74 176.456 153.42 173.146C153.153 169.837 152.886 166.66 152.619 163.617H152.299ZM180.166 174.748L183.129 154.168C183.236 153.474 183.529 152.967 184.01 152.646C184.544 152.326 185.131 152.166 185.771 152.166C186.946 152.166 187.88 152.513 188.574 153.207C189.268 153.848 189.855 154.648 190.336 155.609H190.416C191.057 155.609 191.617 155.503 192.098 155.289C192.632 155.022 193.272 154.889 194.02 154.889C195.728 154.889 197.169 155.423 198.344 156.49C199.572 157.558 200.559 158.866 201.307 160.414C202.054 161.909 202.588 163.537 202.908 165.299C203.282 167.061 203.469 168.609 203.469 169.943C203.469 171.545 203.042 173.333 202.188 175.309C201.387 177.284 200.292 179.152 198.904 180.914C197.57 182.676 196.048 184.144 194.34 185.318C192.632 186.493 190.896 187.08 189.135 187.08C187.533 187.08 186.145 186.706 184.971 185.959C183.85 185.212 182.915 184.277 182.168 183.156C181.474 181.982 180.967 180.674 180.646 179.232C180.326 177.791 180.166 176.376 180.166 174.988V174.748ZM186.893 175.229C186.999 175.762 187.106 176.376 187.213 177.07C187.32 177.764 187.48 178.405 187.693 178.992C187.907 179.526 188.201 179.953 188.574 180.273C189.001 180.54 189.589 180.54 190.336 180.273C191.03 179.633 191.777 178.912 192.578 178.111C193.379 177.311 194.126 176.456 194.82 175.549C195.568 174.641 196.182 173.68 196.662 172.666C197.143 171.652 197.383 170.584 197.383 169.463C197.596 167.648 197.463 165.993 196.982 164.498C196.502 162.95 195.808 161.855 194.9 161.215C194.046 160.521 193.059 160.441 191.938 160.975C190.816 161.455 189.695 162.816 188.574 165.059C187.934 166.447 187.48 168.075 187.213 169.943C186.999 171.758 186.893 173.44 186.893 174.988V175.229Z" fill="#771EA8"/>
</svg>
