<svg width="574" height="404" viewBox="0 0 574 404" fill="none" xmlns="http://www.w3.org/2000/svg">
<mask id="mask0_180_626" style="mask-type:alpha" maskUnits="userSpaceOnUse" x="0" y="0" width="574" height="404">
<rect width="573.97" height="404" fill="#D9D9D9"/>
</mask>
<g mask="url(#mask0_180_626)">
<path d="M37.716 91.984C33.8347 91.984 30.2267 91.2733 26.892 89.852C23.612 88.4307 20.7693 86.4627 18.364 83.948C16.0133 81.3787 14.2913 78.3993 13.198 75.01L22.464 70.992C23.94 74.4907 26.072 77.2513 28.86 79.274C31.648 81.242 34.7913 82.226 38.29 82.226C40.258 82.226 41.9527 81.9253 43.374 81.324C44.85 80.668 45.9707 79.7933 46.736 78.7C47.556 77.6067 47.966 76.2947 47.966 74.764C47.966 72.96 47.4193 71.484 46.326 70.336C45.2873 69.1333 43.702 68.204 41.57 67.548L29.844 63.776C25.088 62.3 21.5073 60.086 19.102 57.134C16.6967 54.182 15.494 50.7107 15.494 46.72C15.494 43.2213 16.3413 40.1327 18.036 37.454C19.7853 34.7753 22.1907 32.698 25.252 31.222C28.368 29.6913 31.9213 28.926 35.912 28.926C39.5747 28.926 42.9367 29.582 45.998 30.894C49.0593 32.1513 51.6833 33.928 53.87 36.224C56.1113 38.4653 57.7787 41.1167 58.872 44.178L49.688 48.278C48.4853 45.2167 46.6813 42.866 44.276 41.226C41.8707 39.5313 39.0827 38.684 35.912 38.684C34.0533 38.684 32.4133 39.012 30.992 39.668C29.5707 40.2693 28.45 41.144 27.63 42.292C26.8647 43.3853 26.482 44.6973 26.482 46.228C26.482 47.9227 27.0287 49.426 28.122 50.738C29.2153 51.9953 30.8827 52.9793 33.124 53.69L44.358 57.216C49.2233 58.8013 52.8587 60.988 55.264 63.776C57.724 66.564 58.954 70.008 58.954 74.108C58.954 77.6067 58.052 80.6953 56.248 83.374C54.444 86.0527 51.9567 88.1573 48.786 89.688C45.6153 91.2187 41.9253 91.984 37.716 91.984ZM68.0938 91V28.926H78.8358V55.166L77.3598 53.608C78.3985 50.9293 80.0931 48.9067 82.4438 47.54C84.8491 46.1187 87.6371 45.408 90.8078 45.408C94.0878 45.408 96.9851 46.1187 99.4998 47.54C102.069 48.9613 104.064 50.9567 105.486 53.526C106.907 56.0407 107.618 58.9653 107.618 62.3V91H96.8758V64.842C96.8758 62.874 96.4931 61.1793 95.7278 59.758C94.9625 58.3367 93.8965 57.2433 92.5298 56.478C91.2178 55.658 89.6598 55.248 87.8558 55.248C86.1065 55.248 84.5485 55.658 83.1818 56.478C81.8151 57.2433 80.7491 58.3367 79.9838 59.758C79.2185 61.1793 78.8358 62.874 78.8358 64.842V91H68.0938ZM132.609 91.984C129.165 91.984 126.159 91.2187 123.589 89.688C121.075 88.1573 119.134 86.0253 117.767 83.292C116.455 80.5587 115.799 77.3607 115.799 73.698V46.392H126.541V72.796C126.541 74.6547 126.897 76.2947 127.607 77.716C128.373 79.0827 129.439 80.176 130.805 80.996C132.227 81.7613 133.812 82.144 135.561 82.144C137.311 82.144 138.869 81.7613 140.235 80.996C141.602 80.176 142.668 79.0553 143.433 77.634C144.199 76.2127 144.581 74.518 144.581 72.55V46.392H155.323V91H145.155V82.226L146.057 83.784C145.019 86.5173 143.297 88.5673 140.891 89.934C138.541 91.3007 135.78 91.984 132.609 91.984ZM170.475 91V55.986H162.603V46.392H170.475V44.916C170.475 41.5267 171.158 38.6567 172.525 36.306C173.946 33.9007 175.914 32.0693 178.429 30.812C180.943 29.5547 183.923 28.926 187.367 28.926C188.023 28.926 188.733 28.9807 189.499 29.09C190.319 29.1447 191.002 29.2267 191.549 29.336V38.602C191.002 38.4927 190.483 38.438 189.991 38.438C189.553 38.3833 189.143 38.356 188.761 38.356C186.355 38.356 184.497 38.9027 183.185 39.996C181.873 41.0347 181.217 42.6747 181.217 44.916V46.392H200.733V55.986H181.217V91H170.475ZM230.991 91V28.926H241.733V91H230.991ZM202.947 91V55.986H195.075V46.392H202.947V44.916C202.947 41.5267 203.63 38.6567 204.997 36.306C206.363 33.9007 208.304 32.0693 210.819 30.812C213.388 29.5547 216.395 28.926 219.839 28.926C220.495 28.926 221.205 28.9807 221.971 29.09C222.791 29.1447 223.447 29.2267 223.939 29.336V38.602C223.447 38.4927 222.955 38.438 222.463 38.438C222.025 38.3833 221.615 38.356 221.233 38.356C218.827 38.356 216.969 38.9027 215.657 39.996C214.345 41.0347 213.689 42.6747 213.689 44.916V46.392H233.205V55.986H213.689V91H202.947ZM272.869 91.984C268.277 91.984 264.259 90.9453 260.815 88.868C257.371 86.7907 254.692 83.9753 252.779 80.422C250.866 76.8687 249.909 72.9327 249.909 68.614C249.909 64.1313 250.866 60.168 252.779 56.724C254.747 53.2253 257.398 50.4647 260.733 48.442C264.122 46.4193 267.894 45.408 272.049 45.408C275.548 45.408 278.609 45.982 281.233 47.13C283.912 48.278 286.18 49.8633 288.039 51.886C289.898 53.9087 291.319 56.232 292.303 58.856C293.287 61.4253 293.779 64.2133 293.779 67.22C293.779 67.9853 293.724 68.778 293.615 69.598C293.56 70.418 293.424 71.1287 293.205 71.73H258.765V63.53H287.137L282.053 67.384C282.545 64.8693 282.408 62.628 281.643 60.66C280.932 58.692 279.73 57.134 278.035 55.986C276.395 54.838 274.4 54.264 272.049 54.264C269.808 54.264 267.812 54.838 266.063 55.986C264.314 57.0793 262.974 58.7193 262.045 60.906C261.17 63.038 260.842 65.6347 261.061 68.696C260.842 71.4293 261.198 73.862 262.127 75.994C263.111 78.0713 264.532 79.684 266.391 80.832C268.304 81.98 270.491 82.554 272.951 82.554C275.411 82.554 277.488 82.0347 279.183 80.996C280.932 79.9573 282.299 78.5633 283.283 76.814L291.975 81.078C291.1 83.21 289.734 85.096 287.875 86.736C286.016 88.376 283.802 89.6607 281.233 90.59C278.718 91.5193 275.93 91.984 272.869 91.984ZM321.908 109.122C320.705 109.122 319.53 109.013 318.382 108.794C317.234 108.63 316.195 108.329 315.266 107.892V98.872C315.977 99.036 316.824 99.2 317.808 99.364C318.847 99.528 319.803 99.61 320.678 99.61C323.138 99.61 324.915 99.036 326.008 97.888C327.156 96.74 328.167 95.2367 329.042 93.378L331.994 86.49L331.83 95.51L312.396 46.392H323.958L337.57 82.636H333.47L347 46.392H358.644L339.21 95.51C338.062 98.4073 336.668 100.867 335.028 102.89C333.388 104.913 331.475 106.443 329.288 107.482C327.156 108.575 324.696 109.122 321.908 109.122ZM385.554 91.984C381.181 91.984 377.19 90.9727 373.582 88.95C370.029 86.9273 367.186 84.1667 365.054 80.668C362.977 77.1693 361.938 73.1787 361.938 68.696C361.938 64.2133 362.977 60.2227 365.054 56.724C367.186 53.2253 370.029 50.4647 373.582 48.442C377.136 46.4193 381.126 45.408 385.554 45.408C389.928 45.408 393.891 46.4193 397.444 48.442C400.998 50.4647 403.813 53.2253 405.89 56.724C408.022 60.168 409.088 64.1587 409.088 68.696C409.088 73.1787 408.022 77.1693 405.89 80.668C403.758 84.1667 400.916 86.9273 397.362 88.95C393.809 90.9727 389.873 91.984 385.554 91.984ZM385.554 82.144C387.96 82.144 390.064 81.57 391.868 80.422C393.727 79.274 395.176 77.6887 396.214 75.666C397.308 73.5887 397.854 71.2653 397.854 68.696C397.854 66.072 397.308 63.776 396.214 61.808C395.176 59.7853 393.727 58.2 391.868 57.052C390.064 55.8493 387.96 55.248 385.554 55.248C383.094 55.248 380.935 55.8493 379.076 57.052C377.218 58.2 375.742 59.7853 374.648 61.808C373.61 63.776 373.09 66.072 373.09 68.696C373.09 71.2653 373.61 73.5887 374.648 75.666C375.742 77.6887 377.218 79.274 379.076 80.422C380.935 81.57 383.094 82.144 385.554 82.144ZM433.142 91.984C429.698 91.984 426.692 91.2187 424.122 89.688C421.608 88.1573 419.667 86.0253 418.3 83.292C416.988 80.5587 416.332 77.3607 416.332 73.698V46.392H427.074V72.796C427.074 74.6547 427.43 76.2947 428.14 77.716C428.906 79.0827 429.972 80.176 431.338 80.996C432.76 81.7613 434.345 82.144 436.094 82.144C437.844 82.144 439.402 81.7613 440.768 80.996C442.135 80.176 443.201 79.0553 443.966 77.634C444.732 76.2127 445.114 74.518 445.114 72.55V46.392H455.856V91H445.688V82.226L446.59 83.784C445.552 86.5173 443.83 88.5673 441.424 89.934C439.074 91.3007 436.313 91.984 433.142 91.984ZM465.842 91V46.392H475.928V56.314L475.108 54.838C476.147 51.5033 477.759 49.18 479.946 47.868C482.187 46.556 484.866 45.9 487.982 45.9H490.606V55.412H486.752C483.691 55.412 481.231 56.3687 479.372 58.282C477.513 60.1407 476.584 62.7647 476.584 66.154V91H465.842ZM250.591 203.773C249.019 203.773 247.543 203.647 246.165 203.394C244.806 203.161 243.68 202.86 242.787 202.491L245.583 193.232C247.039 193.678 248.349 193.921 249.514 193.96C250.698 193.998 251.717 193.727 252.571 193.144C253.445 192.562 254.153 191.572 254.697 190.174L255.425 188.281L239.38 142.273H252.426L261.686 175.119H262.151L271.499 142.273H284.632L267.247 191.834C266.413 194.241 265.277 196.338 263.84 198.124C262.423 199.929 260.628 201.317 258.453 202.288C256.279 203.278 253.658 203.773 250.591 203.773ZM309.747 187.874C305.224 187.874 301.312 186.913 298.012 184.991C294.731 183.049 292.198 180.351 290.412 176.896C288.626 173.421 287.733 169.393 287.733 164.811C287.733 160.191 288.626 156.153 290.412 152.697C292.198 149.223 294.731 146.524 298.012 144.602C301.312 142.661 305.224 141.69 309.747 141.69C314.27 141.69 318.172 142.661 321.453 144.602C324.753 146.524 327.296 149.223 329.082 152.697C330.868 156.153 331.761 160.191 331.761 164.811C331.761 169.393 330.868 173.421 329.082 176.896C327.296 180.351 324.753 183.049 321.453 184.991C318.172 186.913 314.27 187.874 309.747 187.874ZM309.805 178.264C311.863 178.264 313.581 177.682 314.959 176.517C316.338 175.333 317.376 173.722 318.075 171.683C318.793 169.645 319.153 167.325 319.153 164.724C319.153 162.122 318.793 159.803 318.075 157.764C317.376 155.726 316.338 154.115 314.959 152.93C313.581 151.746 311.863 151.154 309.805 151.154C307.728 151.154 305.981 151.746 304.564 152.93C303.166 154.115 302.108 155.726 301.39 157.764C300.691 159.803 300.341 162.122 300.341 164.724C300.341 167.325 300.691 169.645 301.39 171.683C302.108 173.722 303.166 175.333 304.564 176.517C305.981 177.682 307.728 178.264 309.805 178.264ZM368.51 167.956V142.273H380.915V187H369.005V178.876H368.539C367.529 181.496 365.85 183.603 363.501 185.195C361.172 186.786 358.328 187.582 354.969 187.582C351.98 187.582 349.349 186.903 347.078 185.544C344.807 184.185 343.03 182.254 341.749 179.749C340.487 177.245 339.847 174.246 339.827 170.751V142.273H352.232V168.538C352.251 171.179 352.96 173.265 354.358 174.799C355.756 176.333 357.629 177.099 359.978 177.099C361.473 177.099 362.87 176.76 364.171 176.08C365.472 175.381 366.52 174.353 367.316 172.994C368.131 171.635 368.529 169.955 368.51 167.956ZM390.837 187V142.273H402.863V150.077H403.329C404.145 147.301 405.513 145.204 407.435 143.787C409.357 142.35 411.57 141.632 414.074 141.632C414.695 141.632 415.365 141.671 416.083 141.749C416.802 141.826 417.433 141.933 417.976 142.069V153.076C417.394 152.901 416.588 152.746 415.559 152.61C414.53 152.474 413.589 152.406 412.735 152.406C410.91 152.406 409.279 152.804 407.843 153.6C406.426 154.377 405.3 155.464 404.465 156.862C403.65 158.259 403.242 159.871 403.242 161.695V187H390.837ZM31.4318 283.728C28.0346 283.728 24.9576 282.854 22.201 281.107C19.4638 279.341 17.2895 276.749 15.6783 273.332C14.0864 269.896 13.2905 265.684 13.2905 260.695C13.2905 255.57 14.1155 251.308 15.7656 247.911C17.4157 244.495 19.6094 241.942 22.3466 240.253C25.1032 238.545 28.1219 237.69 31.4027 237.69C33.907 237.69 35.9938 238.117 37.6634 238.972C39.3523 239.806 40.7112 240.855 41.7401 242.116C42.7884 243.359 43.5843 244.582 44.1278 245.786H44.5064V223.364H56.8821V283H44.652V275.837H44.1278C43.5455 277.079 42.7204 278.312 41.6527 279.535C40.6044 280.738 39.2358 281.738 37.5469 282.534C35.8774 283.33 33.839 283.728 31.4318 283.728ZM35.3629 273.857C37.3625 273.857 39.0514 273.313 40.4297 272.226C41.8274 271.119 42.8951 269.576 43.6328 267.596C44.3899 265.616 44.7685 263.296 44.7685 260.636C44.7685 257.977 44.3996 255.667 43.6619 253.706C42.9242 251.745 41.8565 250.231 40.4588 249.163C39.0611 248.096 37.3625 247.562 35.3629 247.562C33.3246 247.562 31.6065 248.115 30.2088 249.222C28.8111 250.328 27.7531 251.862 27.0348 253.822C26.3165 255.783 25.9574 258.054 25.9574 260.636C25.9574 263.238 26.3165 265.538 27.0348 267.538C27.7725 269.518 28.8305 271.071 30.2088 272.197C31.6065 273.303 33.3246 273.857 35.3629 273.857ZM67.0811 283V238.273H79.1074V246.077H79.5733C80.3887 243.301 81.7573 241.204 83.6792 239.787C85.601 238.35 87.8141 237.632 90.3184 237.632C90.9396 237.632 91.6093 237.671 92.3276 237.749C93.0459 237.826 93.6768 237.933 94.2203 238.069V249.076C93.638 248.901 92.8323 248.746 91.8034 248.61C90.7746 248.474 89.833 248.406 88.9789 248.406C87.1541 248.406 85.5234 248.804 84.0868 249.6C82.6697 250.377 81.5437 251.464 80.709 252.862C79.8936 254.259 79.486 255.871 79.486 257.695V283H67.0811ZM118.935 283.874C114.335 283.874 110.374 282.942 107.055 281.078C103.754 279.195 101.211 276.536 99.4254 273.099C97.6394 269.644 96.7464 265.558 96.7464 260.84C96.7464 256.239 97.6394 252.201 99.4254 248.727C101.211 245.252 103.725 242.544 106.967 240.602C110.229 238.661 114.053 237.69 118.44 237.69C121.391 237.69 124.138 238.166 126.681 239.117C129.244 240.049 131.476 241.456 133.379 243.339C135.3 245.223 136.795 247.591 137.863 250.445C138.931 253.279 139.464 256.598 139.464 260.403V263.81H101.697V256.123H127.788C127.788 254.337 127.399 252.755 126.623 251.376C125.846 249.998 124.769 248.921 123.391 248.144C122.032 247.348 120.45 246.95 118.644 246.95C116.761 246.95 115.092 247.387 113.636 248.261C112.199 249.115 111.073 250.27 110.258 251.726C109.442 253.162 109.025 254.764 109.006 256.531V263.839C109.006 266.053 109.413 267.965 110.229 269.576C111.063 271.187 112.238 272.43 113.752 273.303C115.266 274.177 117.062 274.614 119.139 274.614C120.518 274.614 121.779 274.42 122.925 274.031C124.07 273.643 125.05 273.061 125.866 272.284C126.681 271.508 127.302 270.556 127.729 269.43L139.202 270.188C138.62 272.944 137.426 275.351 135.621 277.409C133.835 279.447 131.525 281.039 128.69 282.185C125.875 283.311 122.624 283.874 118.935 283.874ZM160.314 283.844C157.46 283.844 154.917 283.349 152.685 282.359C150.452 281.35 148.686 279.865 147.385 277.904C146.104 275.924 145.463 273.459 145.463 270.508C145.463 268.023 145.919 265.936 146.832 264.247C147.744 262.558 148.987 261.199 150.559 260.17C152.131 259.142 153.917 258.365 155.917 257.841C157.936 257.317 160.052 256.948 162.265 256.734C164.866 256.463 166.963 256.21 168.555 255.977C170.147 255.725 171.302 255.356 172.02 254.871C172.738 254.385 173.097 253.667 173.097 252.716V252.541C173.097 250.697 172.515 249.27 171.35 248.261C170.205 247.251 168.574 246.746 166.458 246.746C164.226 246.746 162.449 247.241 161.129 248.232C159.809 249.202 158.936 250.425 158.509 251.901L147.036 250.969C147.618 248.251 148.763 245.902 150.472 243.922C152.18 241.922 154.383 240.389 157.082 239.321C159.799 238.234 162.944 237.69 166.516 237.69C169.001 237.69 171.379 237.982 173.651 238.564C175.941 239.146 177.97 240.049 179.737 241.272C181.522 242.495 182.93 244.067 183.959 245.989C184.988 247.892 185.502 250.173 185.502 252.832V283H173.738V276.798H173.388C172.67 278.195 171.709 279.428 170.506 280.496C169.302 281.544 167.856 282.369 166.167 282.971C164.478 283.553 162.527 283.844 160.314 283.844ZM163.866 275.283C165.691 275.283 167.303 274.924 168.7 274.206C170.098 273.468 171.195 272.478 171.991 271.236C172.787 269.993 173.185 268.586 173.185 267.013V262.267C172.796 262.519 172.263 262.752 171.583 262.966C170.923 263.16 170.176 263.344 169.341 263.519C168.506 263.674 167.671 263.82 166.837 263.956C166.002 264.072 165.245 264.179 164.565 264.276C163.109 264.49 161.838 264.83 160.751 265.295C159.664 265.761 158.819 266.392 158.217 267.188C157.616 267.965 157.315 268.935 157.315 270.1C157.315 271.789 157.926 273.08 159.149 273.973C160.392 274.847 161.964 275.283 163.866 275.283ZM195.126 283V238.273H206.949V246.164H207.473C208.404 243.543 209.958 241.476 212.132 239.962C214.306 238.447 216.907 237.69 219.936 237.69C223.003 237.69 225.614 238.457 227.769 239.991C229.924 241.505 231.36 243.563 232.078 246.164H232.544C233.457 243.602 235.107 241.554 237.495 240.02C239.902 238.467 242.746 237.69 246.027 237.69C250.2 237.69 253.588 239.02 256.189 241.68C258.81 244.32 260.12 248.067 260.12 252.92V283H247.745V255.366C247.745 252.881 247.085 251.017 245.765 249.775C244.444 248.532 242.794 247.911 240.814 247.911C238.562 247.911 236.806 248.629 235.544 250.066C234.282 251.483 233.651 253.357 233.651 255.686V283H221.625V255.104C221.625 252.91 220.994 251.163 219.732 249.862C218.489 248.562 216.849 247.911 214.811 247.911C213.432 247.911 212.19 248.261 211.083 248.96C209.996 249.639 209.132 250.6 208.492 251.842C207.851 253.065 207.531 254.502 207.531 256.152V283H195.126ZM312.688 238.273V247.591H285.753V238.273H312.688ZM291.868 227.557H304.273V269.256C304.273 270.401 304.447 271.294 304.797 271.935C305.146 272.556 305.631 272.993 306.253 273.245C306.893 273.497 307.631 273.624 308.466 273.624C309.048 273.624 309.631 273.575 310.213 273.478C310.795 273.362 311.242 273.274 311.552 273.216L313.503 282.447C312.882 282.641 312.009 282.864 310.883 283.116C309.757 283.388 308.388 283.553 306.777 283.612C303.787 283.728 301.166 283.33 298.915 282.418C296.682 281.505 294.945 280.088 293.702 278.166C292.46 276.244 291.848 273.818 291.868 270.886V227.557ZM340.672 283.874C336.071 283.874 332.111 282.942 328.791 281.078C325.491 279.195 322.948 276.536 321.162 273.099C319.376 269.644 318.483 265.558 318.483 260.84C318.483 256.239 319.376 252.201 321.162 248.727C322.948 245.252 325.462 242.544 328.704 240.602C331.965 238.661 335.789 237.69 340.177 237.69C343.127 237.69 345.874 238.166 348.417 239.117C350.98 240.049 353.212 241.456 355.115 243.339C357.037 245.223 358.532 247.591 359.599 250.445C360.667 253.279 361.201 256.598 361.201 260.403V263.81H323.433V256.123H349.524C349.524 254.337 349.136 252.755 348.359 251.376C347.583 249.998 346.505 248.921 345.127 248.144C343.768 247.348 342.186 246.95 340.381 246.95C338.497 246.95 336.828 247.387 335.372 248.261C333.935 249.115 332.809 250.27 331.994 251.726C331.179 253.162 330.761 254.764 330.742 256.531V263.839C330.742 266.053 331.15 267.965 331.965 269.576C332.8 271.187 333.974 272.43 335.488 273.303C337.003 274.177 338.798 274.614 340.876 274.614C342.254 274.614 343.516 274.42 344.661 274.031C345.806 273.643 346.787 273.061 347.602 272.284C348.417 271.508 349.039 270.556 349.466 269.43L360.939 270.188C360.356 272.944 359.162 275.351 357.357 277.409C355.571 279.447 353.261 281.039 350.427 282.185C347.612 283.311 344.36 283.874 340.672 283.874ZM382.05 283.844C379.197 283.844 376.653 283.349 374.421 282.359C372.189 281.35 370.422 279.865 369.121 277.904C367.84 275.924 367.199 273.459 367.199 270.508C367.199 268.023 367.656 265.936 368.568 264.247C369.48 262.558 370.723 261.199 372.295 260.17C373.868 259.142 375.654 258.365 377.653 257.841C379.672 257.317 381.788 256.948 384.001 256.734C386.603 256.463 388.699 256.21 390.291 255.977C391.883 255.725 393.038 255.356 393.756 254.871C394.474 254.385 394.834 253.667 394.834 252.716V252.541C394.834 250.697 394.251 249.27 393.086 248.261C391.941 247.251 390.31 246.746 388.194 246.746C385.962 246.746 384.186 247.241 382.866 248.232C381.546 249.202 380.672 250.425 380.245 251.901L368.772 250.969C369.354 248.251 370.5 245.902 372.208 243.922C373.916 241.922 376.12 240.389 378.818 239.321C381.536 238.234 384.681 237.69 388.253 237.69C390.738 237.69 393.116 237.982 395.387 238.564C397.678 239.146 399.706 240.049 401.473 241.272C403.259 242.495 404.666 244.067 405.695 245.989C406.724 247.892 407.238 250.173 407.238 252.832V283H395.474V276.798H395.125C394.407 278.195 393.446 279.428 392.242 280.496C391.038 281.544 389.592 282.369 387.903 282.971C386.214 283.553 384.263 283.844 382.05 283.844ZM385.603 275.283C387.428 275.283 389.039 274.924 390.437 274.206C391.834 273.468 392.931 272.478 393.727 271.236C394.523 269.993 394.921 268.586 394.921 267.013V262.267C394.533 262.519 393.999 262.752 393.319 262.966C392.659 263.16 391.912 263.344 391.077 263.519C390.242 263.674 389.408 263.82 388.573 263.956C387.738 264.072 386.981 264.179 386.302 264.276C384.846 264.49 383.574 264.83 382.487 265.295C381.4 265.761 380.555 266.392 379.954 267.188C379.352 267.965 379.051 268.935 379.051 270.1C379.051 271.789 379.662 273.08 380.885 273.973C382.128 274.847 383.7 275.283 385.603 275.283ZM416.862 283V238.273H428.685V246.164H429.209C430.141 243.543 431.694 241.476 433.868 239.962C436.042 238.447 438.644 237.69 441.672 237.69C444.739 237.69 447.35 238.457 449.505 239.991C451.66 241.505 453.097 243.563 453.815 246.164H454.281C455.193 243.602 456.843 241.554 459.231 240.02C461.638 238.467 464.482 237.69 467.763 237.69C471.937 237.69 475.324 239.02 477.926 241.68C480.546 244.32 481.857 248.067 481.857 252.92V283H469.481V255.366C469.481 252.881 468.821 251.017 467.501 249.775C466.181 248.532 464.531 247.911 462.551 247.911C460.299 247.911 458.542 248.629 457.28 250.066C456.018 251.483 455.387 253.357 455.387 255.686V283H443.361V255.104C443.361 252.91 442.73 251.163 441.468 249.862C440.226 248.562 438.585 247.911 436.547 247.911C435.169 247.911 433.926 248.261 432.82 248.96C431.733 249.639 430.869 250.6 430.228 251.842C429.588 253.065 429.267 254.502 429.267 256.152V283H416.862ZM498.906 283.757C496.984 283.757 495.334 283.078 493.956 281.719C492.597 280.34 491.917 278.69 491.917 276.768C491.917 274.866 492.597 273.235 493.956 271.876C495.334 270.518 496.984 269.838 498.906 269.838C500.77 269.838 502.4 270.518 503.798 271.876C505.196 273.235 505.895 274.866 505.895 276.768C505.895 278.05 505.565 279.224 504.905 280.292C504.264 281.34 503.42 282.185 502.371 282.825C501.323 283.446 500.168 283.757 498.906 283.757Z" fill="#2E2F35"/>
<path d="M21.291 183.156C20.9707 181.928 20.0365 178.805 18.4883 173.787C16.9401 168.715 14.778 161.402 12.002 151.846C12.002 151.739 11.9486 151.525 11.8418 151.205C11.7884 150.831 11.7617 150.591 11.7617 150.484C11.8685 149.844 12.349 149.47 13.2031 149.363C14.0573 149.203 14.6979 149.15 15.125 149.203C16.2995 149.363 17.1536 149.737 17.6875 150.324C18.2747 150.911 18.7552 151.766 19.1289 152.887L23.7734 168.182L24.0938 168.582C24.7344 167.514 25.1081 166.286 25.2148 164.898C25.3216 163.51 25.4551 162.176 25.6152 160.895C25.8288 159.56 26.2025 158.359 26.7363 157.291C27.2702 156.223 28.2845 155.476 29.7793 155.049C30.0996 155.049 30.4466 155.129 30.8203 155.289C31.194 155.396 31.541 155.583 31.8613 155.85C32.235 156.063 32.5553 156.33 32.8223 156.65C33.0892 156.917 33.276 157.211 33.3828 157.531L37.707 171.385L38.5879 172.586C38.8014 171.625 39.0684 170.077 39.3887 167.941C39.7624 165.806 40.1094 163.59 40.4297 161.295C40.8034 158.946 41.1237 156.784 41.3906 154.809C41.6576 152.78 41.8444 151.392 41.9512 150.645C41.9512 150.538 41.9512 150.351 41.9512 150.084C42.0046 149.817 42.0312 149.63 42.0312 149.523C42.4583 149.043 43.0456 148.696 43.793 148.482C44.5404 148.215 45.2077 148.135 45.7949 148.242C46.0085 148.296 46.2754 148.429 46.5957 148.643C46.9694 148.803 47.3164 149.043 47.6367 149.363C47.957 149.63 48.1973 149.924 48.3574 150.244C48.571 150.564 48.6777 150.858 48.6777 151.125L44.1133 183.957C44.0599 184.277 43.873 184.544 43.5527 184.758C43.2324 184.918 42.8587 185.078 42.4316 185.238C42.0579 185.345 41.6576 185.425 41.2305 185.479C40.8568 185.479 40.5632 185.479 40.3496 185.479C39.0684 184.998 37.9473 184.224 36.9863 183.156C36.0788 182.035 35.2513 180.807 34.5039 179.473C33.8099 178.138 33.1693 176.777 32.582 175.389C32.0482 173.947 31.4609 172.666 30.8203 171.545L30.5 171.465C30.1263 171.839 29.806 172.666 29.5391 173.947C29.3255 175.229 29.1387 176.59 28.9785 178.031C28.8184 179.473 28.6849 180.781 28.5781 181.955C28.4714 183.076 28.418 183.69 28.418 183.797C28.3112 184.544 27.804 185.132 26.8965 185.559C26.0423 185.986 25.2682 186.146 24.5742 186.039C23.8268 185.932 23.1595 185.585 22.5723 184.998C22.0384 184.357 21.6113 183.743 21.291 183.156ZM71.0996 164.658C70.6191 165.512 70.0586 166.553 69.418 167.781C68.8307 168.956 68.1901 170.237 67.4961 171.625C66.8021 172.96 66.028 174.321 65.1738 175.709C64.373 177.044 63.5189 178.271 62.6113 179.393C61.7572 180.514 60.8496 181.475 59.8887 182.275C58.9277 183.023 57.9401 183.477 56.9258 183.637C56.4987 183.637 56.0182 183.61 55.4844 183.557C54.9505 183.45 54.4167 183.316 53.8828 183.156C53.349 182.943 52.8952 182.676 52.5215 182.355C52.2012 181.982 52.041 181.501 52.041 180.914C52.0944 175.469 52.4948 170.531 53.2422 166.1C53.9896 161.615 55.1641 157.691 56.7656 154.328C58.3672 150.911 60.4225 148.082 62.9316 145.84C65.4408 143.598 68.4837 141.996 72.0605 141.035C72.1673 141.035 72.3542 141.035 72.6211 141.035C72.9414 140.982 73.1549 140.955 73.2617 140.955C74.8633 140.902 76.0111 141.649 76.7051 143.197C77.4525 144.692 77.9863 147.094 78.3066 150.404C78.6803 153.661 78.9206 157.878 79.0273 163.057C79.1875 168.182 79.4811 174.348 79.9082 181.555C80.0684 182.142 80.1484 182.649 80.1484 183.076C80.2018 183.503 80.2285 184.01 80.2285 184.598C80.2285 185.398 79.9883 186.012 79.5078 186.439C79.0273 186.813 78.4134 187 77.666 187C76.1178 187 75.0234 186.573 74.3828 185.719C73.7422 184.865 73.3151 183.717 73.1016 182.275C73.1016 182.222 73.0482 181.795 72.9414 180.994C72.888 180.193 72.7812 179.286 72.6211 178.271C72.5143 177.204 72.4076 176.136 72.3008 175.068C72.194 174.001 72.1139 173.12 72.0605 172.426V172.105C71.9538 171.572 71.8737 170.904 71.8203 170.104C71.8203 169.303 71.7669 168.529 71.6602 167.781C71.5534 166.874 71.4733 165.966 71.4199 165.059L71.0996 164.658ZM69.3379 148.803C67.8965 149.87 66.4818 151.312 65.0938 153.127C63.7057 154.942 62.7181 156.704 62.1309 158.412C61.8639 159.213 61.5703 160.307 61.25 161.695C60.9297 163.083 60.6361 164.471 60.3691 165.859C60.1556 167.194 59.9688 168.449 59.8086 169.623C59.6484 170.744 59.5684 171.465 59.5684 171.785C59.6217 171.785 59.6751 171.732 59.7285 171.625C59.8353 171.518 59.9154 171.438 59.9688 171.385C63.2786 168.182 65.6009 164.738 66.9355 161.055C68.3236 157.318 69.1243 153.234 69.3379 148.803ZM100.408 209.021C100.301 207.9 100.221 206.539 100.168 204.938C100.168 203.336 100.168 201.654 100.168 199.893C100.168 198.131 100.168 196.342 100.168 194.527C100.221 192.712 100.301 191.057 100.408 189.562V186.68C100.141 186.306 99.821 185.932 99.4473 185.559C99.0736 185.132 98.4062 184.331 97.4453 183.156C96.5378 181.928 95.2298 180.14 93.5215 177.791C91.8132 175.389 89.5176 172.052 86.6348 167.781C85.5137 166.607 84.793 165.646 84.4727 164.898C84.1523 164.098 84.0456 163.457 84.1523 162.977C84.2591 162.496 84.526 162.149 84.9531 161.936C85.4336 161.722 85.8874 161.615 86.3145 161.615C87.3822 161.615 88.3431 161.855 89.1973 162.336C90.0514 162.816 90.8255 163.43 91.5195 164.178C92.2135 164.925 92.8275 165.753 93.3613 166.66C93.9486 167.514 94.5091 168.342 95.043 169.143C95.3633 169.623 95.7637 170.237 96.2441 170.984C96.7246 171.732 97.2051 172.479 97.6855 173.227C98.166 173.921 98.5664 174.535 98.8867 175.068C99.2604 175.602 99.4473 175.869 99.4473 175.869L100.408 176.91V168.502C100.408 165.833 100.355 163.243 100.248 160.734C100.141 158.172 100.088 155.583 100.088 152.967C100.088 152.219 100.355 151.605 100.889 151.125C101.423 150.645 102.063 150.431 102.811 150.484C103.718 150.591 104.385 150.751 104.812 150.965C105.293 151.178 105.773 151.605 106.254 152.246C106.681 152.833 106.868 153.527 106.814 154.328C106.814 155.129 106.841 155.903 106.895 156.65C107.108 161.722 107.268 166.794 107.375 171.865C107.535 176.883 107.615 181.928 107.615 187C107.562 187.48 107.535 188.441 107.535 189.883C107.535 191.378 107.535 193.059 107.535 194.928C107.589 196.796 107.615 198.745 107.615 200.773C107.669 202.802 107.695 204.644 107.695 206.299C107.749 208.007 107.775 209.395 107.775 210.463C107.829 211.584 107.882 212.118 107.936 212.064C107.936 212.865 107.642 213.452 107.055 213.826C106.521 214.2 105.854 214.387 105.053 214.387C103.985 214.387 103.184 214.227 102.65 213.906C102.17 213.639 101.796 213.239 101.529 212.705C101.262 212.225 101.076 211.664 100.969 211.023C100.862 210.383 100.675 209.715 100.408 209.021ZM152.299 163.617C151.551 163.617 150.884 163.804 150.297 164.178C149.71 164.551 149.016 164.738 148.215 164.738C148.108 164.738 147.814 164.738 147.334 164.738C146.907 164.685 146.64 164.658 146.533 164.658C146.32 164.391 146.079 164.178 145.812 164.018C145.546 163.857 145.279 163.697 145.012 163.537C144.745 163.324 144.505 163.083 144.291 162.816C144.131 162.549 144.051 162.176 144.051 161.695C144.051 160.895 144.371 160.254 145.012 159.773C145.652 159.24 146.4 158.786 147.254 158.412C148.108 158.038 148.962 157.691 149.816 157.371C150.724 157.051 151.445 156.677 151.979 156.25V152.727C151.979 148.776 151.792 144.826 151.418 140.875C151.044 136.871 150.857 132.921 150.857 129.023C150.857 127.956 151.124 127.262 151.658 126.941C152.192 126.621 152.913 126.461 153.82 126.461C154.888 126.461 155.662 126.781 156.143 127.422C156.676 128.009 157.05 128.757 157.264 129.664C157.477 130.518 157.584 131.452 157.584 132.467C157.584 133.428 157.611 134.255 157.664 134.949C157.664 135.643 157.717 136.871 157.824 138.633C157.931 140.395 158.038 142.263 158.145 144.238C158.251 146.214 158.358 148.082 158.465 149.844C158.572 151.605 158.652 152.833 158.705 153.527C158.919 153.474 159.319 153.34 159.906 153.127C160.547 152.86 161.214 152.62 161.908 152.406C162.602 152.139 163.243 151.899 163.83 151.686C164.471 151.472 164.924 151.312 165.191 151.205C166.579 150.618 168.021 149.977 169.516 149.283C171.01 148.536 172.532 148.162 174.08 148.162C175.148 148.162 175.949 148.536 176.482 149.283C177.07 149.977 177.363 150.805 177.363 151.766C177.363 152.46 177.096 152.967 176.562 153.287C176.029 153.607 175.468 153.901 174.881 154.168L160.307 159.613C160.146 159.72 159.986 159.827 159.826 159.934C159.666 159.987 159.506 160.094 159.346 160.254V162.816C159.346 164.685 159.372 166.633 159.426 168.662C159.533 170.637 159.719 172.559 159.986 174.428C160.253 176.029 160.547 177.604 160.867 179.152C161.188 180.701 161.348 182.275 161.348 183.877C161.348 184.357 161.188 184.998 160.867 185.799C160.547 186.6 160.04 187 159.346 187C157.904 187 156.73 186.573 155.822 185.719C154.915 184.865 154.408 183.717 154.301 182.275C154.034 179.499 153.74 176.456 153.42 173.146C153.153 169.837 152.886 166.66 152.619 163.617H152.299ZM180.166 174.748L183.129 154.168C183.236 153.474 183.529 152.967 184.01 152.646C184.544 152.326 185.131 152.166 185.771 152.166C186.946 152.166 187.88 152.513 188.574 153.207C189.268 153.848 189.855 154.648 190.336 155.609H190.416C191.057 155.609 191.617 155.503 192.098 155.289C192.632 155.022 193.272 154.889 194.02 154.889C195.728 154.889 197.169 155.423 198.344 156.49C199.572 157.558 200.559 158.866 201.307 160.414C202.054 161.909 202.588 163.537 202.908 165.299C203.282 167.061 203.469 168.609 203.469 169.943C203.469 171.545 203.042 173.333 202.188 175.309C201.387 177.284 200.292 179.152 198.904 180.914C197.57 182.676 196.048 184.144 194.34 185.318C192.632 186.493 190.896 187.08 189.135 187.08C187.533 187.08 186.145 186.706 184.971 185.959C183.85 185.212 182.915 184.277 182.168 183.156C181.474 181.982 180.967 180.674 180.646 179.232C180.326 177.791 180.166 176.376 180.166 174.988V174.748ZM186.893 175.229C186.999 175.762 187.106 176.376 187.213 177.07C187.32 177.764 187.48 178.405 187.693 178.992C187.907 179.526 188.201 179.953 188.574 180.273C189.001 180.54 189.589 180.54 190.336 180.273C191.03 179.633 191.777 178.912 192.578 178.111C193.379 177.311 194.126 176.456 194.82 175.549C195.568 174.641 196.182 173.68 196.662 172.666C197.143 171.652 197.383 170.584 197.383 169.463C197.596 167.648 197.463 165.993 196.982 164.498C196.502 162.95 195.808 161.855 194.9 161.215C194.046 160.521 193.059 160.441 191.938 160.975C190.816 161.455 189.695 162.816 188.574 165.059C187.934 166.447 187.48 168.075 187.213 169.943C186.999 171.758 186.893 173.44 186.893 174.988V175.229Z" fill="#771EA8"/>
<path d="M11.66 351V336.1H16.54C18.0467 336.1 19.36 336.407 20.48 337.02C21.6 337.633 22.4667 338.5 23.08 339.62C23.6933 340.727 24 342.033 24 343.54C24 345.033 23.6933 346.34 23.08 347.46C22.4667 348.58 21.6 349.453 20.48 350.08C19.36 350.693 18.0467 351 16.54 351H11.66ZM13.62 349.2H16.56C17.6667 349.2 18.62 348.967 19.42 348.5C20.2333 348.033 20.86 347.38 21.3 346.54C21.74 345.687 21.96 344.687 21.96 343.54C21.96 342.38 21.7333 341.38 21.28 340.54C20.84 339.7 20.2133 339.053 19.4 338.6C18.6 338.133 17.6533 337.9 16.56 337.9H13.62V349.2ZM26.2642 351V340.22H28.1242V351H26.2642ZM26.2642 338.5V336.1H28.1242V338.5H26.2642ZM34.8703 351.24C33.7903 351.24 32.8503 350.973 32.0503 350.44C31.2503 349.907 30.6836 349.187 30.3503 348.28L31.8303 347.56C32.137 348.2 32.557 348.707 33.0903 349.08C33.6236 349.453 34.217 349.64 34.8703 349.64C35.457 349.64 35.9436 349.5 36.3303 349.22C36.717 348.94 36.9103 348.573 36.9103 348.12C36.9103 347.8 36.817 347.547 36.6303 347.36C36.457 347.16 36.2436 347.007 35.9903 346.9C35.737 346.78 35.5036 346.693 35.2903 346.64L33.6703 346.18C32.697 345.9 31.9836 345.5 31.5303 344.98C31.0903 344.46 30.8703 343.853 30.8703 343.16C30.8703 342.52 31.0303 341.967 31.3503 341.5C31.6836 341.02 32.1303 340.647 32.6903 340.38C33.2636 340.113 33.9036 339.98 34.6103 339.98C35.557 339.98 36.4036 340.22 37.1503 340.7C37.9103 341.18 38.4503 341.853 38.7703 342.72L37.2503 343.42C37.0103 342.86 36.6503 342.42 36.1703 342.1C35.6903 341.767 35.1503 341.6 34.5503 341.6C34.0036 341.6 33.5703 341.74 33.2503 342.02C32.9303 342.287 32.7703 342.627 32.7703 343.04C32.7703 343.347 32.8503 343.6 33.0103 343.8C33.1703 343.987 33.3636 344.133 33.5903 344.24C33.817 344.333 34.037 344.413 34.2503 344.48L36.0103 345C36.8903 345.253 37.5703 345.647 38.0503 346.18C38.5436 346.713 38.7903 347.353 38.7903 348.1C38.7903 348.7 38.6236 349.24 38.2903 349.72C37.957 350.2 37.497 350.573 36.9103 350.84C36.3236 351.107 35.6436 351.24 34.8703 351.24ZM46.2252 351.24C45.1718 351.24 44.2318 350.993 43.4052 350.5C42.5918 350.007 41.9518 349.333 41.4852 348.48C41.0185 347.627 40.7852 346.667 40.7852 345.6C40.7852 344.52 41.0185 343.56 41.4852 342.72C41.9518 341.88 42.5918 341.213 43.4052 340.72C44.2318 340.227 45.1718 339.98 46.2252 339.98C46.9318 339.98 47.5918 340.107 48.2052 340.36C48.8185 340.613 49.3585 340.953 49.8252 341.38C50.2918 341.807 50.6318 342.307 50.8452 342.88L49.1852 343.68C48.9318 343.12 48.5452 342.667 48.0252 342.32C47.5052 341.96 46.9052 341.78 46.2252 341.78C45.5718 341.78 44.9785 341.947 44.4452 342.28C43.9252 342.613 43.5118 343.067 43.2052 343.64C42.8985 344.213 42.7452 344.873 42.7452 345.62C42.7452 346.34 42.8985 346.993 43.2052 347.58C43.5118 348.153 43.9252 348.607 44.4452 348.94C44.9785 349.273 45.5718 349.44 46.2252 349.44C46.9052 349.44 47.5052 349.267 48.0252 348.92C48.5452 348.56 48.9318 348.087 49.1852 347.5L50.8452 348.34C50.6318 348.9 50.2918 349.4 49.8252 349.84C49.3585 350.267 48.8185 350.607 48.2052 350.86C47.5918 351.113 46.9318 351.24 46.2252 351.24ZM58.3959 351.24C57.3559 351.24 56.4159 351 55.5759 350.52C54.7359 350.027 54.0693 349.353 53.5759 348.5C53.0826 347.647 52.8359 346.68 52.8359 345.6C52.8359 344.52 53.0759 343.56 53.5559 342.72C54.0493 341.88 54.7159 341.213 55.5559 340.72C56.3959 340.227 57.3426 339.98 58.3959 339.98C59.4359 339.98 60.3759 340.227 61.2159 340.72C62.0559 341.2 62.7159 341.86 63.1959 342.7C63.6893 343.54 63.9359 344.507 63.9359 345.6C63.9359 346.693 63.6826 347.667 63.1759 348.52C62.6693 349.36 61.9959 350.027 61.1559 350.52C60.3293 351 59.4093 351.24 58.3959 351.24ZM58.3959 349.44C59.0626 349.44 59.6626 349.273 60.1959 348.94C60.7426 348.607 61.1693 348.147 61.4759 347.56C61.7959 346.973 61.9559 346.32 61.9559 345.6C61.9559 344.867 61.7959 344.22 61.4759 343.66C61.1693 343.087 60.7426 342.633 60.1959 342.3C59.6626 341.953 59.0626 341.78 58.3959 341.78C57.7159 341.78 57.1026 341.953 56.5559 342.3C56.0226 342.633 55.5959 343.087 55.2759 343.66C54.9559 344.22 54.7959 344.867 54.7959 345.6C54.7959 346.32 54.9559 346.973 55.2759 347.56C55.5959 348.147 56.0226 348.607 56.5559 348.94C57.1026 349.273 57.7159 349.44 58.3959 349.44ZM69.1666 351L64.9466 340.22H67.0266L70.4066 349.34H69.6866L73.0866 340.22H75.1666L70.9266 351H69.1666ZM81.5953 351.24C80.5553 351.24 79.6286 350.993 78.8153 350.5C78.002 350.007 77.362 349.333 76.8953 348.48C76.4286 347.613 76.1953 346.647 76.1953 345.58C76.1953 344.5 76.422 343.54 76.8753 342.7C77.342 341.86 77.9686 341.2 78.7553 340.72C79.5553 340.227 80.4486 339.98 81.4353 339.98C82.2353 339.98 82.942 340.127 83.5553 340.42C84.182 340.7 84.7086 341.087 85.1353 341.58C85.5753 342.06 85.9086 342.613 86.1353 343.24C86.3753 343.853 86.4953 344.493 86.4953 345.16C86.4953 345.307 86.482 345.473 86.4553 345.66C86.442 345.833 86.422 346 86.3953 346.16H77.5553V344.56H85.3153L84.4353 345.28C84.5553 344.587 84.4886 343.967 84.2353 343.42C83.982 342.873 83.6086 342.44 83.1153 342.12C82.622 341.8 82.062 341.64 81.4353 341.64C80.8086 341.64 80.2353 341.8 79.7153 342.12C79.1953 342.44 78.7886 342.9 78.4953 343.5C78.2153 344.087 78.102 344.787 78.1553 345.6C78.102 346.387 78.222 347.08 78.5153 347.68C78.822 348.267 79.2486 348.727 79.7953 349.06C80.3553 349.38 80.962 349.54 81.6153 349.54C82.3353 349.54 82.942 349.373 83.4353 349.04C83.9286 348.707 84.3286 348.28 84.6353 347.76L86.1953 348.56C85.982 349.053 85.6486 349.507 85.1953 349.92C84.7553 350.32 84.2286 350.64 83.6153 350.88C83.0153 351.12 82.342 351.24 81.5953 351.24ZM88.9205 351V340.22H90.7405V342.2L90.5405 341.92C90.7938 341.307 91.1805 340.853 91.7005 340.56C92.2205 340.253 92.8538 340.1 93.6005 340.1H94.2605V341.86H93.3205C92.5605 341.86 91.9471 342.1 91.4805 342.58C91.0138 343.047 90.7805 343.713 90.7805 344.58V351H88.9205ZM102.19 351V337.9H98.1497V336.1H108.15V337.9H104.17V351H102.19ZM113.533 351.24C112.493 351.24 111.553 351 110.713 350.52C109.873 350.027 109.206 349.353 108.713 348.5C108.219 347.647 107.973 346.68 107.973 345.6C107.973 344.52 108.213 343.56 108.693 342.72C109.186 341.88 109.853 341.213 110.693 340.72C111.533 340.227 112.479 339.98 113.533 339.98C114.573 339.98 115.513 340.227 116.353 340.72C117.193 341.2 117.853 341.86 118.333 342.7C118.826 343.54 119.073 344.507 119.073 345.6C119.073 346.693 118.819 347.667 118.313 348.52C117.806 349.36 117.133 350.027 116.293 350.52C115.466 351 114.546 351.24 113.533 351.24ZM113.533 349.44C114.199 349.44 114.799 349.273 115.333 348.94C115.879 348.607 116.306 348.147 116.613 347.56C116.933 346.973 117.093 346.32 117.093 345.6C117.093 344.867 116.933 344.22 116.613 343.66C116.306 343.087 115.879 342.633 115.333 342.3C114.799 341.953 114.199 341.78 113.533 341.78C112.853 341.78 112.239 341.953 111.693 342.3C111.159 342.633 110.733 343.087 110.413 343.66C110.093 344.22 109.933 344.867 109.933 345.6C109.933 346.32 110.093 346.973 110.413 347.56C110.733 348.147 111.159 348.607 111.693 348.94C112.239 349.273 112.853 349.44 113.533 349.44ZM121.499 355V340.22H123.319V342.54L123.079 342.08C123.479 341.44 124.025 340.933 124.719 340.56C125.412 340.173 126.205 339.98 127.099 339.98C128.112 339.98 129.019 340.227 129.819 340.72C130.632 341.213 131.272 341.887 131.739 342.74C132.205 343.58 132.439 344.54 132.439 345.62C132.439 346.673 132.205 347.627 131.739 348.48C131.272 349.333 130.632 350.007 129.819 350.5C129.019 350.993 128.105 351.24 127.079 351.24C126.212 351.24 125.419 351.047 124.699 350.66C123.992 350.273 123.445 349.727 123.059 349.02L123.359 348.7V355H121.499ZM126.939 349.44C127.619 349.44 128.225 349.273 128.759 348.94C129.292 348.607 129.705 348.153 129.999 347.58C130.305 346.993 130.459 346.34 130.459 345.62C130.459 344.873 130.305 344.22 129.999 343.66C129.705 343.087 129.292 342.633 128.759 342.3C128.225 341.953 127.619 341.78 126.939 341.78C126.259 341.78 125.645 341.947 125.099 342.28C124.565 342.613 124.139 343.073 123.819 343.66C123.512 344.233 123.359 344.887 123.359 345.62C123.359 346.34 123.512 346.993 123.819 347.58C124.139 348.153 124.565 348.607 125.099 348.94C125.645 349.273 126.259 349.44 126.939 349.44ZM135.018 346.46V344.76H142.518V346.46H135.018ZM145.522 351V340.22H147.342V342.32L147.042 342.14C147.309 341.46 147.735 340.933 148.322 340.56C148.922 340.173 149.622 339.98 150.422 339.98C151.195 339.98 151.882 340.153 152.482 340.5C153.095 340.847 153.575 341.327 153.922 341.94C154.282 342.553 154.462 343.247 154.462 344.02V351H152.582V344.62C152.582 344.02 152.475 343.513 152.262 343.1C152.049 342.687 151.742 342.367 151.342 342.14C150.955 341.9 150.509 341.78 150.002 341.78C149.495 341.78 149.042 341.9 148.642 342.14C148.255 342.367 147.949 342.693 147.722 343.12C147.495 343.533 147.382 344.033 147.382 344.62V351H145.522ZM162.244 351.24C161.204 351.24 160.264 351 159.424 350.52C158.584 350.027 157.917 349.353 157.424 348.5C156.93 347.647 156.684 346.68 156.684 345.6C156.684 344.52 156.924 343.56 157.404 342.72C157.897 341.88 158.564 341.213 159.404 340.72C160.244 340.227 161.19 339.98 162.244 339.98C163.284 339.98 164.224 340.227 165.064 340.72C165.904 341.2 166.564 341.86 167.044 342.7C167.537 343.54 167.784 344.507 167.784 345.6C167.784 346.693 167.53 347.667 167.024 348.52C166.517 349.36 165.844 350.027 165.004 350.52C164.177 351 163.257 351.24 162.244 351.24ZM162.244 349.44C162.91 349.44 163.51 349.273 164.044 348.94C164.59 348.607 165.017 348.147 165.324 347.56C165.644 346.973 165.804 346.32 165.804 345.6C165.804 344.867 165.644 344.22 165.324 343.66C165.017 343.087 164.59 342.633 164.044 342.3C163.51 341.953 162.91 341.78 162.244 341.78C161.564 341.78 160.95 341.953 160.404 342.3C159.87 342.633 159.444 343.087 159.124 343.66C158.804 344.22 158.644 344.867 158.644 345.6C158.644 346.32 158.804 346.973 159.124 347.56C159.444 348.147 159.87 348.607 160.404 348.94C160.95 349.273 161.564 349.44 162.244 349.44ZM174.394 351.12C173.341 351.12 172.528 350.82 171.954 350.22C171.394 349.62 171.114 348.773 171.114 347.68V342H169.154V340.22H169.554C170.034 340.22 170.414 340.073 170.694 339.78C170.974 339.487 171.114 339.1 171.114 338.62V337.74H172.974V340.22H175.394V342H172.974V347.62C172.974 347.98 173.028 348.293 173.134 348.56C173.254 348.827 173.448 349.04 173.714 349.2C173.981 349.347 174.334 349.42 174.774 349.42C174.868 349.42 174.981 349.413 175.114 349.4C175.261 349.387 175.394 349.373 175.514 349.36V351C175.341 351.04 175.148 351.067 174.934 351.08C174.721 351.107 174.541 351.12 174.394 351.12ZM182.651 351.24C181.598 351.24 180.658 350.993 179.831 350.5C179.018 350.007 178.378 349.333 177.911 348.48C177.444 347.627 177.211 346.667 177.211 345.6C177.211 344.52 177.444 343.56 177.911 342.72C178.378 341.88 179.018 341.213 179.831 340.72C180.658 340.227 181.598 339.98 182.651 339.98C183.358 339.98 184.018 340.107 184.631 340.36C185.244 340.613 185.784 340.953 186.251 341.38C186.718 341.807 187.058 342.307 187.271 342.88L185.611 343.68C185.358 343.12 184.971 342.667 184.451 342.32C183.931 341.96 183.331 341.78 182.651 341.78C181.998 341.78 181.404 341.947 180.871 342.28C180.351 342.613 179.938 343.067 179.631 343.64C179.324 344.213 179.171 344.873 179.171 345.62C179.171 346.34 179.324 346.993 179.631 347.58C179.938 348.153 180.351 348.607 180.871 348.94C181.404 349.273 181.998 349.44 182.651 349.44C183.331 349.44 183.931 349.267 184.451 348.92C184.971 348.56 185.358 348.087 185.611 347.5L187.271 348.34C187.058 348.9 186.718 349.4 186.251 349.84C185.784 350.267 185.244 350.607 184.631 350.86C184.018 351.113 183.358 351.24 182.651 351.24ZM189.702 351V335.86H191.562V342.32L191.222 342.14C191.488 341.46 191.915 340.933 192.502 340.56C193.102 340.173 193.802 339.98 194.602 339.98C195.375 339.98 196.062 340.153 196.662 340.5C197.275 340.847 197.755 341.327 198.102 341.94C198.462 342.553 198.642 343.247 198.642 344.02V351H196.762V344.62C196.762 344.02 196.648 343.513 196.422 343.1C196.208 342.687 195.908 342.367 195.522 342.14C195.135 341.9 194.688 341.78 194.182 341.78C193.688 341.78 193.242 341.9 192.842 342.14C192.442 342.367 192.128 342.693 191.902 343.12C191.675 343.533 191.562 344.033 191.562 344.62V351H189.702ZM208.92 351L203.54 336.1H205.64L210.2 349.2H209.78L214.34 336.1H216.44L211.08 351H208.92ZM222.064 351.24C221.024 351.24 220.097 350.993 219.284 350.5C218.471 350.007 217.831 349.333 217.364 348.48C216.897 347.613 216.664 346.647 216.664 345.58C216.664 344.5 216.891 343.54 217.344 342.7C217.811 341.86 218.437 341.2 219.224 340.72C220.024 340.227 220.917 339.98 221.904 339.98C222.704 339.98 223.411 340.127 224.024 340.42C224.651 340.7 225.177 341.087 225.604 341.58C226.044 342.06 226.377 342.613 226.604 343.24C226.844 343.853 226.964 344.493 226.964 345.16C226.964 345.307 226.951 345.473 226.924 345.66C226.911 345.833 226.891 346 226.864 346.16H218.024V344.56H225.784L224.904 345.28C225.024 344.587 224.957 343.967 224.704 343.42C224.451 342.873 224.077 342.44 223.584 342.12C223.091 341.8 222.531 341.64 221.904 341.64C221.277 341.64 220.704 341.8 220.184 342.12C219.664 342.44 219.257 342.9 218.964 343.5C218.684 344.087 218.571 344.787 218.624 345.6C218.571 346.387 218.691 347.08 218.984 347.68C219.291 348.267 219.717 348.727 220.264 349.06C220.824 349.38 221.431 349.54 222.084 349.54C222.804 349.54 223.411 349.373 223.904 349.04C224.397 348.707 224.797 348.28 225.104 347.76L226.664 348.56C226.451 349.053 226.117 349.507 225.664 349.92C225.224 350.32 224.697 350.64 224.084 350.88C223.484 351.12 222.811 351.24 222.064 351.24ZM229.389 351V340.22H231.209V342.32L230.909 342.14C231.176 341.46 231.603 340.933 232.189 340.56C232.789 340.173 233.489 339.98 234.289 339.98C235.063 339.98 235.749 340.153 236.349 340.5C236.963 340.847 237.443 341.327 237.789 341.94C238.149 342.553 238.329 343.247 238.329 344.02V351H236.449V344.62C236.449 344.02 236.343 343.513 236.129 343.1C235.916 342.687 235.609 342.367 235.209 342.14C234.823 341.9 234.376 341.78 233.869 341.78C233.363 341.78 232.909 341.9 232.509 342.14C232.123 342.367 231.816 342.693 231.589 343.12C231.363 343.533 231.249 344.033 231.249 344.62V351H229.389ZM245.891 351.24C244.877 351.24 243.964 350.993 243.151 350.5C242.351 350.007 241.717 349.333 241.251 348.48C240.784 347.627 240.551 346.673 240.551 345.62C240.551 344.54 240.784 343.58 241.251 342.74C241.717 341.887 242.351 341.213 243.151 340.72C243.964 340.227 244.877 339.98 245.891 339.98C246.784 339.98 247.577 340.173 248.271 340.56C248.964 340.933 249.511 341.44 249.911 342.08L249.611 342.54V335.86H251.491V351H249.671V348.7L249.911 349.02C249.537 349.727 248.991 350.273 248.271 350.66C247.564 351.047 246.771 351.24 245.891 351.24ZM246.051 349.44C246.731 349.44 247.337 349.273 247.871 348.94C248.404 348.607 248.824 348.153 249.131 347.58C249.451 346.993 249.611 346.34 249.611 345.62C249.611 344.887 249.451 344.233 249.131 343.66C248.824 343.073 248.404 342.613 247.871 342.28C247.337 341.947 246.731 341.78 246.051 341.78C245.384 341.78 244.777 341.953 244.231 342.3C243.697 342.633 243.277 343.087 242.971 343.66C242.664 344.22 242.511 344.873 242.511 345.62C242.511 346.34 242.664 346.993 242.971 347.58C243.277 348.153 243.697 348.607 244.231 348.94C244.764 349.273 245.371 349.44 246.051 349.44ZM259.49 351.24C258.45 351.24 257.51 351 256.67 350.52C255.83 350.027 255.163 349.353 254.67 348.5C254.176 347.647 253.93 346.68 253.93 345.6C253.93 344.52 254.17 343.56 254.65 342.72C255.143 341.88 255.81 341.213 256.65 340.72C257.49 340.227 258.436 339.98 259.49 339.98C260.53 339.98 261.47 340.227 262.31 340.72C263.15 341.2 263.81 341.86 264.29 342.7C264.783 343.54 265.03 344.507 265.03 345.6C265.03 346.693 264.776 347.667 264.27 348.52C263.763 349.36 263.09 350.027 262.25 350.52C261.423 351 260.503 351.24 259.49 351.24ZM259.49 349.44C260.156 349.44 260.756 349.273 261.29 348.94C261.836 348.607 262.263 348.147 262.57 347.56C262.89 346.973 263.05 346.32 263.05 345.6C263.05 344.867 262.89 344.22 262.57 343.66C262.263 343.087 261.836 342.633 261.29 342.3C260.756 341.953 260.156 341.78 259.49 341.78C258.81 341.78 258.196 341.953 257.65 342.3C257.116 342.633 256.69 343.087 256.37 343.66C256.05 344.22 255.89 344.867 255.89 345.6C255.89 346.32 256.05 346.973 256.37 347.56C256.69 348.147 257.116 348.607 257.65 348.94C258.196 349.273 258.81 349.44 259.49 349.44ZM267.456 351V340.22H269.276V342.2L269.076 341.92C269.329 341.307 269.716 340.853 270.236 340.56C270.756 340.253 271.389 340.1 272.136 340.1H272.796V341.86H271.856C271.096 341.86 270.482 342.1 270.016 342.58C269.549 343.047 269.316 343.713 269.316 344.58V351H267.456ZM278.308 351.24C277.228 351.24 276.288 350.973 275.488 350.44C274.688 349.907 274.121 349.187 273.788 348.28L275.268 347.56C275.574 348.2 275.994 348.707 276.528 349.08C277.061 349.453 277.654 349.64 278.308 349.64C278.894 349.64 279.381 349.5 279.768 349.22C280.154 348.94 280.348 348.573 280.348 348.12C280.348 347.8 280.254 347.547 280.068 347.36C279.894 347.16 279.681 347.007 279.428 346.9C279.174 346.78 278.941 346.693 278.728 346.64L277.108 346.18C276.134 345.9 275.421 345.5 274.968 344.98C274.528 344.46 274.308 343.853 274.308 343.16C274.308 342.52 274.468 341.967 274.788 341.5C275.121 341.02 275.568 340.647 276.128 340.38C276.701 340.113 277.341 339.98 278.048 339.98C278.994 339.98 279.841 340.22 280.588 340.7C281.348 341.18 281.888 341.853 282.208 342.72L280.688 343.42C280.448 342.86 280.088 342.42 279.608 342.1C279.128 341.767 278.588 341.6 277.988 341.6C277.441 341.6 277.008 341.74 276.688 342.02C276.368 342.287 276.208 342.627 276.208 343.04C276.208 343.347 276.288 343.6 276.448 343.8C276.608 343.987 276.801 344.133 277.028 344.24C277.254 344.333 277.474 344.413 277.688 344.48L279.448 345C280.328 345.253 281.008 345.647 281.488 346.18C281.981 346.713 282.228 347.353 282.228 348.1C282.228 348.7 282.061 349.24 281.728 349.72C281.394 350.2 280.934 350.573 280.348 350.84C279.761 351.107 279.081 351.24 278.308 351.24ZM284.983 353.78V352.88C285.396 352.773 285.709 352.567 285.923 352.26C286.136 351.953 286.256 351.533 286.283 351H285.383V348.6H287.323V350.3C287.323 351.26 287.123 352.033 286.723 352.62C286.336 353.207 285.756 353.593 284.983 353.78ZM294.316 351V336.1H300.576C301.47 336.1 302.236 336.26 302.876 336.58C303.53 336.9 304.03 337.353 304.376 337.94C304.736 338.513 304.916 339.2 304.916 340C304.916 340.733 304.723 341.4 304.336 342C303.963 342.587 303.41 343.047 302.676 343.38L302.656 342.64C303.296 342.88 303.823 343.2 304.236 343.6C304.663 343.987 304.983 344.44 305.196 344.96C305.41 345.467 305.516 346.007 305.516 346.58C305.516 347.953 305.076 349.033 304.196 349.82C303.316 350.607 302.116 351 300.596 351H294.316ZM296.276 349.2H300.676C301.543 349.2 302.236 348.967 302.756 348.5C303.276 348.033 303.536 347.4 303.536 346.6C303.536 345.8 303.276 345.167 302.756 344.7C302.236 344.22 301.543 343.98 300.676 343.98H296.276V349.2ZM296.276 342.22H300.536C301.256 342.22 301.836 342.013 302.276 341.6C302.716 341.173 302.936 340.633 302.936 339.98C302.936 339.3 302.716 338.78 302.276 338.42C301.836 338.06 301.256 337.88 300.536 337.88H296.276V342.22ZM311.764 351.24C310.991 351.24 310.291 351.06 309.664 350.7C309.051 350.34 308.571 349.84 308.224 349.2C307.891 348.547 307.724 347.8 307.724 346.96V340.22H309.584V346.76C309.584 347.293 309.691 347.76 309.904 348.16C310.131 348.56 310.437 348.873 310.824 349.1C311.224 349.327 311.677 349.44 312.184 349.44C312.691 349.44 313.137 349.327 313.524 349.1C313.924 348.873 314.231 348.547 314.444 348.12C314.671 347.693 314.784 347.187 314.784 346.6V340.22H316.664V351H314.844V348.9L315.144 349.08C314.891 349.76 314.457 350.293 313.844 350.68C313.244 351.053 312.551 351.24 311.764 351.24ZM324.445 351.24C323.432 351.24 322.519 350.993 321.705 350.5C320.905 350.007 320.272 349.333 319.805 348.48C319.339 347.627 319.105 346.673 319.105 345.62C319.105 344.54 319.339 343.58 319.805 342.74C320.272 341.887 320.905 341.213 321.705 340.72C322.519 340.227 323.432 339.98 324.445 339.98C325.339 339.98 326.132 340.173 326.825 340.56C327.519 340.933 328.065 341.44 328.465 342.08L328.165 342.54V335.86H330.045V351H328.225V348.7L328.465 349.02C328.092 349.727 327.545 350.273 326.825 350.66C326.119 351.047 325.325 351.24 324.445 351.24ZM324.605 349.44C325.285 349.44 325.892 349.273 326.425 348.94C326.959 348.607 327.379 348.153 327.685 347.58C328.005 346.993 328.165 346.34 328.165 345.62C328.165 344.887 328.005 344.233 327.685 343.66C327.379 343.073 326.959 342.613 326.425 342.28C325.892 341.947 325.285 341.78 324.605 341.78C323.939 341.78 323.332 341.953 322.785 342.3C322.252 342.633 321.832 343.087 321.525 343.66C321.219 344.22 321.065 344.873 321.065 345.62C321.065 346.34 321.219 346.993 321.525 347.58C321.832 348.153 322.252 348.607 322.785 348.94C323.319 349.273 323.925 349.44 324.605 349.44ZM338.064 355.4C337.304 355.4 336.598 355.28 335.944 355.04C335.304 354.8 334.751 354.467 334.284 354.04C333.831 353.627 333.484 353.14 333.244 352.58L334.984 351.78C335.171 352.287 335.524 352.713 336.044 353.06C336.578 353.42 337.244 353.6 338.044 353.6C338.658 353.6 339.211 353.48 339.704 353.24C340.211 353.013 340.611 352.667 340.904 352.2C341.198 351.747 341.344 351.193 341.344 350.54V348.12L341.684 348.48C341.311 349.213 340.771 349.773 340.064 350.16C339.371 350.547 338.604 350.74 337.764 350.74C336.751 350.74 335.844 350.507 335.044 350.04C334.244 349.56 333.618 348.913 333.164 348.1C332.711 347.273 332.484 346.36 332.484 345.36C332.484 344.347 332.711 343.433 333.164 342.62C333.618 341.807 334.238 341.167 335.024 340.7C335.824 340.22 336.731 339.98 337.744 339.98C338.584 339.98 339.344 340.173 340.024 340.56C340.718 340.933 341.271 341.453 341.684 342.12L341.404 342.62V340.22H343.224V350.54C343.224 351.473 343.004 352.307 342.564 353.04C342.124 353.773 341.511 354.347 340.724 354.76C339.951 355.187 339.064 355.4 338.064 355.4ZM337.924 348.94C338.564 348.94 339.138 348.78 339.644 348.46C340.164 348.14 340.578 347.713 340.884 347.18C341.191 346.633 341.344 346.027 341.344 345.36C341.344 344.707 341.191 344.107 340.884 343.56C340.578 343.013 340.164 342.58 339.644 342.26C339.138 341.94 338.564 341.78 337.924 341.78C337.271 341.78 336.678 341.94 336.144 342.26C335.611 342.58 335.191 343.013 334.884 343.56C334.591 344.093 334.444 344.693 334.444 345.36C334.444 346.027 334.591 346.633 334.884 347.18C335.191 347.713 335.604 348.14 336.124 348.46C336.658 348.78 337.258 348.94 337.924 348.94ZM351.068 351.24C350.028 351.24 349.101 350.993 348.288 350.5C347.475 350.007 346.835 349.333 346.368 348.48C345.901 347.613 345.668 346.647 345.668 345.58C345.668 344.5 345.895 343.54 346.348 342.7C346.815 341.86 347.441 341.2 348.228 340.72C349.028 340.227 349.921 339.98 350.908 339.98C351.708 339.98 352.415 340.127 353.028 340.42C353.655 340.7 354.181 341.087 354.608 341.58C355.048 342.06 355.381 342.613 355.608 343.24C355.848 343.853 355.968 344.493 355.968 345.16C355.968 345.307 355.955 345.473 355.928 345.66C355.915 345.833 355.895 346 355.868 346.16H347.028V344.56H354.788L353.908 345.28C354.028 344.587 353.961 343.967 353.708 343.42C353.455 342.873 353.081 342.44 352.588 342.12C352.095 341.8 351.535 341.64 350.908 341.64C350.281 341.64 349.708 341.8 349.188 342.12C348.668 342.44 348.261 342.9 347.968 343.5C347.688 344.087 347.575 344.787 347.628 345.6C347.575 346.387 347.695 347.08 347.988 347.68C348.295 348.267 348.721 348.727 349.268 349.06C349.828 349.38 350.435 349.54 351.088 349.54C351.808 349.54 352.415 349.373 352.908 349.04C353.401 348.707 353.801 348.28 354.108 347.76L355.668 348.56C355.455 349.053 355.121 349.507 354.668 349.92C354.228 350.32 353.701 350.64 353.088 350.88C352.488 351.12 351.815 351.24 351.068 351.24ZM362.773 351.12C361.72 351.12 360.906 350.82 360.333 350.22C359.773 349.62 359.493 348.773 359.493 347.68V342H357.533V340.22H357.933C358.413 340.22 358.793 340.073 359.073 339.78C359.353 339.487 359.493 339.1 359.493 338.62V337.74H361.353V340.22H363.773V342H361.353V347.62C361.353 347.98 361.406 348.293 361.513 348.56C361.633 348.827 361.826 349.04 362.093 349.2C362.36 349.347 362.713 349.42 363.153 349.42C363.246 349.42 363.36 349.413 363.493 349.4C363.64 349.387 363.773 349.373 363.893 349.36V351C363.72 351.04 363.526 351.067 363.313 351.08C363.1 351.107 362.92 351.12 362.773 351.12ZM370 351V336.1H371.96V349.2H378.5V351H370ZM380.483 351V340.22H382.343V351H380.483ZM380.483 338.5V336.1H382.343V338.5H380.483ZM385.229 351V335.86H387.089V346.24L386.329 346.06L392.049 340.22H394.429L390.289 344.56L394.709 351H392.509L388.469 345.16L389.629 345.1L386.489 348.38L387.089 347.02V351H385.229ZM401.146 351.24C400.106 351.24 399.179 350.993 398.366 350.5C397.553 350.007 396.913 349.333 396.446 348.48C395.979 347.613 395.746 346.647 395.746 345.58C395.746 344.5 395.973 343.54 396.426 342.7C396.893 341.86 397.519 341.2 398.306 340.72C399.106 340.227 399.999 339.98 400.986 339.98C401.786 339.98 402.493 340.127 403.106 340.42C403.733 340.7 404.259 341.087 404.686 341.58C405.126 342.06 405.459 342.613 405.686 343.24C405.926 343.853 406.046 344.493 406.046 345.16C406.046 345.307 406.033 345.473 406.006 345.66C405.993 345.833 405.973 346 405.946 346.16H397.106V344.56H404.866L403.986 345.28C404.106 344.587 404.039 343.967 403.786 343.42C403.533 342.873 403.159 342.44 402.666 342.12C402.173 341.8 401.613 341.64 400.986 341.64C400.359 341.64 399.786 341.8 399.266 342.12C398.746 342.44 398.339 342.9 398.046 343.5C397.766 344.087 397.653 344.787 397.706 345.6C397.653 346.387 397.773 347.08 398.066 347.68C398.373 348.267 398.799 348.727 399.346 349.06C399.906 349.38 400.513 349.54 401.166 349.54C401.886 349.54 402.493 349.373 402.986 349.04C403.479 348.707 403.879 348.28 404.186 347.76L405.746 348.56C405.533 349.053 405.199 349.507 404.746 349.92C404.306 350.32 403.779 350.64 403.166 350.88C402.566 351.12 401.893 351.24 401.146 351.24ZM415.088 351.24C414.382 351.24 413.755 351.113 413.208 350.86C412.675 350.593 412.255 350.233 411.948 349.78C411.642 349.313 411.488 348.78 411.488 348.18C411.488 347.607 411.608 347.093 411.848 346.64C412.102 346.173 412.488 345.78 413.008 345.46C413.542 345.14 414.208 344.913 415.008 344.78L419.008 344.12V345.68L415.428 346.28C414.735 346.4 414.228 346.62 413.908 346.94C413.602 347.26 413.448 347.653 413.448 348.12C413.448 348.56 413.622 348.927 413.968 349.22C414.328 349.513 414.775 349.66 415.308 349.66C415.988 349.66 416.575 349.52 417.068 349.24C417.575 348.947 417.968 348.553 418.248 348.06C418.542 347.567 418.688 347.02 418.688 346.42V343.68C418.688 343.093 418.468 342.62 418.028 342.26C417.602 341.887 417.035 341.7 416.328 341.7C415.715 341.7 415.168 341.86 414.688 342.18C414.222 342.487 413.875 342.9 413.648 343.42L412.028 342.58C412.228 342.087 412.548 341.647 412.988 341.26C413.428 340.86 413.942 340.547 414.528 340.32C415.115 340.093 415.728 339.98 416.368 339.98C417.195 339.98 417.922 340.14 418.548 340.46C419.175 340.767 419.662 341.2 420.008 341.76C420.368 342.307 420.548 342.947 420.548 343.68V351H418.728V348.96L419.068 349.08C418.842 349.507 418.535 349.88 418.148 350.2C417.762 350.52 417.308 350.773 416.788 350.96C416.268 351.147 415.702 351.24 415.088 351.24ZM427.109 351V336.1H432.369C433.356 336.1 434.223 336.287 434.969 336.66C435.716 337.033 436.296 337.567 436.709 338.26C437.136 338.953 437.349 339.767 437.349 340.7C437.349 341.633 437.136 342.447 436.709 343.14C436.296 343.82 435.716 344.353 434.969 344.74C434.236 345.113 433.369 345.3 432.369 345.3H429.069V351H427.109ZM429.069 343.5H432.429C433.029 343.5 433.549 343.387 433.989 343.16C434.429 342.933 434.769 342.607 435.009 342.18C435.249 341.753 435.369 341.26 435.369 340.7C435.369 340.127 435.249 339.633 435.009 339.22C434.769 338.793 434.429 338.467 433.989 338.24C433.549 338.013 433.029 337.9 432.429 337.9H429.069V343.5ZM439.78 351V340.22H441.6V342.2L441.4 341.92C441.653 341.307 442.04 340.853 442.56 340.56C443.08 340.253 443.713 340.1 444.46 340.1H445.12V341.86H444.18C443.42 341.86 442.807 342.1 442.34 342.58C441.873 343.047 441.64 343.713 441.64 344.58V351H439.78ZM451.892 351.24C450.852 351.24 449.912 351 449.072 350.52C448.232 350.027 447.565 349.353 447.072 348.5C446.579 347.647 446.332 346.68 446.332 345.6C446.332 344.52 446.572 343.56 447.052 342.72C447.545 341.88 448.212 341.213 449.052 340.72C449.892 340.227 450.839 339.98 451.892 339.98C452.932 339.98 453.872 340.227 454.712 340.72C455.552 341.2 456.212 341.86 456.692 342.7C457.185 343.54 457.432 344.507 457.432 345.6C457.432 346.693 457.179 347.667 456.672 348.52C456.165 349.36 455.492 350.027 454.652 350.52C453.825 351 452.905 351.24 451.892 351.24ZM451.892 349.44C452.559 349.44 453.159 349.273 453.692 348.94C454.239 348.607 454.665 348.147 454.972 347.56C455.292 346.973 455.452 346.32 455.452 345.6C455.452 344.867 455.292 344.22 454.972 343.66C454.665 343.087 454.239 342.633 453.692 342.3C453.159 341.953 452.559 341.78 451.892 341.78C451.212 341.78 450.599 341.953 450.052 342.3C449.519 342.633 449.092 343.087 448.772 343.66C448.452 344.22 448.292 344.867 448.292 345.6C448.292 346.32 448.452 346.973 448.772 347.56C449.092 348.147 449.519 348.607 450.052 348.94C450.599 349.273 451.212 349.44 451.892 349.44ZM460.178 353.78V352.88C460.591 352.773 460.905 352.567 461.118 352.26C461.331 351.953 461.451 351.533 461.478 351H460.578V348.6H462.518V350.3C462.518 351.26 462.318 352.033 461.918 352.62C461.531 353.207 460.951 353.593 460.178 353.78ZM472.452 351.24C471.745 351.24 471.118 351.113 470.572 350.86C470.038 350.593 469.618 350.233 469.312 349.78C469.005 349.313 468.852 348.78 468.852 348.18C468.852 347.607 468.972 347.093 469.212 346.64C469.465 346.173 469.852 345.78 470.372 345.46C470.905 345.14 471.572 344.913 472.372 344.78L476.372 344.12V345.68L472.792 346.28C472.098 346.4 471.592 346.62 471.272 346.94C470.965 347.26 470.812 347.653 470.812 348.12C470.812 348.56 470.985 348.927 471.332 349.22C471.692 349.513 472.138 349.66 472.672 349.66C473.352 349.66 473.938 349.52 474.432 349.24C474.938 348.947 475.332 348.553 475.612 348.06C475.905 347.567 476.052 347.02 476.052 346.42V343.68C476.052 343.093 475.832 342.62 475.392 342.26C474.965 341.887 474.398 341.7 473.692 341.7C473.078 341.7 472.532 341.86 472.052 342.18C471.585 342.487 471.238 342.9 471.012 343.42L469.392 342.58C469.592 342.087 469.912 341.647 470.352 341.26C470.792 340.86 471.305 340.547 471.892 340.32C472.478 340.093 473.092 339.98 473.732 339.98C474.558 339.98 475.285 340.14 475.912 340.46C476.538 340.767 477.025 341.2 477.372 341.76C477.732 342.307 477.912 342.947 477.912 343.68V351H476.092V348.96L476.432 349.08C476.205 349.507 475.898 349.88 475.512 350.2C475.125 350.52 474.672 350.773 474.152 350.96C473.632 351.147 473.065 351.24 472.452 351.24ZM480.795 351V340.22H482.615V342.32L482.315 342.14C482.582 341.46 483.009 340.933 483.595 340.56C484.195 340.173 484.895 339.98 485.695 339.98C486.469 339.98 487.155 340.153 487.755 340.5C488.369 340.847 488.849 341.327 489.195 341.94C489.555 342.553 489.735 343.247 489.735 344.02V351H487.855V344.62C487.855 344.02 487.749 343.513 487.535 343.1C487.322 342.687 487.015 342.367 486.615 342.14C486.229 341.9 485.782 341.78 485.275 341.78C484.769 341.78 484.315 341.9 483.915 342.14C483.529 342.367 483.222 342.693 482.995 343.12C482.769 343.533 482.655 344.033 482.655 344.62V351H480.795ZM497.297 351.24C496.284 351.24 495.37 350.993 494.557 350.5C493.757 350.007 493.124 349.333 492.657 348.48C492.19 347.627 491.957 346.673 491.957 345.62C491.957 344.54 492.19 343.58 492.657 342.74C493.124 341.887 493.757 341.213 494.557 340.72C495.37 340.227 496.284 339.98 497.297 339.98C498.19 339.98 498.984 340.173 499.677 340.56C500.37 340.933 500.917 341.44 501.317 342.08L501.017 342.54V335.86H502.897V351H501.077V348.7L501.317 349.02C500.944 349.727 500.397 350.273 499.677 350.66C498.97 351.047 498.177 351.24 497.297 351.24ZM497.457 349.44C498.137 349.44 498.744 349.273 499.277 348.94C499.81 348.607 500.23 348.153 500.537 347.58C500.857 346.993 501.017 346.34 501.017 345.62C501.017 344.887 500.857 344.233 500.537 343.66C500.23 343.073 499.81 342.613 499.277 342.28C498.744 341.947 498.137 341.78 497.457 341.78C496.79 341.78 496.184 341.953 495.637 342.3C495.104 342.633 494.684 343.087 494.377 343.66C494.07 344.22 493.917 344.873 493.917 345.62C493.917 346.34 494.07 346.993 494.377 347.58C494.684 348.153 495.104 348.607 495.637 348.94C496.17 349.273 496.777 349.44 497.457 349.44ZM512.053 351V337.9H508.013V336.1H518.013V337.9H514.033V351H512.053ZM521.651 351.24C520.944 351.24 520.317 351.113 519.771 350.86C519.237 350.593 518.817 350.233 518.511 349.78C518.204 349.313 518.051 348.78 518.051 348.18C518.051 347.607 518.171 347.093 518.411 346.64C518.664 346.173 519.051 345.78 519.571 345.46C520.104 345.14 520.771 344.913 521.571 344.78L525.571 344.12V345.68L521.991 346.28C521.297 346.4 520.791 346.62 520.471 346.94C520.164 347.26 520.011 347.653 520.011 348.12C520.011 348.56 520.184 348.927 520.531 349.22C520.891 349.513 521.337 349.66 521.871 349.66C522.551 349.66 523.137 349.52 523.631 349.24C524.137 348.947 524.531 348.553 524.811 348.06C525.104 347.567 525.251 347.02 525.251 346.42V343.68C525.251 343.093 525.031 342.62 524.591 342.26C524.164 341.887 523.597 341.7 522.891 341.7C522.277 341.7 521.731 341.86 521.251 342.18C520.784 342.487 520.437 342.9 520.211 343.42L518.591 342.58C518.791 342.087 519.111 341.647 519.551 341.26C519.991 340.86 520.504 340.547 521.091 340.32C521.677 340.093 522.291 339.98 522.931 339.98C523.757 339.98 524.484 340.14 525.111 340.46C525.737 340.767 526.224 341.2 526.571 341.76C526.931 342.307 527.111 342.947 527.111 343.68V351H525.291V348.96L525.631 349.08C525.404 349.507 525.097 349.88 524.711 350.2C524.324 350.52 523.871 350.773 523.351 350.96C522.831 351.147 522.264 351.24 521.651 351.24ZM529.995 351V340.22H531.815V342.42L531.555 342.08C531.821 341.4 532.248 340.88 532.835 340.52C533.421 340.16 534.081 339.98 534.815 339.98C535.655 339.98 536.408 340.213 537.075 340.68C537.755 341.147 538.221 341.76 538.475 342.52L537.955 342.54C538.235 341.7 538.708 341.067 539.375 340.64C540.041 340.2 540.781 339.98 541.595 339.98C542.341 339.98 543.015 340.153 543.615 340.5C544.228 340.847 544.715 341.327 545.075 341.94C545.435 342.553 545.615 343.247 545.615 344.02V351H543.735V344.62C543.735 344.02 543.628 343.513 543.415 343.1C543.201 342.687 542.908 342.367 542.535 342.14C542.175 341.9 541.748 341.78 541.255 341.78C540.775 341.78 540.341 341.9 539.955 342.14C539.581 342.367 539.281 342.693 539.055 343.12C538.841 343.533 538.735 344.033 538.735 344.62V351H536.855V344.62C536.855 344.02 536.748 343.513 536.535 343.1C536.321 342.687 536.028 342.367 535.655 342.14C535.295 341.9 534.868 341.78 534.375 341.78C533.895 341.78 533.461 341.9 533.075 342.14C532.701 342.367 532.401 342.693 532.175 343.12C531.961 343.533 531.855 344.033 531.855 344.62V351H529.995ZM553.216 351.24C552.176 351.24 551.25 350.993 550.436 350.5C549.623 350.007 548.983 349.333 548.516 348.48C548.05 347.613 547.816 346.647 547.816 345.58C547.816 344.5 548.043 343.54 548.496 342.7C548.963 341.86 549.59 341.2 550.376 340.72C551.176 340.227 552.07 339.98 553.056 339.98C553.856 339.98 554.563 340.127 555.176 340.42C555.803 340.7 556.33 341.087 556.756 341.58C557.196 342.06 557.53 342.613 557.756 343.24C557.996 343.853 558.116 344.493 558.116 345.16C558.116 345.307 558.103 345.473 558.076 345.66C558.063 345.833 558.043 346 558.016 346.16H549.176V344.56H556.936L556.056 345.28C556.176 344.587 556.11 343.967 555.856 343.42C555.603 342.873 555.23 342.44 554.736 342.12C554.243 341.8 553.683 341.64 553.056 341.64C552.43 341.64 551.856 341.8 551.336 342.12C550.816 342.44 550.41 342.9 550.116 343.5C549.836 344.087 549.723 344.787 549.776 345.6C549.723 346.387 549.843 347.08 550.136 347.68C550.443 348.267 550.87 348.727 551.416 349.06C551.976 349.38 552.583 349.54 553.236 349.54C553.956 349.54 554.563 349.373 555.056 349.04C555.55 348.707 555.95 348.28 556.256 347.76L557.816 348.56C557.603 349.053 557.27 349.507 556.816 349.92C556.376 350.32 555.85 350.64 555.236 350.88C554.636 351.12 553.963 351.24 553.216 351.24ZM14.26 385V371.9H10.22V370.1H20.22V371.9H16.24V385H14.26ZM21.8892 385V369.86H23.7492V376.32L23.4092 376.14C23.6759 375.46 24.1026 374.933 24.6892 374.56C25.2892 374.173 25.9892 373.98 26.7892 373.98C27.5626 373.98 28.2492 374.153 28.8492 374.5C29.4626 374.847 29.9426 375.327 30.2892 375.94C30.6492 376.553 30.8292 377.247 30.8292 378.02V385H28.9492V378.62C28.9492 378.02 28.8359 377.513 28.6092 377.1C28.3959 376.687 28.0959 376.367 27.7092 376.14C27.3226 375.9 26.8759 375.78 26.3692 375.78C25.8759 375.78 25.4292 375.9 25.0292 376.14C24.6292 376.367 24.3159 376.693 24.0892 377.12C23.8626 377.533 23.7492 378.033 23.7492 378.62V385H21.8892ZM38.6108 385.24C37.5708 385.24 36.6308 385 35.7908 384.52C34.9508 384.027 34.2841 383.353 33.7908 382.5C33.2974 381.647 33.0508 380.68 33.0508 379.6C33.0508 378.52 33.2908 377.56 33.7708 376.72C34.2641 375.88 34.9308 375.213 35.7708 374.72C36.6108 374.227 37.5574 373.98 38.6108 373.98C39.6508 373.98 40.5908 374.227 41.4308 374.72C42.2708 375.2 42.9308 375.86 43.4108 376.7C43.9041 377.54 44.1508 378.507 44.1508 379.6C44.1508 380.693 43.8974 381.667 43.3908 382.52C42.8841 383.36 42.2108 384.027 41.3708 384.52C40.5441 385 39.6241 385.24 38.6108 385.24ZM38.6108 383.44C39.2774 383.44 39.8774 383.273 40.4108 382.94C40.9574 382.607 41.3841 382.147 41.6908 381.56C42.0108 380.973 42.1708 380.32 42.1708 379.6C42.1708 378.867 42.0108 378.22 41.6908 377.66C41.3841 377.087 40.9574 376.633 40.4108 376.3C39.8774 375.953 39.2774 375.78 38.6108 375.78C37.9308 375.78 37.3174 375.953 36.7708 376.3C36.2374 376.633 35.8108 377.087 35.4908 377.66C35.1708 378.22 35.0108 378.867 35.0108 379.6C35.0108 380.32 35.1708 380.973 35.4908 381.56C35.8108 382.147 36.2374 382.607 36.7708 382.94C37.3174 383.273 37.9308 383.44 38.6108 383.44ZM50.4367 385.24C49.3567 385.24 48.4167 384.973 47.6167 384.44C46.8167 383.907 46.2501 383.187 45.9167 382.28L47.3967 381.56C47.7034 382.2 48.1234 382.707 48.6567 383.08C49.1901 383.453 49.7834 383.64 50.4367 383.64C51.0234 383.64 51.5101 383.5 51.8967 383.22C52.2834 382.94 52.4767 382.573 52.4767 382.12C52.4767 381.8 52.3834 381.547 52.1967 381.36C52.0234 381.16 51.8101 381.007 51.5567 380.9C51.3034 380.78 51.0701 380.693 50.8567 380.64L49.2367 380.18C48.2634 379.9 47.5501 379.5 47.0967 378.98C46.6567 378.46 46.4367 377.853 46.4367 377.16C46.4367 376.52 46.5967 375.967 46.9167 375.5C47.2501 375.02 47.6967 374.647 48.2567 374.38C48.8301 374.113 49.4701 373.98 50.1767 373.98C51.1234 373.98 51.9701 374.22 52.7167 374.7C53.4767 375.18 54.0167 375.853 54.3367 376.72L52.8167 377.42C52.5767 376.86 52.2167 376.42 51.7367 376.1C51.2567 375.767 50.7167 375.6 50.1167 375.6C49.5701 375.6 49.1367 375.74 48.8167 376.02C48.4967 376.287 48.3367 376.627 48.3367 377.04C48.3367 377.347 48.4167 377.6 48.5767 377.8C48.7367 377.987 48.9301 378.133 49.1567 378.24C49.3834 378.333 49.6034 378.413 49.8167 378.48L51.5767 379C52.4567 379.253 53.1367 379.647 53.6167 380.18C54.1101 380.713 54.3567 381.353 54.3567 382.1C54.3567 382.7 54.1901 383.24 53.8567 383.72C53.5234 384.2 53.0634 384.573 52.4767 384.84C51.8901 385.107 51.2101 385.24 50.4367 385.24ZM61.7516 385.24C60.7116 385.24 59.7849 384.993 58.9716 384.5C58.1582 384.007 57.5182 383.333 57.0516 382.48C56.5849 381.613 56.3516 380.647 56.3516 379.58C56.3516 378.5 56.5782 377.54 57.0316 376.7C57.4982 375.86 58.1249 375.2 58.9116 374.72C59.7116 374.227 60.6049 373.98 61.5916 373.98C62.3916 373.98 63.0982 374.127 63.7116 374.42C64.3382 374.7 64.8649 375.087 65.2916 375.58C65.7316 376.06 66.0649 376.613 66.2916 377.24C66.5316 377.853 66.6516 378.493 66.6516 379.16C66.6516 379.307 66.6382 379.473 66.6116 379.66C66.5982 379.833 66.5782 380 66.5516 380.16H57.7116V378.56H65.4716L64.5916 379.28C64.7116 378.587 64.6449 377.967 64.3916 377.42C64.1382 376.873 63.7649 376.44 63.2716 376.12C62.7782 375.8 62.2182 375.64 61.5916 375.64C60.9649 375.64 60.3916 375.8 59.8716 376.12C59.3516 376.44 58.9449 376.9 58.6516 377.5C58.3716 378.087 58.2582 378.787 58.3116 379.6C58.2582 380.387 58.3782 381.08 58.6716 381.68C58.9782 382.267 59.4049 382.727 59.9516 383.06C60.5116 383.38 61.1182 383.54 61.7716 383.54C62.4916 383.54 63.0982 383.373 63.5916 383.04C64.0849 382.707 64.4849 382.28 64.7916 381.76L66.3516 382.56C66.1382 383.053 65.8049 383.507 65.3516 383.92C64.9116 384.32 64.3849 384.64 63.7716 384.88C63.1716 385.12 62.4982 385.24 61.7516 385.24ZM75.3538 385V371.9H71.3138V370.1H81.3138V371.9H77.3338V385H75.3538ZM86.6967 385.24C85.6567 385.24 84.7167 385 83.8767 384.52C83.0367 384.027 82.3701 383.353 81.8767 382.5C81.3834 381.647 81.1367 380.68 81.1367 379.6C81.1367 378.52 81.3767 377.56 81.8567 376.72C82.3501 375.88 83.0167 375.213 83.8567 374.72C84.6967 374.227 85.6434 373.98 86.6967 373.98C87.7367 373.98 88.6767 374.227 89.5167 374.72C90.3567 375.2 91.0167 375.86 91.4967 376.7C91.9901 377.54 92.2367 378.507 92.2367 379.6C92.2367 380.693 91.9834 381.667 91.4767 382.52C90.9701 383.36 90.2967 384.027 89.4567 384.52C88.6301 385 87.7101 385.24 86.6967 385.24ZM86.6967 383.44C87.3634 383.44 87.9634 383.273 88.4967 382.94C89.0434 382.607 89.4701 382.147 89.7767 381.56C90.0967 380.973 90.2567 380.32 90.2567 379.6C90.2567 378.867 90.0967 378.22 89.7767 377.66C89.4701 377.087 89.0434 376.633 88.4967 376.3C87.9634 375.953 87.3634 375.78 86.6967 375.78C86.0167 375.78 85.4034 375.953 84.8567 376.3C84.3234 376.633 83.8967 377.087 83.5767 377.66C83.2567 378.22 83.0967 378.867 83.0967 379.6C83.0967 380.32 83.2567 380.973 83.5767 381.56C83.8967 382.147 84.3234 382.607 84.8567 382.94C85.4034 383.273 86.0167 383.44 86.6967 383.44ZM94.8027 380.46V378.76H102.303V380.46H94.8027ZM105.527 385V370.1H110.407C111.914 370.1 113.227 370.407 114.347 371.02C115.467 371.633 116.334 372.5 116.947 373.62C117.561 374.727 117.867 376.033 117.867 377.54C117.867 379.033 117.561 380.34 116.947 381.46C116.334 382.58 115.467 383.453 114.347 384.08C113.227 384.693 111.914 385 110.407 385H105.527ZM107.487 383.2H110.427C111.534 383.2 112.487 382.967 113.287 382.5C114.101 382.033 114.727 381.38 115.167 380.54C115.607 379.687 115.827 378.687 115.827 377.54C115.827 376.38 115.601 375.38 115.147 374.54C114.707 373.7 114.081 373.053 113.267 372.6C112.467 372.133 111.521 371.9 110.427 371.9H107.487V383.2ZM125.251 385.24C124.211 385.24 123.271 385 122.431 384.52C121.591 384.027 120.925 383.353 120.431 382.5C119.938 381.647 119.691 380.68 119.691 379.6C119.691 378.52 119.931 377.56 120.411 376.72C120.905 375.88 121.571 375.213 122.411 374.72C123.251 374.227 124.198 373.98 125.251 373.98C126.291 373.98 127.231 374.227 128.071 374.72C128.911 375.2 129.571 375.86 130.051 376.7C130.545 377.54 130.791 378.507 130.791 379.6C130.791 380.693 130.538 381.667 130.031 382.52C129.525 383.36 128.851 384.027 128.011 384.52C127.185 385 126.265 385.24 125.251 385.24ZM125.251 383.44C125.918 383.44 126.518 383.273 127.051 382.94C127.598 382.607 128.025 382.147 128.331 381.56C128.651 380.973 128.811 380.32 128.811 379.6C128.811 378.867 128.651 378.22 128.331 377.66C128.025 377.087 127.598 376.633 127.051 376.3C126.518 375.953 125.918 375.78 125.251 375.78C124.571 375.78 123.958 375.953 123.411 376.3C122.878 376.633 122.451 377.087 122.131 377.66C121.811 378.22 121.651 378.867 121.651 379.6C121.651 380.32 121.811 380.973 122.131 381.56C122.451 382.147 122.878 382.607 123.411 382.94C123.958 383.273 124.571 383.44 125.251 383.44ZM137.077 385.24C135.997 385.24 135.057 384.973 134.257 384.44C133.457 383.907 132.891 383.187 132.557 382.28L134.037 381.56C134.344 382.2 134.764 382.707 135.297 383.08C135.831 383.453 136.424 383.64 137.077 383.64C137.664 383.64 138.151 383.5 138.537 383.22C138.924 382.94 139.117 382.573 139.117 382.12C139.117 381.8 139.024 381.547 138.837 381.36C138.664 381.16 138.451 381.007 138.197 380.9C137.944 380.78 137.711 380.693 137.497 380.64L135.877 380.18C134.904 379.9 134.191 379.5 133.737 378.98C133.297 378.46 133.077 377.853 133.077 377.16C133.077 376.52 133.237 375.967 133.557 375.5C133.891 375.02 134.337 374.647 134.897 374.38C135.471 374.113 136.111 373.98 136.817 373.98C137.764 373.98 138.611 374.22 139.357 374.7C140.117 375.18 140.657 375.853 140.977 376.72L139.457 377.42C139.217 376.86 138.857 376.42 138.377 376.1C137.897 375.767 137.357 375.6 136.757 375.6C136.211 375.6 135.777 375.74 135.457 376.02C135.137 376.287 134.977 376.627 134.977 377.04C134.977 377.347 135.057 377.6 135.217 377.8C135.377 377.987 135.571 378.133 135.797 378.24C136.024 378.333 136.244 378.413 136.457 378.48L138.217 379C139.097 379.253 139.777 379.647 140.257 380.18C140.751 380.713 140.997 381.353 140.997 382.1C140.997 382.7 140.831 383.24 140.497 383.72C140.164 384.2 139.704 384.573 139.117 384.84C138.531 385.107 137.851 385.24 137.077 385.24ZM149.369 385L145.669 374.22H147.729L150.669 383.24L149.949 383.22L152.829 374.22H154.589L157.469 383.22L156.749 383.24L159.709 374.22H161.749L158.049 385H156.269L153.429 376H153.989L151.149 385H149.369ZM163.413 385V374.22H165.273V385H163.413ZM163.413 372.5V370.1H165.273V372.5H163.413ZM172.539 385.12C171.485 385.12 170.672 384.82 170.099 384.22C169.539 383.62 169.259 382.773 169.259 381.68V376H167.299V374.22H167.699C168.179 374.22 168.559 374.073 168.839 373.78C169.119 373.487 169.259 373.1 169.259 372.62V371.74H171.119V374.22H173.539V376H171.119V381.62C171.119 381.98 171.172 382.293 171.279 382.56C171.399 382.827 171.592 383.04 171.859 383.2C172.125 383.347 172.479 383.42 172.919 383.42C173.012 383.42 173.125 383.413 173.259 383.4C173.405 383.387 173.539 383.373 173.659 383.36V385C173.485 385.04 173.292 385.067 173.079 385.08C172.865 385.107 172.685 385.12 172.539 385.12ZM176.088 385V369.86H177.948V376.32L177.608 376.14C177.875 375.46 178.302 374.933 178.888 374.56C179.488 374.173 180.188 373.98 180.988 373.98C181.762 373.98 182.448 374.153 183.048 374.5C183.662 374.847 184.142 375.327 184.488 375.94C184.848 376.553 185.028 377.247 185.028 378.02V385H183.148V378.62C183.148 378.02 183.035 377.513 182.808 377.1C182.595 376.687 182.295 376.367 181.908 376.14C181.522 375.9 181.075 375.78 180.568 375.78C180.075 375.78 179.628 375.9 179.228 376.14C178.828 376.367 178.515 376.693 178.288 377.12C178.062 377.533 177.948 378.033 177.948 378.62V385H176.088ZM191.367 385V370.1H201.067V371.9H193.327V376.62H200.667V378.42H193.327V383.2H201.067V385H191.367ZM206.276 385L202.056 374.22H204.136L207.516 383.34H206.796L210.196 374.22H212.276L208.036 385H206.276ZM218.705 385.24C217.665 385.24 216.738 384.993 215.925 384.5C215.111 384.007 214.471 383.333 214.005 382.48C213.538 381.613 213.305 380.647 213.305 379.58C213.305 378.5 213.531 377.54 213.985 376.7C214.451 375.86 215.078 375.2 215.865 374.72C216.665 374.227 217.558 373.98 218.545 373.98C219.345 373.98 220.051 374.127 220.665 374.42C221.291 374.7 221.818 375.087 222.245 375.58C222.685 376.06 223.018 376.613 223.245 377.24C223.485 377.853 223.605 378.493 223.605 379.16C223.605 379.307 223.591 379.473 223.565 379.66C223.551 379.833 223.531 380 223.505 380.16H214.665V378.56H222.425L221.545 379.28C221.665 378.587 221.598 377.967 221.345 377.42C221.091 376.873 220.718 376.44 220.225 376.12C219.731 375.8 219.171 375.64 218.545 375.64C217.918 375.64 217.345 375.8 216.825 376.12C216.305 376.44 215.898 376.9 215.605 377.5C215.325 378.087 215.211 378.787 215.265 379.6C215.211 380.387 215.331 381.08 215.625 381.68C215.931 382.267 216.358 382.727 216.905 383.06C217.465 383.38 218.071 383.54 218.725 383.54C219.445 383.54 220.051 383.373 220.545 383.04C221.038 382.707 221.438 382.28 221.745 381.76L223.305 382.56C223.091 383.053 222.758 383.507 222.305 383.92C221.865 384.32 221.338 384.64 220.725 384.88C220.125 385.12 219.451 385.24 218.705 385.24ZM226.03 385V374.22H227.85V376.32L227.55 376.14C227.817 375.46 228.243 374.933 228.83 374.56C229.43 374.173 230.13 373.98 230.93 373.98C231.703 373.98 232.39 374.153 232.99 374.5C233.603 374.847 234.083 375.327 234.43 375.94C234.79 376.553 234.97 377.247 234.97 378.02V385H233.09V378.62C233.09 378.02 232.983 377.513 232.77 377.1C232.557 376.687 232.25 376.367 231.85 376.14C231.463 375.9 231.017 375.78 230.51 375.78C230.003 375.78 229.55 375.9 229.15 376.14C228.763 376.367 228.457 376.693 228.23 377.12C228.003 377.533 227.89 378.033 227.89 378.62V385H226.03ZM242.011 385.12C240.958 385.12 240.145 384.82 239.571 384.22C239.011 383.62 238.731 382.773 238.731 381.68V376H236.771V374.22H237.171C237.651 374.22 238.031 374.073 238.311 373.78C238.591 373.487 238.731 373.1 238.731 372.62V371.74H240.591V374.22H243.011V376H240.591V381.62C240.591 381.98 240.645 382.293 240.751 382.56C240.871 382.827 241.065 383.04 241.331 383.2C241.598 383.347 241.951 383.42 242.391 383.42C242.485 383.42 242.598 383.413 242.731 383.4C242.878 383.387 243.011 383.373 243.131 383.36V385C242.958 385.04 242.765 385.067 242.551 385.08C242.338 385.107 242.158 385.12 242.011 385.12ZM249.721 385L244.341 370.1H246.441L251.001 383.2H250.581L255.141 370.1H257.241L251.881 385H249.721ZM262.865 385.24C261.825 385.24 260.898 384.993 260.085 384.5C259.272 384.007 258.632 383.333 258.165 382.48C257.698 381.613 257.465 380.647 257.465 379.58C257.465 378.5 257.692 377.54 258.145 376.7C258.612 375.86 259.238 375.2 260.025 374.72C260.825 374.227 261.718 373.98 262.705 373.98C263.505 373.98 264.212 374.127 264.825 374.42C265.452 374.7 265.978 375.087 266.405 375.58C266.845 376.06 267.178 376.613 267.405 377.24C267.645 377.853 267.765 378.493 267.765 379.16C267.765 379.307 267.752 379.473 267.725 379.66C267.712 379.833 267.692 380 267.665 380.16H258.825V378.56H266.585L265.705 379.28C265.825 378.587 265.758 377.967 265.505 377.42C265.252 376.873 264.878 376.44 264.385 376.12C263.892 375.8 263.332 375.64 262.705 375.64C262.078 375.64 261.505 375.8 260.985 376.12C260.465 376.44 260.058 376.9 259.765 377.5C259.485 378.087 259.372 378.787 259.425 379.6C259.372 380.387 259.492 381.08 259.785 381.68C260.092 382.267 260.518 382.727 261.065 383.06C261.625 383.38 262.232 383.54 262.885 383.54C263.605 383.54 264.212 383.373 264.705 383.04C265.198 382.707 265.598 382.28 265.905 381.76L267.465 382.56C267.252 383.053 266.918 383.507 266.465 383.92C266.025 384.32 265.498 384.64 264.885 384.88C264.285 385.12 263.612 385.24 262.865 385.24ZM274.57 385.12C273.517 385.12 272.703 384.82 272.13 384.22C271.57 383.62 271.29 382.773 271.29 381.68V376H269.33V374.22H269.73C270.21 374.22 270.59 374.073 270.87 373.78C271.15 373.487 271.29 373.1 271.29 372.62V371.74H273.15V374.22H275.57V376H273.15V381.62C273.15 381.98 273.203 382.293 273.31 382.56C273.43 382.827 273.623 383.04 273.89 383.2C274.157 383.347 274.51 383.42 274.95 383.42C275.043 383.42 275.157 383.413 275.29 383.4C275.437 383.387 275.57 383.373 275.69 383.36V385C275.517 385.04 275.323 385.067 275.11 385.08C274.897 385.107 274.717 385.12 274.57 385.12ZM278.88 385V382.6H280.82V385H278.88Z" fill="black"/>
</g>
</svg>
