<svg width="574" height="88" viewBox="0 0 574 88" fill="none" xmlns="http://www.w3.org/2000/svg">
<path d="M11.66 35V20.1H16.54C18.0467 20.1 19.36 20.4067 20.48 21.02C21.6 21.6333 22.4667 22.5 23.08 23.62C23.6933 24.7267 24 26.0333 24 27.54C24 29.0333 23.6933 30.34 23.08 31.46C22.4667 32.58 21.6 33.4533 20.48 34.08C19.36 34.6933 18.0467 35 16.54 35H11.66ZM13.62 33.2H16.56C17.6667 33.2 18.62 32.9667 19.42 32.5C20.2333 32.0333 20.86 31.38 21.3 30.54C21.74 29.6867 21.96 28.6867 21.96 27.54C21.96 26.38 21.7333 25.38 21.28 24.54C20.84 23.7 20.2133 23.0533 19.4 22.6C18.6 22.1333 17.6533 21.9 16.56 21.9H13.62V33.2ZM26.2642 35V24.22H28.1242V35H26.2642ZM26.2642 22.5V20.1H28.1242V22.5H26.2642ZM34.8703 35.24C33.7903 35.24 32.8503 34.9733 32.0503 34.44C31.2503 33.9067 30.6836 33.1867 30.3503 32.28L31.8303 31.56C32.137 32.2 32.557 32.7067 33.0903 33.08C33.6236 33.4533 34.217 33.64 34.8703 33.64C35.457 33.64 35.9436 33.5 36.3303 33.22C36.717 32.94 36.9103 32.5733 36.9103 32.12C36.9103 31.8 36.817 31.5467 36.6303 31.36C36.457 31.16 36.2436 31.0067 35.9903 30.9C35.737 30.78 35.5036 30.6933 35.2903 30.64L33.6703 30.18C32.697 29.9 31.9836 29.5 31.5303 28.98C31.0903 28.46 30.8703 27.8533 30.8703 27.16C30.8703 26.52 31.0303 25.9667 31.3503 25.5C31.6836 25.02 32.1303 24.6467 32.6903 24.38C33.2636 24.1133 33.9036 23.98 34.6103 23.98C35.557 23.98 36.4036 24.22 37.1503 24.7C37.9103 25.18 38.4503 25.8533 38.7703 26.72L37.2503 27.42C37.0103 26.86 36.6503 26.42 36.1703 26.1C35.6903 25.7667 35.1503 25.6 34.5503 25.6C34.0036 25.6 33.5703 25.74 33.2503 26.02C32.9303 26.2867 32.7703 26.6267 32.7703 27.04C32.7703 27.3467 32.8503 27.6 33.0103 27.8C33.1703 27.9867 33.3636 28.1333 33.5903 28.24C33.817 28.3333 34.037 28.4133 34.2503 28.48L36.0103 29C36.8903 29.2533 37.5703 29.6467 38.0503 30.18C38.5436 30.7133 38.7903 31.3533 38.7903 32.1C38.7903 32.7 38.6236 33.24 38.2903 33.72C37.957 34.2 37.497 34.5733 36.9103 34.84C36.3236 35.1067 35.6436 35.24 34.8703 35.24ZM46.2252 35.24C45.1718 35.24 44.2318 34.9933 43.4052 34.5C42.5918 34.0067 41.9518 33.3333 41.4852 32.48C41.0185 31.6267 40.7852 30.6667 40.7852 29.6C40.7852 28.52 41.0185 27.56 41.4852 26.72C41.9518 25.88 42.5918 25.2133 43.4052 24.72C44.2318 24.2267 45.1718 23.98 46.2252 23.98C46.9318 23.98 47.5918 24.1067 48.2052 24.36C48.8185 24.6133 49.3585 24.9533 49.8252 25.38C50.2918 25.8067 50.6318 26.3067 50.8452 26.88L49.1852 27.68C48.9318 27.12 48.5452 26.6667 48.0252 26.32C47.5052 25.96 46.9052 25.78 46.2252 25.78C45.5718 25.78 44.9785 25.9467 44.4452 26.28C43.9252 26.6133 43.5118 27.0667 43.2052 27.64C42.8985 28.2133 42.7452 28.8733 42.7452 29.62C42.7452 30.34 42.8985 30.9933 43.2052 31.58C43.5118 32.1533 43.9252 32.6067 44.4452 32.94C44.9785 33.2733 45.5718 33.44 46.2252 33.44C46.9052 33.44 47.5052 33.2667 48.0252 32.92C48.5452 32.56 48.9318 32.0867 49.1852 31.5L50.8452 32.34C50.6318 32.9 50.2918 33.4 49.8252 33.84C49.3585 34.2667 48.8185 34.6067 48.2052 34.86C47.5918 35.1133 46.9318 35.24 46.2252 35.24ZM58.3959 35.24C57.3559 35.24 56.4159 35 55.5759 34.52C54.7359 34.0267 54.0693 33.3533 53.5759 32.5C53.0826 31.6467 52.8359 30.68 52.8359 29.6C52.8359 28.52 53.0759 27.56 53.5559 26.72C54.0493 25.88 54.7159 25.2133 55.5559 24.72C56.3959 24.2267 57.3426 23.98 58.3959 23.98C59.4359 23.98 60.3759 24.2267 61.2159 24.72C62.0559 25.2 62.7159 25.86 63.1959 26.7C63.6893 27.54 63.9359 28.5067 63.9359 29.6C63.9359 30.6933 63.6826 31.6667 63.1759 32.52C62.6693 33.36 61.9959 34.0267 61.1559 34.52C60.3293 35 59.4093 35.24 58.3959 35.24ZM58.3959 33.44C59.0626 33.44 59.6626 33.2733 60.1959 32.94C60.7426 32.6067 61.1693 32.1467 61.4759 31.56C61.7959 30.9733 61.9559 30.32 61.9559 29.6C61.9559 28.8667 61.7959 28.22 61.4759 27.66C61.1693 27.0867 60.7426 26.6333 60.1959 26.3C59.6626 25.9533 59.0626 25.78 58.3959 25.78C57.7159 25.78 57.1026 25.9533 56.5559 26.3C56.0226 26.6333 55.5959 27.0867 55.2759 27.66C54.9559 28.22 54.7959 28.8667 54.7959 29.6C54.7959 30.32 54.9559 30.9733 55.2759 31.56C55.5959 32.1467 56.0226 32.6067 56.5559 32.94C57.1026 33.2733 57.7159 33.44 58.3959 33.44ZM69.1666 35L64.9466 24.22H67.0266L70.4066 33.34H69.6866L73.0866 24.22H75.1666L70.9266 35H69.1666ZM81.5953 35.24C80.5553 35.24 79.6286 34.9933 78.8153 34.5C78.002 34.0067 77.362 33.3333 76.8953 32.48C76.4286 31.6133 76.1953 30.6467 76.1953 29.58C76.1953 28.5 76.422 27.54 76.8753 26.7C77.342 25.86 77.9686 25.2 78.7553 24.72C79.5553 24.2267 80.4486 23.98 81.4353 23.98C82.2353 23.98 82.942 24.1267 83.5553 24.42C84.182 24.7 84.7086 25.0867 85.1353 25.58C85.5753 26.06 85.9086 26.6133 86.1353 27.24C86.3753 27.8533 86.4953 28.4933 86.4953 29.16C86.4953 29.3067 86.482 29.4733 86.4553 29.66C86.442 29.8333 86.422 30 86.3953 30.16H77.5553V28.56H85.3153L84.4353 29.28C84.5553 28.5867 84.4886 27.9667 84.2353 27.42C83.982 26.8733 83.6086 26.44 83.1153 26.12C82.622 25.8 82.062 25.64 81.4353 25.64C80.8086 25.64 80.2353 25.8 79.7153 26.12C79.1953 26.44 78.7886 26.9 78.4953 27.5C78.2153 28.0867 78.102 28.7867 78.1553 29.6C78.102 30.3867 78.222 31.08 78.5153 31.68C78.822 32.2667 79.2486 32.7267 79.7953 33.06C80.3553 33.38 80.962 33.54 81.6153 33.54C82.3353 33.54 82.942 33.3733 83.4353 33.04C83.9286 32.7067 84.3286 32.28 84.6353 31.76L86.1953 32.56C85.982 33.0533 85.6486 33.5067 85.1953 33.92C84.7553 34.32 84.2286 34.64 83.6153 34.88C83.0153 35.12 82.342 35.24 81.5953 35.24ZM88.9205 35V24.22H90.7405V26.2L90.5405 25.92C90.7938 25.3067 91.1805 24.8533 91.7005 24.56C92.2205 24.2533 92.8538 24.1 93.6005 24.1H94.2605V25.86H93.3205C92.5605 25.86 91.9471 26.1 91.4805 26.58C91.0138 27.0467 90.7805 27.7133 90.7805 28.58V35H88.9205ZM102.19 35V21.9H98.1497V20.1H108.15V21.9H104.17V35H102.19ZM113.533 35.24C112.493 35.24 111.553 35 110.713 34.52C109.873 34.0267 109.206 33.3533 108.713 32.5C108.219 31.6467 107.973 30.68 107.973 29.6C107.973 28.52 108.213 27.56 108.693 26.72C109.186 25.88 109.853 25.2133 110.693 24.72C111.533 24.2267 112.479 23.98 113.533 23.98C114.573 23.98 115.513 24.2267 116.353 24.72C117.193 25.2 117.853 25.86 118.333 26.7C118.826 27.54 119.073 28.5067 119.073 29.6C119.073 30.6933 118.819 31.6667 118.313 32.52C117.806 33.36 117.133 34.0267 116.293 34.52C115.466 35 114.546 35.24 113.533 35.24ZM113.533 33.44C114.199 33.44 114.799 33.2733 115.333 32.94C115.879 32.6067 116.306 32.1467 116.613 31.56C116.933 30.9733 117.093 30.32 117.093 29.6C117.093 28.8667 116.933 28.22 116.613 27.66C116.306 27.0867 115.879 26.6333 115.333 26.3C114.799 25.9533 114.199 25.78 113.533 25.78C112.853 25.78 112.239 25.9533 111.693 26.3C111.159 26.6333 110.733 27.0867 110.413 27.66C110.093 28.22 109.933 28.8667 109.933 29.6C109.933 30.32 110.093 30.9733 110.413 31.56C110.733 32.1467 111.159 32.6067 111.693 32.94C112.239 33.2733 112.853 33.44 113.533 33.44ZM121.499 39V24.22H123.319V26.54L123.079 26.08C123.479 25.44 124.025 24.9333 124.719 24.56C125.412 24.1733 126.205 23.98 127.099 23.98C128.112 23.98 129.019 24.2267 129.819 24.72C130.632 25.2133 131.272 25.8867 131.739 26.74C132.205 27.58 132.439 28.54 132.439 29.62C132.439 30.6733 132.205 31.6267 131.739 32.48C131.272 33.3333 130.632 34.0067 129.819 34.5C129.019 34.9933 128.105 35.24 127.079 35.24C126.212 35.24 125.419 35.0467 124.699 34.66C123.992 34.2733 123.445 33.7267 123.059 33.02L123.359 32.7V39H121.499ZM126.939 33.44C127.619 33.44 128.225 33.2733 128.759 32.94C129.292 32.6067 129.705 32.1533 129.999 31.58C130.305 30.9933 130.459 30.34 130.459 29.62C130.459 28.8733 130.305 28.22 129.999 27.66C129.705 27.0867 129.292 26.6333 128.759 26.3C128.225 25.9533 127.619 25.78 126.939 25.78C126.259 25.78 125.645 25.9467 125.099 26.28C124.565 26.6133 124.139 27.0733 123.819 27.66C123.512 28.2333 123.359 28.8867 123.359 29.62C123.359 30.34 123.512 30.9933 123.819 31.58C124.139 32.1533 124.565 32.6067 125.099 32.94C125.645 33.2733 126.259 33.44 126.939 33.44ZM135.018 30.46V28.76H142.518V30.46H135.018ZM145.522 35V24.22H147.342V26.32L147.042 26.14C147.309 25.46 147.735 24.9333 148.322 24.56C148.922 24.1733 149.622 23.98 150.422 23.98C151.195 23.98 151.882 24.1533 152.482 24.5C153.095 24.8467 153.575 25.3267 153.922 25.94C154.282 26.5533 154.462 27.2467 154.462 28.02V35H152.582V28.62C152.582 28.02 152.475 27.5133 152.262 27.1C152.049 26.6867 151.742 26.3667 151.342 26.14C150.955 25.9 150.509 25.78 150.002 25.78C149.495 25.78 149.042 25.9 148.642 26.14C148.255 26.3667 147.949 26.6933 147.722 27.12C147.495 27.5333 147.382 28.0333 147.382 28.62V35H145.522ZM162.244 35.24C161.204 35.24 160.264 35 159.424 34.52C158.584 34.0267 157.917 33.3533 157.424 32.5C156.93 31.6467 156.684 30.68 156.684 29.6C156.684 28.52 156.924 27.56 157.404 26.72C157.897 25.88 158.564 25.2133 159.404 24.72C160.244 24.2267 161.19 23.98 162.244 23.98C163.284 23.98 164.224 24.2267 165.064 24.72C165.904 25.2 166.564 25.86 167.044 26.7C167.537 27.54 167.784 28.5067 167.784 29.6C167.784 30.6933 167.53 31.6667 167.024 32.52C166.517 33.36 165.844 34.0267 165.004 34.52C164.177 35 163.257 35.24 162.244 35.24ZM162.244 33.44C162.91 33.44 163.51 33.2733 164.044 32.94C164.59 32.6067 165.017 32.1467 165.324 31.56C165.644 30.9733 165.804 30.32 165.804 29.6C165.804 28.8667 165.644 28.22 165.324 27.66C165.017 27.0867 164.59 26.6333 164.044 26.3C163.51 25.9533 162.91 25.78 162.244 25.78C161.564 25.78 160.95 25.9533 160.404 26.3C159.87 26.6333 159.444 27.0867 159.124 27.66C158.804 28.22 158.644 28.8667 158.644 29.6C158.644 30.32 158.804 30.9733 159.124 31.56C159.444 32.1467 159.87 32.6067 160.404 32.94C160.95 33.2733 161.564 33.44 162.244 33.44ZM174.394 35.12C173.341 35.12 172.528 34.82 171.954 34.22C171.394 33.62 171.114 32.7733 171.114 31.68V26H169.154V24.22H169.554C170.034 24.22 170.414 24.0733 170.694 23.78C170.974 23.4867 171.114 23.1 171.114 22.62V21.74H172.974V24.22H175.394V26H172.974V31.62C172.974 31.98 173.028 32.2933 173.134 32.56C173.254 32.8267 173.448 33.04 173.714 33.2C173.981 33.3467 174.334 33.42 174.774 33.42C174.868 33.42 174.981 33.4133 175.114 33.4C175.261 33.3867 175.394 33.3733 175.514 33.36V35C175.341 35.04 175.148 35.0667 174.934 35.08C174.721 35.1067 174.541 35.12 174.394 35.12ZM182.651 35.24C181.598 35.24 180.658 34.9933 179.831 34.5C179.018 34.0067 178.378 33.3333 177.911 32.48C177.444 31.6267 177.211 30.6667 177.211 29.6C177.211 28.52 177.444 27.56 177.911 26.72C178.378 25.88 179.018 25.2133 179.831 24.72C180.658 24.2267 181.598 23.98 182.651 23.98C183.358 23.98 184.018 24.1067 184.631 24.36C185.244 24.6133 185.784 24.9533 186.251 25.38C186.718 25.8067 187.058 26.3067 187.271 26.88L185.611 27.68C185.358 27.12 184.971 26.6667 184.451 26.32C183.931 25.96 183.331 25.78 182.651 25.78C181.998 25.78 181.404 25.9467 180.871 26.28C180.351 26.6133 179.938 27.0667 179.631 27.64C179.324 28.2133 179.171 28.8733 179.171 29.62C179.171 30.34 179.324 30.9933 179.631 31.58C179.938 32.1533 180.351 32.6067 180.871 32.94C181.404 33.2733 181.998 33.44 182.651 33.44C183.331 33.44 183.931 33.2667 184.451 32.92C184.971 32.56 185.358 32.0867 185.611 31.5L187.271 32.34C187.058 32.9 186.718 33.4 186.251 33.84C185.784 34.2667 185.244 34.6067 184.631 34.86C184.018 35.1133 183.358 35.24 182.651 35.24ZM189.702 35V19.86H191.562V26.32L191.222 26.14C191.488 25.46 191.915 24.9333 192.502 24.56C193.102 24.1733 193.802 23.98 194.602 23.98C195.375 23.98 196.062 24.1533 196.662 24.5C197.275 24.8467 197.755 25.3267 198.102 25.94C198.462 26.5533 198.642 27.2467 198.642 28.02V35H196.762V28.62C196.762 28.02 196.648 27.5133 196.422 27.1C196.208 26.6867 195.908 26.3667 195.522 26.14C195.135 25.9 194.688 25.78 194.182 25.78C193.688 25.78 193.242 25.9 192.842 26.14C192.442 26.3667 192.128 26.6933 191.902 27.12C191.675 27.5333 191.562 28.0333 191.562 28.62V35H189.702ZM208.92 35L203.54 20.1H205.64L210.2 33.2H209.78L214.34 20.1H216.44L211.08 35H208.92ZM222.064 35.24C221.024 35.24 220.097 34.9933 219.284 34.5C218.471 34.0067 217.831 33.3333 217.364 32.48C216.897 31.6133 216.664 30.6467 216.664 29.58C216.664 28.5 216.891 27.54 217.344 26.7C217.811 25.86 218.437 25.2 219.224 24.72C220.024 24.2267 220.917 23.98 221.904 23.98C222.704 23.98 223.411 24.1267 224.024 24.42C224.651 24.7 225.177 25.0867 225.604 25.58C226.044 26.06 226.377 26.6133 226.604 27.24C226.844 27.8533 226.964 28.4933 226.964 29.16C226.964 29.3067 226.951 29.4733 226.924 29.66C226.911 29.8333 226.891 30 226.864 30.16H218.024V28.56H225.784L224.904 29.28C225.024 28.5867 224.957 27.9667 224.704 27.42C224.451 26.8733 224.077 26.44 223.584 26.12C223.091 25.8 222.531 25.64 221.904 25.64C221.277 25.64 220.704 25.8 220.184 26.12C219.664 26.44 219.257 26.9 218.964 27.5C218.684 28.0867 218.571 28.7867 218.624 29.6C218.571 30.3867 218.691 31.08 218.984 31.68C219.291 32.2667 219.717 32.7267 220.264 33.06C220.824 33.38 221.431 33.54 222.084 33.54C222.804 33.54 223.411 33.3733 223.904 33.04C224.397 32.7067 224.797 32.28 225.104 31.76L226.664 32.56C226.451 33.0533 226.117 33.5067 225.664 33.92C225.224 34.32 224.697 34.64 224.084 34.88C223.484 35.12 222.811 35.24 222.064 35.24ZM229.389 35V24.22H231.209V26.32L230.909 26.14C231.176 25.46 231.603 24.9333 232.189 24.56C232.789 24.1733 233.489 23.98 234.289 23.98C235.063 23.98 235.749 24.1533 236.349 24.5C236.963 24.8467 237.443 25.3267 237.789 25.94C238.149 26.5533 238.329 27.2467 238.329 28.02V35H236.449V28.62C236.449 28.02 236.343 27.5133 236.129 27.1C235.916 26.6867 235.609 26.3667 235.209 26.14C234.823 25.9 234.376 25.78 233.869 25.78C233.363 25.78 232.909 25.9 232.509 26.14C232.123 26.3667 231.816 26.6933 231.589 27.12C231.363 27.5333 231.249 28.0333 231.249 28.62V35H229.389ZM245.891 35.24C244.877 35.24 243.964 34.9933 243.151 34.5C242.351 34.0067 241.717 33.3333 241.251 32.48C240.784 31.6267 240.551 30.6733 240.551 29.62C240.551 28.54 240.784 27.58 241.251 26.74C241.717 25.8867 242.351 25.2133 243.151 24.72C243.964 24.2267 244.877 23.98 245.891 23.98C246.784 23.98 247.577 24.1733 248.271 24.56C248.964 24.9333 249.511 25.44 249.911 26.08L249.611 26.54V19.86H251.491V35H249.671V32.7L249.911 33.02C249.537 33.7267 248.991 34.2733 248.271 34.66C247.564 35.0467 246.771 35.24 245.891 35.24ZM246.051 33.44C246.731 33.44 247.337 33.2733 247.871 32.94C248.404 32.6067 248.824 32.1533 249.131 31.58C249.451 30.9933 249.611 30.34 249.611 29.62C249.611 28.8867 249.451 28.2333 249.131 27.66C248.824 27.0733 248.404 26.6133 247.871 26.28C247.337 25.9467 246.731 25.78 246.051 25.78C245.384 25.78 244.777 25.9533 244.231 26.3C243.697 26.6333 243.277 27.0867 242.971 27.66C242.664 28.22 242.511 28.8733 242.511 29.62C242.511 30.34 242.664 30.9933 242.971 31.58C243.277 32.1533 243.697 32.6067 244.231 32.94C244.764 33.2733 245.371 33.44 246.051 33.44ZM259.49 35.24C258.45 35.24 257.51 35 256.67 34.52C255.83 34.0267 255.163 33.3533 254.67 32.5C254.176 31.6467 253.93 30.68 253.93 29.6C253.93 28.52 254.17 27.56 254.65 26.72C255.143 25.88 255.81 25.2133 256.65 24.72C257.49 24.2267 258.436 23.98 259.49 23.98C260.53 23.98 261.47 24.2267 262.31 24.72C263.15 25.2 263.81 25.86 264.29 26.7C264.783 27.54 265.03 28.5067 265.03 29.6C265.03 30.6933 264.776 31.6667 264.27 32.52C263.763 33.36 263.09 34.0267 262.25 34.52C261.423 35 260.503 35.24 259.49 35.24ZM259.49 33.44C260.156 33.44 260.756 33.2733 261.29 32.94C261.836 32.6067 262.263 32.1467 262.57 31.56C262.89 30.9733 263.05 30.32 263.05 29.6C263.05 28.8667 262.89 28.22 262.57 27.66C262.263 27.0867 261.836 26.6333 261.29 26.3C260.756 25.9533 260.156 25.78 259.49 25.78C258.81 25.78 258.196 25.9533 257.65 26.3C257.116 26.6333 256.69 27.0867 256.37 27.66C256.05 28.22 255.89 28.8667 255.89 29.6C255.89 30.32 256.05 30.9733 256.37 31.56C256.69 32.1467 257.116 32.6067 257.65 32.94C258.196 33.2733 258.81 33.44 259.49 33.44ZM267.456 35V24.22H269.276V26.2L269.076 25.92C269.329 25.3067 269.716 24.8533 270.236 24.56C270.756 24.2533 271.389 24.1 272.136 24.1H272.796V25.86H271.856C271.096 25.86 270.482 26.1 270.016 26.58C269.549 27.0467 269.316 27.7133 269.316 28.58V35H267.456ZM278.308 35.24C277.228 35.24 276.288 34.9733 275.488 34.44C274.688 33.9067 274.121 33.1867 273.788 32.28L275.268 31.56C275.574 32.2 275.994 32.7067 276.528 33.08C277.061 33.4533 277.654 33.64 278.308 33.64C278.894 33.64 279.381 33.5 279.768 33.22C280.154 32.94 280.348 32.5733 280.348 32.12C280.348 31.8 280.254 31.5467 280.068 31.36C279.894 31.16 279.681 31.0067 279.428 30.9C279.174 30.78 278.941 30.6933 278.728 30.64L277.108 30.18C276.134 29.9 275.421 29.5 274.968 28.98C274.528 28.46 274.308 27.8533 274.308 27.16C274.308 26.52 274.468 25.9667 274.788 25.5C275.121 25.02 275.568 24.6467 276.128 24.38C276.701 24.1133 277.341 23.98 278.048 23.98C278.994 23.98 279.841 24.22 280.588 24.7C281.348 25.18 281.888 25.8533 282.208 26.72L280.688 27.42C280.448 26.86 280.088 26.42 279.608 26.1C279.128 25.7667 278.588 25.6 277.988 25.6C277.441 25.6 277.008 25.74 276.688 26.02C276.368 26.2867 276.208 26.6267 276.208 27.04C276.208 27.3467 276.288 27.6 276.448 27.8C276.608 27.9867 276.801 28.1333 277.028 28.24C277.254 28.3333 277.474 28.4133 277.688 28.48L279.448 29C280.328 29.2533 281.008 29.6467 281.488 30.18C281.981 30.7133 282.228 31.3533 282.228 32.1C282.228 32.7 282.061 33.24 281.728 33.72C281.394 34.2 280.934 34.5733 280.348 34.84C279.761 35.1067 279.081 35.24 278.308 35.24ZM284.983 37.78V36.88C285.396 36.7733 285.709 36.5667 285.923 36.26C286.136 35.9533 286.256 35.5333 286.283 35H285.383V32.6H287.323V34.3C287.323 35.26 287.123 36.0333 286.723 36.62C286.336 37.2067 285.756 37.5933 284.983 37.78ZM294.316 35V20.1H300.576C301.47 20.1 302.236 20.26 302.876 20.58C303.53 20.9 304.03 21.3533 304.376 21.94C304.736 22.5133 304.916 23.2 304.916 24C304.916 24.7333 304.723 25.4 304.336 26C303.963 26.5867 303.41 27.0467 302.676 27.38L302.656 26.64C303.296 26.88 303.823 27.2 304.236 27.6C304.663 27.9867 304.983 28.44 305.196 28.96C305.41 29.4667 305.516 30.0067 305.516 30.58C305.516 31.9533 305.076 33.0333 304.196 33.82C303.316 34.6067 302.116 35 300.596 35H294.316ZM296.276 33.2H300.676C301.543 33.2 302.236 32.9667 302.756 32.5C303.276 32.0333 303.536 31.4 303.536 30.6C303.536 29.8 303.276 29.1667 302.756 28.7C302.236 28.22 301.543 27.98 300.676 27.98H296.276V33.2ZM296.276 26.22H300.536C301.256 26.22 301.836 26.0133 302.276 25.6C302.716 25.1733 302.936 24.6333 302.936 23.98C302.936 23.3 302.716 22.78 302.276 22.42C301.836 22.06 301.256 21.88 300.536 21.88H296.276V26.22ZM311.764 35.24C310.991 35.24 310.291 35.06 309.664 34.7C309.051 34.34 308.571 33.84 308.224 33.2C307.891 32.5467 307.724 31.8 307.724 30.96V24.22H309.584V30.76C309.584 31.2933 309.691 31.76 309.904 32.16C310.131 32.56 310.437 32.8733 310.824 33.1C311.224 33.3267 311.677 33.44 312.184 33.44C312.691 33.44 313.137 33.3267 313.524 33.1C313.924 32.8733 314.231 32.5467 314.444 32.12C314.671 31.6933 314.784 31.1867 314.784 30.6V24.22H316.664V35H314.844V32.9L315.144 33.08C314.891 33.76 314.457 34.2933 313.844 34.68C313.244 35.0533 312.551 35.24 311.764 35.24ZM324.445 35.24C323.432 35.24 322.519 34.9933 321.705 34.5C320.905 34.0067 320.272 33.3333 319.805 32.48C319.339 31.6267 319.105 30.6733 319.105 29.62C319.105 28.54 319.339 27.58 319.805 26.74C320.272 25.8867 320.905 25.2133 321.705 24.72C322.519 24.2267 323.432 23.98 324.445 23.98C325.339 23.98 326.132 24.1733 326.825 24.56C327.519 24.9333 328.065 25.44 328.465 26.08L328.165 26.54V19.86H330.045V35H328.225V32.7L328.465 33.02C328.092 33.7267 327.545 34.2733 326.825 34.66C326.119 35.0467 325.325 35.24 324.445 35.24ZM324.605 33.44C325.285 33.44 325.892 33.2733 326.425 32.94C326.959 32.6067 327.379 32.1533 327.685 31.58C328.005 30.9933 328.165 30.34 328.165 29.62C328.165 28.8867 328.005 28.2333 327.685 27.66C327.379 27.0733 326.959 26.6133 326.425 26.28C325.892 25.9467 325.285 25.78 324.605 25.78C323.939 25.78 323.332 25.9533 322.785 26.3C322.252 26.6333 321.832 27.0867 321.525 27.66C321.219 28.22 321.065 28.8733 321.065 29.62C321.065 30.34 321.219 30.9933 321.525 31.58C321.832 32.1533 322.252 32.6067 322.785 32.94C323.319 33.2733 323.925 33.44 324.605 33.44ZM338.064 39.4C337.304 39.4 336.598 39.28 335.944 39.04C335.304 38.8 334.751 38.4667 334.284 38.04C333.831 37.6267 333.484 37.14 333.244 36.58L334.984 35.78C335.171 36.2867 335.524 36.7133 336.044 37.06C336.578 37.42 337.244 37.6 338.044 37.6C338.658 37.6 339.211 37.48 339.704 37.24C340.211 37.0133 340.611 36.6667 340.904 36.2C341.198 35.7467 341.344 35.1933 341.344 34.54V32.12L341.684 32.48C341.311 33.2133 340.771 33.7733 340.064 34.16C339.371 34.5467 338.604 34.74 337.764 34.74C336.751 34.74 335.844 34.5067 335.044 34.04C334.244 33.56 333.618 32.9133 333.164 32.1C332.711 31.2733 332.484 30.36 332.484 29.36C332.484 28.3467 332.711 27.4333 333.164 26.62C333.618 25.8067 334.238 25.1667 335.024 24.7C335.824 24.22 336.731 23.98 337.744 23.98C338.584 23.98 339.344 24.1733 340.024 24.56C340.718 24.9333 341.271 25.4533 341.684 26.12L341.404 26.62V24.22H343.224V34.54C343.224 35.4733 343.004 36.3067 342.564 37.04C342.124 37.7733 341.511 38.3467 340.724 38.76C339.951 39.1867 339.064 39.4 338.064 39.4ZM337.924 32.94C338.564 32.94 339.138 32.78 339.644 32.46C340.164 32.14 340.578 31.7133 340.884 31.18C341.191 30.6333 341.344 30.0267 341.344 29.36C341.344 28.7067 341.191 28.1067 340.884 27.56C340.578 27.0133 340.164 26.58 339.644 26.26C339.138 25.94 338.564 25.78 337.924 25.78C337.271 25.78 336.678 25.94 336.144 26.26C335.611 26.58 335.191 27.0133 334.884 27.56C334.591 28.0933 334.444 28.6933 334.444 29.36C334.444 30.0267 334.591 30.6333 334.884 31.18C335.191 31.7133 335.604 32.14 336.124 32.46C336.658 32.78 337.258 32.94 337.924 32.94ZM351.068 35.24C350.028 35.24 349.101 34.9933 348.288 34.5C347.475 34.0067 346.835 33.3333 346.368 32.48C345.901 31.6133 345.668 30.6467 345.668 29.58C345.668 28.5 345.895 27.54 346.348 26.7C346.815 25.86 347.441 25.2 348.228 24.72C349.028 24.2267 349.921 23.98 350.908 23.98C351.708 23.98 352.415 24.1267 353.028 24.42C353.655 24.7 354.181 25.0867 354.608 25.58C355.048 26.06 355.381 26.6133 355.608 27.24C355.848 27.8533 355.968 28.4933 355.968 29.16C355.968 29.3067 355.955 29.4733 355.928 29.66C355.915 29.8333 355.895 30 355.868 30.16H347.028V28.56H354.788L353.908 29.28C354.028 28.5867 353.961 27.9667 353.708 27.42C353.455 26.8733 353.081 26.44 352.588 26.12C352.095 25.8 351.535 25.64 350.908 25.64C350.281 25.64 349.708 25.8 349.188 26.12C348.668 26.44 348.261 26.9 347.968 27.5C347.688 28.0867 347.575 28.7867 347.628 29.6C347.575 30.3867 347.695 31.08 347.988 31.68C348.295 32.2667 348.721 32.7267 349.268 33.06C349.828 33.38 350.435 33.54 351.088 33.54C351.808 33.54 352.415 33.3733 352.908 33.04C353.401 32.7067 353.801 32.28 354.108 31.76L355.668 32.56C355.455 33.0533 355.121 33.5067 354.668 33.92C354.228 34.32 353.701 34.64 353.088 34.88C352.488 35.12 351.815 35.24 351.068 35.24ZM362.773 35.12C361.72 35.12 360.906 34.82 360.333 34.22C359.773 33.62 359.493 32.7733 359.493 31.68V26H357.533V24.22H357.933C358.413 24.22 358.793 24.0733 359.073 23.78C359.353 23.4867 359.493 23.1 359.493 22.62V21.74H361.353V24.22H363.773V26H361.353V31.62C361.353 31.98 361.406 32.2933 361.513 32.56C361.633 32.8267 361.826 33.04 362.093 33.2C362.36 33.3467 362.713 33.42 363.153 33.42C363.246 33.42 363.36 33.4133 363.493 33.4C363.64 33.3867 363.773 33.3733 363.893 33.36V35C363.72 35.04 363.526 35.0667 363.313 35.08C363.1 35.1067 362.92 35.12 362.773 35.12ZM370 35V20.1H371.96V33.2H378.5V35H370ZM380.483 35V24.22H382.343V35H380.483ZM380.483 22.5V20.1H382.343V22.5H380.483ZM385.229 35V19.86H387.089V30.24L386.329 30.06L392.049 24.22H394.429L390.289 28.56L394.709 35H392.509L388.469 29.16L389.629 29.1L386.489 32.38L387.089 31.02V35H385.229ZM401.146 35.24C400.106 35.24 399.179 34.9933 398.366 34.5C397.553 34.0067 396.913 33.3333 396.446 32.48C395.979 31.6133 395.746 30.6467 395.746 29.58C395.746 28.5 395.973 27.54 396.426 26.7C396.893 25.86 397.519 25.2 398.306 24.72C399.106 24.2267 399.999 23.98 400.986 23.98C401.786 23.98 402.493 24.1267 403.106 24.42C403.733 24.7 404.259 25.0867 404.686 25.58C405.126 26.06 405.459 26.6133 405.686 27.24C405.926 27.8533 406.046 28.4933 406.046 29.16C406.046 29.3067 406.033 29.4733 406.006 29.66C405.993 29.8333 405.973 30 405.946 30.16H397.106V28.56H404.866L403.986 29.28C404.106 28.5867 404.039 27.9667 403.786 27.42C403.533 26.8733 403.159 26.44 402.666 26.12C402.173 25.8 401.613 25.64 400.986 25.64C400.359 25.64 399.786 25.8 399.266 26.12C398.746 26.44 398.339 26.9 398.046 27.5C397.766 28.0867 397.653 28.7867 397.706 29.6C397.653 30.3867 397.773 31.08 398.066 31.68C398.373 32.2667 398.799 32.7267 399.346 33.06C399.906 33.38 400.513 33.54 401.166 33.54C401.886 33.54 402.493 33.3733 402.986 33.04C403.479 32.7067 403.879 32.28 404.186 31.76L405.746 32.56C405.533 33.0533 405.199 33.5067 404.746 33.92C404.306 34.32 403.779 34.64 403.166 34.88C402.566 35.12 401.893 35.24 401.146 35.24ZM415.088 35.24C414.382 35.24 413.755 35.1133 413.208 34.86C412.675 34.5933 412.255 34.2333 411.948 33.78C411.642 33.3133 411.488 32.78 411.488 32.18C411.488 31.6067 411.608 31.0933 411.848 30.64C412.102 30.1733 412.488 29.78 413.008 29.46C413.542 29.14 414.208 28.9133 415.008 28.78L419.008 28.12V29.68L415.428 30.28C414.735 30.4 414.228 30.62 413.908 30.94C413.602 31.26 413.448 31.6533 413.448 32.12C413.448 32.56 413.622 32.9267 413.968 33.22C414.328 33.5133 414.775 33.66 415.308 33.66C415.988 33.66 416.575 33.52 417.068 33.24C417.575 32.9467 417.968 32.5533 418.248 32.06C418.542 31.5667 418.688 31.02 418.688 30.42V27.68C418.688 27.0933 418.468 26.62 418.028 26.26C417.602 25.8867 417.035 25.7 416.328 25.7C415.715 25.7 415.168 25.86 414.688 26.18C414.222 26.4867 413.875 26.9 413.648 27.42L412.028 26.58C412.228 26.0867 412.548 25.6467 412.988 25.26C413.428 24.86 413.942 24.5467 414.528 24.32C415.115 24.0933 415.728 23.98 416.368 23.98C417.195 23.98 417.922 24.14 418.548 24.46C419.175 24.7667 419.662 25.2 420.008 25.76C420.368 26.3067 420.548 26.9467 420.548 27.68V35H418.728V32.96L419.068 33.08C418.842 33.5067 418.535 33.88 418.148 34.2C417.762 34.52 417.308 34.7733 416.788 34.96C416.268 35.1467 415.702 35.24 415.088 35.24ZM427.109 35V20.1H432.369C433.356 20.1 434.223 20.2867 434.969 20.66C435.716 21.0333 436.296 21.5667 436.709 22.26C437.136 22.9533 437.349 23.7667 437.349 24.7C437.349 25.6333 437.136 26.4467 436.709 27.14C436.296 27.82 435.716 28.3533 434.969 28.74C434.236 29.1133 433.369 29.3 432.369 29.3H429.069V35H427.109ZM429.069 27.5H432.429C433.029 27.5 433.549 27.3867 433.989 27.16C434.429 26.9333 434.769 26.6067 435.009 26.18C435.249 25.7533 435.369 25.26 435.369 24.7C435.369 24.1267 435.249 23.6333 435.009 23.22C434.769 22.7933 434.429 22.4667 433.989 22.24C433.549 22.0133 433.029 21.9 432.429 21.9H429.069V27.5ZM439.78 35V24.22H441.6V26.2L441.4 25.92C441.653 25.3067 442.04 24.8533 442.56 24.56C443.08 24.2533 443.713 24.1 444.46 24.1H445.12V25.86H444.18C443.42 25.86 442.807 26.1 442.34 26.58C441.873 27.0467 441.64 27.7133 441.64 28.58V35H439.78ZM451.892 35.24C450.852 35.24 449.912 35 449.072 34.52C448.232 34.0267 447.565 33.3533 447.072 32.5C446.579 31.6467 446.332 30.68 446.332 29.6C446.332 28.52 446.572 27.56 447.052 26.72C447.545 25.88 448.212 25.2133 449.052 24.72C449.892 24.2267 450.839 23.98 451.892 23.98C452.932 23.98 453.872 24.2267 454.712 24.72C455.552 25.2 456.212 25.86 456.692 26.7C457.185 27.54 457.432 28.5067 457.432 29.6C457.432 30.6933 457.179 31.6667 456.672 32.52C456.165 33.36 455.492 34.0267 454.652 34.52C453.825 35 452.905 35.24 451.892 35.24ZM451.892 33.44C452.559 33.44 453.159 33.2733 453.692 32.94C454.239 32.6067 454.665 32.1467 454.972 31.56C455.292 30.9733 455.452 30.32 455.452 29.6C455.452 28.8667 455.292 28.22 454.972 27.66C454.665 27.0867 454.239 26.6333 453.692 26.3C453.159 25.9533 452.559 25.78 451.892 25.78C451.212 25.78 450.599 25.9533 450.052 26.3C449.519 26.6333 449.092 27.0867 448.772 27.66C448.452 28.22 448.292 28.8667 448.292 29.6C448.292 30.32 448.452 30.9733 448.772 31.56C449.092 32.1467 449.519 32.6067 450.052 32.94C450.599 33.2733 451.212 33.44 451.892 33.44ZM460.178 37.78V36.88C460.591 36.7733 460.905 36.5667 461.118 36.26C461.331 35.9533 461.451 35.5333 461.478 35H460.578V32.6H462.518V34.3C462.518 35.26 462.318 36.0333 461.918 36.62C461.531 37.2067 460.951 37.5933 460.178 37.78ZM472.452 35.24C471.745 35.24 471.118 35.1133 470.572 34.86C470.038 34.5933 469.618 34.2333 469.312 33.78C469.005 33.3133 468.852 32.78 468.852 32.18C468.852 31.6067 468.972 31.0933 469.212 30.64C469.465 30.1733 469.852 29.78 470.372 29.46C470.905 29.14 471.572 28.9133 472.372 28.78L476.372 28.12V29.68L472.792 30.28C472.098 30.4 471.592 30.62 471.272 30.94C470.965 31.26 470.812 31.6533 470.812 32.12C470.812 32.56 470.985 32.9267 471.332 33.22C471.692 33.5133 472.138 33.66 472.672 33.66C473.352 33.66 473.938 33.52 474.432 33.24C474.938 32.9467 475.332 32.5533 475.612 32.06C475.905 31.5667 476.052 31.02 476.052 30.42V27.68C476.052 27.0933 475.832 26.62 475.392 26.26C474.965 25.8867 474.398 25.7 473.692 25.7C473.078 25.7 472.532 25.86 472.052 26.18C471.585 26.4867 471.238 26.9 471.012 27.42L469.392 26.58C469.592 26.0867 469.912 25.6467 470.352 25.26C470.792 24.86 471.305 24.5467 471.892 24.32C472.478 24.0933 473.092 23.98 473.732 23.98C474.558 23.98 475.285 24.14 475.912 24.46C476.538 24.7667 477.025 25.2 477.372 25.76C477.732 26.3067 477.912 26.9467 477.912 27.68V35H476.092V32.96L476.432 33.08C476.205 33.5067 475.898 33.88 475.512 34.2C475.125 34.52 474.672 34.7733 474.152 34.96C473.632 35.1467 473.065 35.24 472.452 35.24ZM480.795 35V24.22H482.615V26.32L482.315 26.14C482.582 25.46 483.009 24.9333 483.595 24.56C484.195 24.1733 484.895 23.98 485.695 23.98C486.469 23.98 487.155 24.1533 487.755 24.5C488.369 24.8467 488.849 25.3267 489.195 25.94C489.555 26.5533 489.735 27.2467 489.735 28.02V35H487.855V28.62C487.855 28.02 487.749 27.5133 487.535 27.1C487.322 26.6867 487.015 26.3667 486.615 26.14C486.229 25.9 485.782 25.78 485.275 25.78C484.769 25.78 484.315 25.9 483.915 26.14C483.529 26.3667 483.222 26.6933 482.995 27.12C482.769 27.5333 482.655 28.0333 482.655 28.62V35H480.795ZM497.297 35.24C496.284 35.24 495.37 34.9933 494.557 34.5C493.757 34.0067 493.124 33.3333 492.657 32.48C492.19 31.6267 491.957 30.6733 491.957 29.62C491.957 28.54 492.19 27.58 492.657 26.74C493.124 25.8867 493.757 25.2133 494.557 24.72C495.37 24.2267 496.284 23.98 497.297 23.98C498.19 23.98 498.984 24.1733 499.677 24.56C500.37 24.9333 500.917 25.44 501.317 26.08L501.017 26.54V19.86H502.897V35H501.077V32.7L501.317 33.02C500.944 33.7267 500.397 34.2733 499.677 34.66C498.97 35.0467 498.177 35.24 497.297 35.24ZM497.457 33.44C498.137 33.44 498.744 33.2733 499.277 32.94C499.81 32.6067 500.23 32.1533 500.537 31.58C500.857 30.9933 501.017 30.34 501.017 29.62C501.017 28.8867 500.857 28.2333 500.537 27.66C500.23 27.0733 499.81 26.6133 499.277 26.28C498.744 25.9467 498.137 25.78 497.457 25.78C496.79 25.78 496.184 25.9533 495.637 26.3C495.104 26.6333 494.684 27.0867 494.377 27.66C494.07 28.22 493.917 28.8733 493.917 29.62C493.917 30.34 494.07 30.9933 494.377 31.58C494.684 32.1533 495.104 32.6067 495.637 32.94C496.17 33.2733 496.777 33.44 497.457 33.44ZM512.053 35V21.9H508.013V20.1H518.013V21.9H514.033V35H512.053ZM521.651 35.24C520.944 35.24 520.317 35.1133 519.771 34.86C519.237 34.5933 518.817 34.2333 518.511 33.78C518.204 33.3133 518.051 32.78 518.051 32.18C518.051 31.6067 518.171 31.0933 518.411 30.64C518.664 30.1733 519.051 29.78 519.571 29.46C520.104 29.14 520.771 28.9133 521.571 28.78L525.571 28.12V29.68L521.991 30.28C521.297 30.4 520.791 30.62 520.471 30.94C520.164 31.26 520.011 31.6533 520.011 32.12C520.011 32.56 520.184 32.9267 520.531 33.22C520.891 33.5133 521.337 33.66 521.871 33.66C522.551 33.66 523.137 33.52 523.631 33.24C524.137 32.9467 524.531 32.5533 524.811 32.06C525.104 31.5667 525.251 31.02 525.251 30.42V27.68C525.251 27.0933 525.031 26.62 524.591 26.26C524.164 25.8867 523.597 25.7 522.891 25.7C522.277 25.7 521.731 25.86 521.251 26.18C520.784 26.4867 520.437 26.9 520.211 27.42L518.591 26.58C518.791 26.0867 519.111 25.6467 519.551 25.26C519.991 24.86 520.504 24.5467 521.091 24.32C521.677 24.0933 522.291 23.98 522.931 23.98C523.757 23.98 524.484 24.14 525.111 24.46C525.737 24.7667 526.224 25.2 526.571 25.76C526.931 26.3067 527.111 26.9467 527.111 27.68V35H525.291V32.96L525.631 33.08C525.404 33.5067 525.097 33.88 524.711 34.2C524.324 34.52 523.871 34.7733 523.351 34.96C522.831 35.1467 522.264 35.24 521.651 35.24ZM529.995 35V24.22H531.815V26.42L531.555 26.08C531.821 25.4 532.248 24.88 532.835 24.52C533.421 24.16 534.081 23.98 534.815 23.98C535.655 23.98 536.408 24.2133 537.075 24.68C537.755 25.1467 538.221 25.76 538.475 26.52L537.955 26.54C538.235 25.7 538.708 25.0667 539.375 24.64C540.041 24.2 540.781 23.98 541.595 23.98C542.341 23.98 543.015 24.1533 543.615 24.5C544.228 24.8467 544.715 25.3267 545.075 25.94C545.435 26.5533 545.615 27.2467 545.615 28.02V35H543.735V28.62C543.735 28.02 543.628 27.5133 543.415 27.1C543.201 26.6867 542.908 26.3667 542.535 26.14C542.175 25.9 541.748 25.78 541.255 25.78C540.775 25.78 540.341 25.9 539.955 26.14C539.581 26.3667 539.281 26.6933 539.055 27.12C538.841 27.5333 538.735 28.0333 538.735 28.62V35H536.855V28.62C536.855 28.02 536.748 27.5133 536.535 27.1C536.321 26.6867 536.028 26.3667 535.655 26.14C535.295 25.9 534.868 25.78 534.375 25.78C533.895 25.78 533.461 25.9 533.075 26.14C532.701 26.3667 532.401 26.6933 532.175 27.12C531.961 27.5333 531.855 28.0333 531.855 28.62V35H529.995ZM553.216 35.24C552.176 35.24 551.25 34.9933 550.436 34.5C549.623 34.0067 548.983 33.3333 548.516 32.48C548.05 31.6133 547.816 30.6467 547.816 29.58C547.816 28.5 548.043 27.54 548.496 26.7C548.963 25.86 549.59 25.2 550.376 24.72C551.176 24.2267 552.07 23.98 553.056 23.98C553.856 23.98 554.563 24.1267 555.176 24.42C555.803 24.7 556.33 25.0867 556.756 25.58C557.196 26.06 557.53 26.6133 557.756 27.24C557.996 27.8533 558.116 28.4933 558.116 29.16C558.116 29.3067 558.103 29.4733 558.076 29.66C558.063 29.8333 558.043 30 558.016 30.16H549.176V28.56H556.936L556.056 29.28C556.176 28.5867 556.11 27.9667 555.856 27.42C555.603 26.8733 555.23 26.44 554.736 26.12C554.243 25.8 553.683 25.64 553.056 25.64C552.43 25.64 551.856 25.8 551.336 26.12C550.816 26.44 550.41 26.9 550.116 27.5C549.836 28.0867 549.723 28.7867 549.776 29.6C549.723 30.3867 549.843 31.08 550.136 31.68C550.443 32.2667 550.87 32.7267 551.416 33.06C551.976 33.38 552.583 33.54 553.236 33.54C553.956 33.54 554.563 33.3733 555.056 33.04C555.55 32.7067 555.95 32.28 556.256 31.76L557.816 32.56C557.603 33.0533 557.27 33.5067 556.816 33.92C556.376 34.32 555.85 34.64 555.236 34.88C554.636 35.12 553.963 35.24 553.216 35.24ZM14.26 69V55.9H10.22V54.1H20.22V55.9H16.24V69H14.26ZM21.8892 69V53.86H23.7492V60.32L23.4092 60.14C23.6759 59.46 24.1026 58.9333 24.6892 58.56C25.2892 58.1733 25.9892 57.98 26.7892 57.98C27.5626 57.98 28.2492 58.1533 28.8492 58.5C29.4626 58.8467 29.9426 59.3267 30.2892 59.94C30.6492 60.5533 30.8292 61.2467 30.8292 62.02V69H28.9492V62.62C28.9492 62.02 28.8359 61.5133 28.6092 61.1C28.3959 60.6867 28.0959 60.3667 27.7092 60.14C27.3226 59.9 26.8759 59.78 26.3692 59.78C25.8759 59.78 25.4292 59.9 25.0292 60.14C24.6292 60.3667 24.3159 60.6933 24.0892 61.12C23.8626 61.5333 23.7492 62.0333 23.7492 62.62V69H21.8892ZM38.6108 69.24C37.5708 69.24 36.6308 69 35.7908 68.52C34.9508 68.0267 34.2841 67.3533 33.7908 66.5C33.2974 65.6467 33.0508 64.68 33.0508 63.6C33.0508 62.52 33.2908 61.56 33.7708 60.72C34.2641 59.88 34.9308 59.2133 35.7708 58.72C36.6108 58.2267 37.5574 57.98 38.6108 57.98C39.6508 57.98 40.5908 58.2267 41.4308 58.72C42.2708 59.2 42.9308 59.86 43.4108 60.7C43.9041 61.54 44.1508 62.5067 44.1508 63.6C44.1508 64.6933 43.8974 65.6667 43.3908 66.52C42.8841 67.36 42.2108 68.0267 41.3708 68.52C40.5441 69 39.6241 69.24 38.6108 69.24ZM38.6108 67.44C39.2774 67.44 39.8774 67.2733 40.4108 66.94C40.9574 66.6067 41.3841 66.1467 41.6908 65.56C42.0108 64.9733 42.1708 64.32 42.1708 63.6C42.1708 62.8667 42.0108 62.22 41.6908 61.66C41.3841 61.0867 40.9574 60.6333 40.4108 60.3C39.8774 59.9533 39.2774 59.78 38.6108 59.78C37.9308 59.78 37.3174 59.9533 36.7708 60.3C36.2374 60.6333 35.8108 61.0867 35.4908 61.66C35.1708 62.22 35.0108 62.8667 35.0108 63.6C35.0108 64.32 35.1708 64.9733 35.4908 65.56C35.8108 66.1467 36.2374 66.6067 36.7708 66.94C37.3174 67.2733 37.9308 67.44 38.6108 67.44ZM50.4367 69.24C49.3567 69.24 48.4167 68.9733 47.6167 68.44C46.8167 67.9067 46.2501 67.1867 45.9167 66.28L47.3967 65.56C47.7034 66.2 48.1234 66.7067 48.6567 67.08C49.1901 67.4533 49.7834 67.64 50.4367 67.64C51.0234 67.64 51.5101 67.5 51.8967 67.22C52.2834 66.94 52.4767 66.5733 52.4767 66.12C52.4767 65.8 52.3834 65.5467 52.1967 65.36C52.0234 65.16 51.8101 65.0067 51.5567 64.9C51.3034 64.78 51.0701 64.6933 50.8567 64.64L49.2367 64.18C48.2634 63.9 47.5501 63.5 47.0967 62.98C46.6567 62.46 46.4367 61.8533 46.4367 61.16C46.4367 60.52 46.5967 59.9667 46.9167 59.5C47.2501 59.02 47.6967 58.6467 48.2567 58.38C48.8301 58.1133 49.4701 57.98 50.1767 57.98C51.1234 57.98 51.9701 58.22 52.7167 58.7C53.4767 59.18 54.0167 59.8533 54.3367 60.72L52.8167 61.42C52.5767 60.86 52.2167 60.42 51.7367 60.1C51.2567 59.7667 50.7167 59.6 50.1167 59.6C49.5701 59.6 49.1367 59.74 48.8167 60.02C48.4967 60.2867 48.3367 60.6267 48.3367 61.04C48.3367 61.3467 48.4167 61.6 48.5767 61.8C48.7367 61.9867 48.9301 62.1333 49.1567 62.24C49.3834 62.3333 49.6034 62.4133 49.8167 62.48L51.5767 63C52.4567 63.2533 53.1367 63.6467 53.6167 64.18C54.1101 64.7133 54.3567 65.3533 54.3567 66.1C54.3567 66.7 54.1901 67.24 53.8567 67.72C53.5234 68.2 53.0634 68.5733 52.4767 68.84C51.8901 69.1067 51.2101 69.24 50.4367 69.24ZM61.7516 69.24C60.7116 69.24 59.7849 68.9933 58.9716 68.5C58.1582 68.0067 57.5182 67.3333 57.0516 66.48C56.5849 65.6133 56.3516 64.6467 56.3516 63.58C56.3516 62.5 56.5782 61.54 57.0316 60.7C57.4982 59.86 58.1249 59.2 58.9116 58.72C59.7116 58.2267 60.6049 57.98 61.5916 57.98C62.3916 57.98 63.0982 58.1267 63.7116 58.42C64.3382 58.7 64.8649 59.0867 65.2916 59.58C65.7316 60.06 66.0649 60.6133 66.2916 61.24C66.5316 61.8533 66.6516 62.4933 66.6516 63.16C66.6516 63.3067 66.6382 63.4733 66.6116 63.66C66.5982 63.8333 66.5782 64 66.5516 64.16H57.7116V62.56H65.4716L64.5916 63.28C64.7116 62.5867 64.6449 61.9667 64.3916 61.42C64.1382 60.8733 63.7649 60.44 63.2716 60.12C62.7782 59.8 62.2182 59.64 61.5916 59.64C60.9649 59.64 60.3916 59.8 59.8716 60.12C59.3516 60.44 58.9449 60.9 58.6516 61.5C58.3716 62.0867 58.2582 62.7867 58.3116 63.6C58.2582 64.3867 58.3782 65.08 58.6716 65.68C58.9782 66.2667 59.4049 66.7267 59.9516 67.06C60.5116 67.38 61.1182 67.54 61.7716 67.54C62.4916 67.54 63.0982 67.3733 63.5916 67.04C64.0849 66.7067 64.4849 66.28 64.7916 65.76L66.3516 66.56C66.1382 67.0533 65.8049 67.5067 65.3516 67.92C64.9116 68.32 64.3849 68.64 63.7716 68.88C63.1716 69.12 62.4982 69.24 61.7516 69.24ZM75.3538 69V55.9H71.3138V54.1H81.3138V55.9H77.3338V69H75.3538ZM86.6967 69.24C85.6567 69.24 84.7167 69 83.8767 68.52C83.0367 68.0267 82.3701 67.3533 81.8767 66.5C81.3834 65.6467 81.1367 64.68 81.1367 63.6C81.1367 62.52 81.3767 61.56 81.8567 60.72C82.3501 59.88 83.0167 59.2133 83.8567 58.72C84.6967 58.2267 85.6434 57.98 86.6967 57.98C87.7367 57.98 88.6767 58.2267 89.5167 58.72C90.3567 59.2 91.0167 59.86 91.4967 60.7C91.9901 61.54 92.2367 62.5067 92.2367 63.6C92.2367 64.6933 91.9834 65.6667 91.4767 66.52C90.9701 67.36 90.2967 68.0267 89.4567 68.52C88.6301 69 87.7101 69.24 86.6967 69.24ZM86.6967 67.44C87.3634 67.44 87.9634 67.2733 88.4967 66.94C89.0434 66.6067 89.4701 66.1467 89.7767 65.56C90.0967 64.9733 90.2567 64.32 90.2567 63.6C90.2567 62.8667 90.0967 62.22 89.7767 61.66C89.4701 61.0867 89.0434 60.6333 88.4967 60.3C87.9634 59.9533 87.3634 59.78 86.6967 59.78C86.0167 59.78 85.4034 59.9533 84.8567 60.3C84.3234 60.6333 83.8967 61.0867 83.5767 61.66C83.2567 62.22 83.0967 62.8667 83.0967 63.6C83.0967 64.32 83.2567 64.9733 83.5767 65.56C83.8967 66.1467 84.3234 66.6067 84.8567 66.94C85.4034 67.2733 86.0167 67.44 86.6967 67.44ZM94.8027 64.46V62.76H102.303V64.46H94.8027ZM105.527 69V54.1H110.407C111.914 54.1 113.227 54.4067 114.347 55.02C115.467 55.6333 116.334 56.5 116.947 57.62C117.561 58.7267 117.867 60.0333 117.867 61.54C117.867 63.0333 117.561 64.34 116.947 65.46C116.334 66.58 115.467 67.4533 114.347 68.08C113.227 68.6933 111.914 69 110.407 69H105.527ZM107.487 67.2H110.427C111.534 67.2 112.487 66.9667 113.287 66.5C114.101 66.0333 114.727 65.38 115.167 64.54C115.607 63.6867 115.827 62.6867 115.827 61.54C115.827 60.38 115.601 59.38 115.147 58.54C114.707 57.7 114.081 57.0533 113.267 56.6C112.467 56.1333 111.521 55.9 110.427 55.9H107.487V67.2ZM125.251 69.24C124.211 69.24 123.271 69 122.431 68.52C121.591 68.0267 120.925 67.3533 120.431 66.5C119.938 65.6467 119.691 64.68 119.691 63.6C119.691 62.52 119.931 61.56 120.411 60.72C120.905 59.88 121.571 59.2133 122.411 58.72C123.251 58.2267 124.198 57.98 125.251 57.98C126.291 57.98 127.231 58.2267 128.071 58.72C128.911 59.2 129.571 59.86 130.051 60.7C130.545 61.54 130.791 62.5067 130.791 63.6C130.791 64.6933 130.538 65.6667 130.031 66.52C129.525 67.36 128.851 68.0267 128.011 68.52C127.185 69 126.265 69.24 125.251 69.24ZM125.251 67.44C125.918 67.44 126.518 67.2733 127.051 66.94C127.598 66.6067 128.025 66.1467 128.331 65.56C128.651 64.9733 128.811 64.32 128.811 63.6C128.811 62.8667 128.651 62.22 128.331 61.66C128.025 61.0867 127.598 60.6333 127.051 60.3C126.518 59.9533 125.918 59.78 125.251 59.78C124.571 59.78 123.958 59.9533 123.411 60.3C122.878 60.6333 122.451 61.0867 122.131 61.66C121.811 62.22 121.651 62.8667 121.651 63.6C121.651 64.32 121.811 64.9733 122.131 65.56C122.451 66.1467 122.878 66.6067 123.411 66.94C123.958 67.2733 124.571 67.44 125.251 67.44ZM137.077 69.24C135.997 69.24 135.057 68.9733 134.257 68.44C133.457 67.9067 132.891 67.1867 132.557 66.28L134.037 65.56C134.344 66.2 134.764 66.7067 135.297 67.08C135.831 67.4533 136.424 67.64 137.077 67.64C137.664 67.64 138.151 67.5 138.537 67.22C138.924 66.94 139.117 66.5733 139.117 66.12C139.117 65.8 139.024 65.5467 138.837 65.36C138.664 65.16 138.451 65.0067 138.197 64.9C137.944 64.78 137.711 64.6933 137.497 64.64L135.877 64.18C134.904 63.9 134.191 63.5 133.737 62.98C133.297 62.46 133.077 61.8533 133.077 61.16C133.077 60.52 133.237 59.9667 133.557 59.5C133.891 59.02 134.337 58.6467 134.897 58.38C135.471 58.1133 136.111 57.98 136.817 57.98C137.764 57.98 138.611 58.22 139.357 58.7C140.117 59.18 140.657 59.8533 140.977 60.72L139.457 61.42C139.217 60.86 138.857 60.42 138.377 60.1C137.897 59.7667 137.357 59.6 136.757 59.6C136.211 59.6 135.777 59.74 135.457 60.02C135.137 60.2867 134.977 60.6267 134.977 61.04C134.977 61.3467 135.057 61.6 135.217 61.8C135.377 61.9867 135.571 62.1333 135.797 62.24C136.024 62.3333 136.244 62.4133 136.457 62.48L138.217 63C139.097 63.2533 139.777 63.6467 140.257 64.18C140.751 64.7133 140.997 65.3533 140.997 66.1C140.997 66.7 140.831 67.24 140.497 67.72C140.164 68.2 139.704 68.5733 139.117 68.84C138.531 69.1067 137.851 69.24 137.077 69.24ZM149.369 69L145.669 58.22H147.729L150.669 67.24L149.949 67.22L152.829 58.22H154.589L157.469 67.22L156.749 67.24L159.709 58.22H161.749L158.049 69H156.269L153.429 60H153.989L151.149 69H149.369ZM163.413 69V58.22H165.273V69H163.413ZM163.413 56.5V54.1H165.273V56.5H163.413ZM172.539 69.12C171.485 69.12 170.672 68.82 170.099 68.22C169.539 67.62 169.259 66.7733 169.259 65.68V60H167.299V58.22H167.699C168.179 58.22 168.559 58.0733 168.839 57.78C169.119 57.4867 169.259 57.1 169.259 56.62V55.74H171.119V58.22H173.539V60H171.119V65.62C171.119 65.98 171.172 66.2933 171.279 66.56C171.399 66.8267 171.592 67.04 171.859 67.2C172.125 67.3467 172.479 67.42 172.919 67.42C173.012 67.42 173.125 67.4133 173.259 67.4C173.405 67.3867 173.539 67.3733 173.659 67.36V69C173.485 69.04 173.292 69.0667 173.079 69.08C172.865 69.1067 172.685 69.12 172.539 69.12ZM176.088 69V53.86H177.948V60.32L177.608 60.14C177.875 59.46 178.302 58.9333 178.888 58.56C179.488 58.1733 180.188 57.98 180.988 57.98C181.762 57.98 182.448 58.1533 183.048 58.5C183.662 58.8467 184.142 59.3267 184.488 59.94C184.848 60.5533 185.028 61.2467 185.028 62.02V69H183.148V62.62C183.148 62.02 183.035 61.5133 182.808 61.1C182.595 60.6867 182.295 60.3667 181.908 60.14C181.522 59.9 181.075 59.78 180.568 59.78C180.075 59.78 179.628 59.9 179.228 60.14C178.828 60.3667 178.515 60.6933 178.288 61.12C178.062 61.5333 177.948 62.0333 177.948 62.62V69H176.088ZM191.367 69V54.1H201.067V55.9H193.327V60.62H200.667V62.42H193.327V67.2H201.067V69H191.367ZM206.276 69L202.056 58.22H204.136L207.516 67.34H206.796L210.196 58.22H212.276L208.036 69H206.276ZM218.705 69.24C217.665 69.24 216.738 68.9933 215.925 68.5C215.111 68.0067 214.471 67.3333 214.005 66.48C213.538 65.6133 213.305 64.6467 213.305 63.58C213.305 62.5 213.531 61.54 213.985 60.7C214.451 59.86 215.078 59.2 215.865 58.72C216.665 58.2267 217.558 57.98 218.545 57.98C219.345 57.98 220.051 58.1267 220.665 58.42C221.291 58.7 221.818 59.0867 222.245 59.58C222.685 60.06 223.018 60.6133 223.245 61.24C223.485 61.8533 223.605 62.4933 223.605 63.16C223.605 63.3067 223.591 63.4733 223.565 63.66C223.551 63.8333 223.531 64 223.505 64.16H214.665V62.56H222.425L221.545 63.28C221.665 62.5867 221.598 61.9667 221.345 61.42C221.091 60.8733 220.718 60.44 220.225 60.12C219.731 59.8 219.171 59.64 218.545 59.64C217.918 59.64 217.345 59.8 216.825 60.12C216.305 60.44 215.898 60.9 215.605 61.5C215.325 62.0867 215.211 62.7867 215.265 63.6C215.211 64.3867 215.331 65.08 215.625 65.68C215.931 66.2667 216.358 66.7267 216.905 67.06C217.465 67.38 218.071 67.54 218.725 67.54C219.445 67.54 220.051 67.3733 220.545 67.04C221.038 66.7067 221.438 66.28 221.745 65.76L223.305 66.56C223.091 67.0533 222.758 67.5067 222.305 67.92C221.865 68.32 221.338 68.64 220.725 68.88C220.125 69.12 219.451 69.24 218.705 69.24ZM226.03 69V58.22H227.85V60.32L227.55 60.14C227.817 59.46 228.243 58.9333 228.83 58.56C229.43 58.1733 230.13 57.98 230.93 57.98C231.703 57.98 232.39 58.1533 232.99 58.5C233.603 58.8467 234.083 59.3267 234.43 59.94C234.79 60.5533 234.97 61.2467 234.97 62.02V69H233.09V62.62C233.09 62.02 232.983 61.5133 232.77 61.1C232.557 60.6867 232.25 60.3667 231.85 60.14C231.463 59.9 231.017 59.78 230.51 59.78C230.003 59.78 229.55 59.9 229.15 60.14C228.763 60.3667 228.457 60.6933 228.23 61.12C228.003 61.5333 227.89 62.0333 227.89 62.62V69H226.03ZM242.011 69.12C240.958 69.12 240.145 68.82 239.571 68.22C239.011 67.62 238.731 66.7733 238.731 65.68V60H236.771V58.22H237.171C237.651 58.22 238.031 58.0733 238.311 57.78C238.591 57.4867 238.731 57.1 238.731 56.62V55.74H240.591V58.22H243.011V60H240.591V65.62C240.591 65.98 240.645 66.2933 240.751 66.56C240.871 66.8267 241.065 67.04 241.331 67.2C241.598 67.3467 241.951 67.42 242.391 67.42C242.485 67.42 242.598 67.4133 242.731 67.4C242.878 67.3867 243.011 67.3733 243.131 67.36V69C242.958 69.04 242.765 69.0667 242.551 69.08C242.338 69.1067 242.158 69.12 242.011 69.12ZM249.721 69L244.341 54.1H246.441L251.001 67.2H250.581L255.141 54.1H257.241L251.881 69H249.721ZM262.865 69.24C261.825 69.24 260.898 68.9933 260.085 68.5C259.272 68.0067 258.632 67.3333 258.165 66.48C257.698 65.6133 257.465 64.6467 257.465 63.58C257.465 62.5 257.692 61.54 258.145 60.7C258.612 59.86 259.238 59.2 260.025 58.72C260.825 58.2267 261.718 57.98 262.705 57.98C263.505 57.98 264.212 58.1267 264.825 58.42C265.452 58.7 265.978 59.0867 266.405 59.58C266.845 60.06 267.178 60.6133 267.405 61.24C267.645 61.8533 267.765 62.4933 267.765 63.16C267.765 63.3067 267.752 63.4733 267.725 63.66C267.712 63.8333 267.692 64 267.665 64.16H258.825V62.56H266.585L265.705 63.28C265.825 62.5867 265.758 61.9667 265.505 61.42C265.252 60.8733 264.878 60.44 264.385 60.12C263.892 59.8 263.332 59.64 262.705 59.64C262.078 59.64 261.505 59.8 260.985 60.12C260.465 60.44 260.058 60.9 259.765 61.5C259.485 62.0867 259.372 62.7867 259.425 63.6C259.372 64.3867 259.492 65.08 259.785 65.68C260.092 66.2667 260.518 66.7267 261.065 67.06C261.625 67.38 262.232 67.54 262.885 67.54C263.605 67.54 264.212 67.3733 264.705 67.04C265.198 66.7067 265.598 66.28 265.905 65.76L267.465 66.56C267.252 67.0533 266.918 67.5067 266.465 67.92C266.025 68.32 265.498 68.64 264.885 68.88C264.285 69.12 263.612 69.24 262.865 69.24ZM274.57 69.12C273.517 69.12 272.703 68.82 272.13 68.22C271.57 67.62 271.29 66.7733 271.29 65.68V60H269.33V58.22H269.73C270.21 58.22 270.59 58.0733 270.87 57.78C271.15 57.4867 271.29 57.1 271.29 56.62V55.74H273.15V58.22H275.57V60H273.15V65.62C273.15 65.98 273.203 66.2933 273.31 66.56C273.43 66.8267 273.623 67.04 273.89 67.2C274.157 67.3467 274.51 67.42 274.95 67.42C275.043 67.42 275.157 67.4133 275.29 67.4C275.437 67.3867 275.57 67.3733 275.69 67.36V69C275.517 69.04 275.323 69.0667 275.11 69.08C274.897 69.1067 274.717 69.12 274.57 69.12ZM278.88 69V66.6H280.82V69H278.88Z" fill="black"/>
</svg>
