<svg width="26" height="26" viewBox="0 0 33 37" fill="none" xmlns="http://www.w3.org/2000/svg">
<g clip-path="url(#clip0_392_385)">
<mask id="path-1-inside-1_392_385" fill="white">
<path d="M10.0202 9.29488C9.30514 8.0592 8.18253 7.19214 6.87809 6.82442C7.51228 6.50204 8.01942 5.97547 8.31772 5.3296C8.61603 4.68374 8.68812 3.95624 8.52237 3.26439C8.35662 2.57254 7.96269 1.95668 7.4041 1.51611C6.84551 1.07554 6.15482 0.835937 5.4434 0.835938C4.73198 0.835938 4.04128 1.07554 3.4827 1.51611C2.92411 1.95668 2.53018 2.57254 2.36443 3.26439C2.19868 3.95624 2.27077 4.68374 2.56907 5.3296C2.86738 5.97547 3.37451 6.50204 4.0087 6.82442C2.70427 7.19168 1.58166 8.05874 0.866577 9.29488C0.846941 9.32577 0.833757 9.36031 0.827817 9.39642C0.821877 9.43254 0.823303 9.46948 0.832011 9.50503C0.840719 9.54058 0.856527 9.574 0.878486 9.60328C0.900445 9.63257 0.9281 9.6571 0.959788 9.67542C0.991476 9.69374 1.02654 9.70545 1.06287 9.70987C1.09921 9.71428 1.13606 9.7113 1.17121 9.7011C1.20636 9.6909 1.23909 9.6737 1.26742 9.65053C1.29575 9.62735 1.3191 9.59869 1.33606 9.56626C2.20493 8.06508 3.74004 7.16907 5.4434 7.16907C7.14676 7.16907 8.68187 8.06508 9.55073 9.56626C9.5677 9.59869 9.59105 9.62735 9.61938 9.65053C9.64771 9.6737 9.68044 9.6909 9.71559 9.7011C9.75074 9.7113 9.78759 9.71428 9.82392 9.70987C9.86026 9.70545 9.89532 9.69374 9.92701 9.67542C9.9587 9.6571 9.98635 9.63257 10.0083 9.60328C10.0303 9.574 10.0461 9.54058 10.0548 9.50503C10.0635 9.46948 10.0649 9.43254 10.059 9.39642C10.053 9.36031 10.0399 9.32577 10.0202 9.29488ZM2.82006 4.00297C2.82006 3.48412 2.97392 2.97693 3.26217 2.54552C3.55043 2.11412 3.96014 1.77788 4.43949 1.57932C4.91884 1.38077 5.44631 1.32882 5.95519 1.43004C6.46406 1.53126 6.9315 1.78111 7.29838 2.14799C7.66526 2.51487 7.91511 2.9823 8.01633 3.49118C8.11755 4.00006 8.0656 4.52753 7.86705 5.00688C7.66849 5.48623 7.33225 5.89594 6.90085 6.1842C6.46944 6.47245 5.96225 6.62631 5.4434 6.62631C4.7479 6.62547 4.08113 6.34882 3.58934 5.85703C3.09755 5.36524 2.8209 4.69847 2.82006 4.00297Z"/>
</mask>
<path d="M10.0202 9.29488C9.30514 8.0592 8.18253 7.19214 6.87809 6.82442C7.51228 6.50204 8.01942 5.97547 8.31772 5.3296C8.61603 4.68374 8.68812 3.95624 8.52237 3.26439C8.35662 2.57254 7.96269 1.95668 7.4041 1.51611C6.84551 1.07554 6.15482 0.835937 5.4434 0.835938C4.73198 0.835938 4.04128 1.07554 3.4827 1.51611C2.92411 1.95668 2.53018 2.57254 2.36443 3.26439C2.19868 3.95624 2.27077 4.68374 2.56907 5.3296C2.86738 5.97547 3.37451 6.50204 4.0087 6.82442C2.70427 7.19168 1.58166 8.05874 0.866577 9.29488C0.846941 9.32577 0.833757 9.36031 0.827817 9.39642C0.821877 9.43254 0.823303 9.46948 0.832011 9.50503C0.840719 9.54058 0.856527 9.574 0.878486 9.60328C0.900445 9.63257 0.9281 9.6571 0.959788 9.67542C0.991476 9.69374 1.02654 9.70545 1.06287 9.70987C1.09921 9.71428 1.13606 9.7113 1.17121 9.7011C1.20636 9.6909 1.23909 9.6737 1.26742 9.65053C1.29575 9.62735 1.3191 9.59869 1.33606 9.56626C2.20493 8.06508 3.74004 7.16907 5.4434 7.16907C7.14676 7.16907 8.68187 8.06508 9.55073 9.56626C9.5677 9.59869 9.59105 9.62735 9.61938 9.65053C9.64771 9.6737 9.68044 9.6909 9.71559 9.7011C9.75074 9.7113 9.78759 9.71428 9.82392 9.70987C9.86026 9.70545 9.89532 9.69374 9.92701 9.67542C9.9587 9.6571 9.98635 9.63257 10.0083 9.60328C10.0303 9.574 10.0461 9.54058 10.0548 9.50503C10.0635 9.46948 10.0649 9.43254 10.059 9.39642C10.053 9.36031 10.0399 9.32577 10.0202 9.29488ZM2.82006 4.00297C2.82006 3.48412 2.97392 2.97693 3.26217 2.54552C3.55043 2.11412 3.96014 1.77788 4.43949 1.57932C4.91884 1.38077 5.44631 1.32882 5.95519 1.43004C6.46406 1.53126 6.9315 1.78111 7.29838 2.14799C7.66526 2.51487 7.91511 2.9823 8.01633 3.49118C8.11755 4.00006 8.0656 4.52753 7.86705 5.00688C7.66849 5.48623 7.33225 5.89594 6.90085 6.1842C6.46944 6.47245 5.96225 6.62631 5.4434 6.62631C4.7479 6.62547 4.08113 6.34882 3.58934 5.85703C3.09755 5.36524 2.8209 4.69847 2.82006 4.00297Z" fill="black"/>
<path d="M10.0202 9.29488L-9.52231 20.6041L-9.28678 21.0111L-9.03451 21.4079L10.0202 9.29488ZM6.87809 6.82442L-3.35339 -13.3033L-54.8606 12.8792L0.751853 28.5564L6.87809 6.82442ZM4.0087 6.82442L10.128 28.5583L65.7718 12.8916L14.2402 -13.3033L4.0087 6.82442ZM0.866577 9.29488L19.9213 21.4079L20.1745 21.0096L20.4109 20.601L0.866577 9.29488ZM1.33606 9.56626L-18.2057 -1.74429L-18.4473 -1.32693L-18.6708 -0.899638L1.33606 9.56626ZM9.55073 9.56626L29.5576 -0.899638L29.3341 -1.32693L29.0925 -1.74429L9.55073 9.56626ZM2.82006 4.00297H-19.7589V4.01657L-19.7589 4.03017L2.82006 4.00297ZM5.4434 6.62631L5.4162 29.2052L5.4298 29.2053H5.4434V6.62631ZM29.5628 -2.01433C25.9611 -8.23806 20.0779 -12.9135 13.0043 -14.9075L0.751853 28.5564C-3.71281 27.2978 -7.35083 24.3564 -9.52231 20.6041L29.5628 -2.01433ZM17.1096 26.9521C22.2665 24.3307 26.3902 20.0489 28.8159 14.7971L-12.1804 -4.13792C-10.3514 -8.09799 -7.24192 -11.3267 -3.35339 -13.3033L17.1096 26.9521ZM28.8159 14.7971C31.2416 9.54531 31.8277 3.6296 30.48 -1.99612L-13.4352 8.5249C-14.4515 4.28287 -14.0095 -0.17782 -12.1804 -4.13792L28.8159 14.7971ZM30.48 -1.99612C29.1322 -7.62185 25.929 -12.6297 21.3868 -16.2122L-6.5786 19.2444C-10.0036 16.5431 -12.4189 12.7669 -13.4352 8.5249L30.48 -1.99612ZM21.3868 -16.2122C16.8447 -19.7947 11.2283 -21.743 5.4434 -21.743V23.4149C1.08132 23.4149 -3.15363 21.9458 -6.5786 19.2444L21.3868 -16.2122ZM5.4434 -21.743C-0.341527 -21.743 -5.95787 -19.7947 -10.5 -16.2122L17.4654 19.2444C14.0404 21.9458 9.80548 23.4149 5.4434 23.4149V-21.743ZM-10.5 -16.2122C-15.0422 -12.6297 -18.2454 -7.62185 -19.5932 -1.99612L24.322 8.5249C23.3057 12.7669 20.8904 16.5431 17.4654 19.2444L-10.5 -16.2122ZM-19.5932 -1.99612C-20.941 3.62961 -20.3548 9.54532 -17.9291 14.7971L23.0672 -4.13792C24.8963 -0.177831 25.3383 4.28286 24.322 8.5249L-19.5932 -1.99612ZM-17.9291 14.7971C-15.5034 20.0489 -11.3797 24.3307 -6.22278 26.9521L14.2402 -13.3033C18.1287 -11.3267 21.2382 -8.09799 23.0672 -4.13792L-17.9291 14.7971ZM-2.11056 -14.9095C-9.19075 -12.9161 -15.0764 -8.23679 -18.6778 -2.01123L20.4109 20.601C18.2397 24.3543 14.5993 27.2994 10.128 28.5583L-2.11056 -14.9095ZM-18.1882 -2.81817C-19.8414 -0.217438 -20.9516 2.69089 -21.4518 5.73188L23.1074 13.061C22.6191 16.0297 21.5353 18.869 19.9213 21.4079L-18.1882 -2.81817ZM-21.4518 5.73188C-21.9519 8.77285 -21.8318 11.8835 -21.0986 14.8768L22.7626 4.13325C23.4784 7.05543 23.5957 10.0922 23.1074 13.061L-21.4518 5.73188ZM-21.0986 14.8768C-20.3654 17.8701 -19.0343 20.6842 -17.1854 23.1497L18.9423 -3.94315C20.7474 -1.53617 22.0469 1.21106 22.7626 4.13325L-21.0986 14.8768ZM-17.1854 23.1497C-15.3364 25.6153 -13.0078 27.6813 -10.3397 29.2236L12.2593 -9.87273C14.864 -8.3671 17.1373 -6.35014 18.9423 -3.94315L-17.1854 23.1497ZM-10.3397 29.2236C-7.67169 30.7658 -4.71918 31.7524 -1.65976 32.1241L3.78551 -12.7043C6.77226 -12.3415 9.65464 -11.3783 12.2593 -9.87273L-10.3397 29.2236ZM-1.65976 32.1241C1.39966 32.4957 4.50252 32.2446 7.46218 31.3859L-5.11975 -11.9837C-2.2304 -12.822 0.798757 -13.0671 3.78551 -12.7043L-1.65976 32.1241ZM7.46218 31.3859C10.4219 30.5273 13.1774 29.0788 15.5629 27.1276L-13.028 -7.82657C-10.6992 -9.73145 -8.00915 -11.1455 -5.11975 -11.9837L7.46218 31.3859ZM15.5629 27.1276C17.9483 25.1765 19.9144 22.7629 21.3429 20.0322L-18.6708 -0.899638C-17.2762 -3.56556 -15.3568 -5.92177 -13.028 -7.82657L15.5629 27.1276ZM20.8778 20.8768C17.802 26.1911 11.9796 29.748 5.4434 29.748V-15.4099C-4.49953 -15.4099 -13.3921 -10.061 -18.2057 -1.74429L20.8778 20.8768ZM5.4434 29.748C-1.09281 29.748 -6.91517 26.1911 -9.99102 20.8768L29.0925 -1.74429C24.2789 -10.061 15.3863 -15.4099 5.4434 -15.4099V29.748ZM-10.4561 20.0322C-9.02757 22.763 -7.06143 25.1765 -4.67607 27.1276L23.9148 -7.82657C26.2435 -5.92181 28.163 -3.56561 29.5576 -0.899638L-10.4561 20.0322ZM-4.67607 27.1276C-2.29064 29.0788 0.464837 30.5273 3.42462 31.3859L16.0066 -11.9837C18.896 -11.1455 21.5861 -9.73139 23.9148 -7.82657L-4.67607 27.1276ZM3.42462 31.3859C6.38429 32.2446 9.48716 32.4957 12.5466 32.1241L7.10129 -12.7043C10.088 -13.0671 13.1172 -12.822 16.0066 -11.9837L3.42462 31.3859ZM12.5466 32.1241C15.606 31.7524 18.5585 30.7658 21.2265 29.2236L-1.3725 -9.87273C1.23213 -11.3783 4.11451 -12.3415 7.10129 -12.7043L12.5466 32.1241ZM21.2265 29.2236C23.8944 27.6814 26.2231 25.6155 28.0722 23.1497L-8.05554 -3.94315C-6.25035 -6.35033 -3.97701 -8.36723 -1.3725 -9.87273L21.2265 29.2236ZM28.0722 23.1497C29.9213 20.684 31.2523 17.8699 31.9854 14.8768L-11.8758 4.13325C-11.1601 1.21129 -9.86073 -1.53598 -8.05554 -3.94315L28.0722 23.1497ZM31.9854 14.8768C32.7186 11.8835 32.8387 8.77276 32.3386 5.73188L-12.2206 13.061C-12.7089 10.0923 -12.5916 7.05551 -11.8758 4.13325L31.9854 14.8768ZM32.3386 5.73188C31.8384 2.69117 30.7284 -0.217201 29.075 -2.81817L-9.03451 21.4079C-10.6487 18.8687 -11.7324 16.0294 -12.2206 13.061L32.3386 5.73188ZM25.399 4.00297C25.399 7.94982 24.2286 11.808 22.0359 15.0897L-15.5115 -9.99867C-18.2808 -5.85418 -19.7589 -0.981576 -19.7589 4.00297H25.399ZM22.0359 15.0897C19.8431 18.3714 16.7265 20.9292 13.0801 22.4395L-4.2011 -19.2809C-8.80622 -17.3734 -12.7423 -14.1432 -15.5115 -9.99867L22.0359 15.0897ZM13.0801 22.4395C9.43367 23.9499 5.42126 24.3451 1.55025 23.5751L10.3601 -20.7151C5.47136 -21.6875 0.404018 -21.1884 -4.2011 -19.2809L13.0801 22.4395ZM1.55025 23.5751C-2.32075 22.8051 -5.8765 20.9046 -8.66735 18.1137L23.2641 -13.8177C19.7395 -17.3423 15.2489 -19.7426 10.3601 -20.7151L1.55025 23.5751ZM-8.66735 18.1137C-11.4582 15.3229 -13.3588 11.7671 -14.1288 7.89612L30.1614 -0.913752C29.189 -5.80252 26.7887 -10.2931 23.2641 -13.8177L-8.66735 18.1137ZM-14.1288 7.89612C-14.8988 4.02511 -14.5036 0.0127013 -12.9932 -3.63371L28.7273 13.6475C30.6348 9.04235 31.1339 3.97501 30.1614 -0.913752L-14.1288 7.89612ZM-12.9932 -3.63371C-11.4828 -7.28013 -8.92501 -10.3968 -5.64334 -12.5895L19.445 24.9579C23.5895 22.1887 26.8198 18.2526 28.7273 13.6475L-12.9932 -3.63371ZM-5.64334 -12.5895C-2.36168 -14.7823 1.49653 -15.9526 5.4434 -15.9526V29.2053C10.428 29.2053 15.3006 27.7272 19.445 24.9579L-5.64334 -12.5895ZM5.4706 -15.9526C10.754 -15.9463 15.8192 -13.8446 19.5551 -10.1087L-12.3764 21.8228C-7.65689 26.5422 -1.25819 29.1972 5.4162 29.2052L5.4706 -15.9526ZM19.5551 -10.1087C23.291 -6.37279 25.3926 -1.30762 25.399 3.97577L-19.7589 4.03017C-19.7508 10.7046 -17.0959 17.1033 -12.3764 21.8228L19.5551 -10.1087Z" fill="black" mask="url(#path-1-inside-1_392_385)"/>
<path d="M29.3156 9.29488C28.6005 8.0592 27.4779 7.19214 26.1735 6.82442C26.8077 6.50204 27.3148 5.97547 27.6131 5.32961C27.9114 4.68374 27.9835 3.95624 27.8178 3.26439C27.652 2.57254 27.2581 1.95668 26.6995 1.51611C26.1409 1.07554 25.4502 0.835937 24.7388 0.835938C24.0274 0.835938 23.3367 1.07554 22.7781 1.51611C22.2195 1.95668 21.8256 2.57254 21.6598 3.26439C21.4941 3.95624 21.5662 4.68374 21.8645 5.32961C22.1628 5.97547 22.6699 6.50204 23.3041 6.82442C21.9997 7.19168 20.8771 8.05874 20.162 9.29488C20.1424 9.32577 20.1292 9.36031 20.1232 9.39642C20.1173 9.43254 20.1187 9.46948 20.1274 9.50503C20.1361 9.54058 20.1519 9.574 20.1739 9.60328C20.1959 9.63257 20.2235 9.6571 20.2552 9.67542C20.2869 9.69374 20.322 9.70545 20.3583 9.70987C20.3946 9.71428 20.4315 9.7113 20.4666 9.7011C20.5018 9.6909 20.5345 9.6737 20.5628 9.65053C20.5912 9.62735 20.6145 9.59869 20.6315 9.56626C21.5003 8.06508 23.0354 7.16907 24.7388 7.16907C26.4422 7.16907 27.9773 8.06508 28.8461 9.56626C28.8631 9.59869 28.8865 9.62735 28.9148 9.65053C28.9431 9.6737 28.9758 9.6909 29.011 9.7011C29.0462 9.7113 29.083 9.71428 29.1193 9.70987C29.1557 9.70545 29.1907 9.69374 29.2224 9.67542C29.2541 9.6571 29.2818 9.63257 29.3037 9.60328C29.3257 9.574 29.3415 9.54058 29.3502 9.50503C29.3589 9.46948 29.3603 9.43254 29.3544 9.39642C29.3485 9.36031 29.3353 9.32577 29.3156 9.29488ZM22.1155 4.00297C22.1155 3.48412 22.2693 2.97693 22.5576 2.54552C22.8458 2.11412 23.2555 1.77788 23.7349 1.57932C24.2143 1.38077 24.7417 1.32882 25.2506 1.43004C25.7595 1.53126 26.2269 1.78111 26.5938 2.14799C26.9607 2.51487 27.2105 2.9823 27.3117 3.49118C27.413 4.00006 27.361 4.52753 27.1625 5.00688C26.9639 5.48623 26.6277 5.89594 26.1963 6.1842C25.7649 6.47245 25.2577 6.62631 24.7388 6.62631C24.0433 6.62547 23.3765 6.34882 22.8848 5.85703C22.393 5.36524 22.1163 4.69847 22.1155 4.00297Z" fill="black"/>
<path d="M9.196 33.664C8.48092 32.4283 7.35831 31.5613 6.05388 31.1936C6.68807 30.8712 7.1952 30.3446 7.49351 29.6987C7.79181 29.0529 7.8639 28.3254 7.69815 27.6335C7.5324 26.9417 7.13847 26.3258 6.57989 25.8853C6.0213 25.4447 5.3306 25.2051 4.61918 25.2051C3.90776 25.2051 3.21707 25.4447 2.65848 25.8853C2.09989 26.3258 1.70596 26.9417 1.54021 27.6335C1.37446 28.3254 1.44655 29.0529 1.74486 29.6987C2.04316 30.3446 2.5503 30.8712 3.18449 31.1936C1.88005 31.5608 0.757444 32.4279 0.0423581 33.664C0.0227227 33.6949 0.0095383 33.7294 0.00359804 33.7656C-0.00234222 33.8017 -0.000915509 33.8386 0.0077922 33.8742C0.0164999 33.9097 0.0323087 33.9431 0.0542676 33.9724C0.0762265 34.0017 0.103882 34.0262 0.135569 34.0446C0.167257 34.0629 0.202323 34.0746 0.238656 34.079C0.27499 34.0834 0.311841 34.0804 0.346992 34.0702C0.382143 34.06 0.414869 34.0428 0.443199 34.0197C0.47153 33.9965 0.49488 33.9678 0.511845 33.9354C1.38071 32.4342 2.91582 31.5382 4.61918 31.5382C6.32254 31.5382 7.85765 32.4342 8.72652 33.9354C8.74348 33.9678 8.76683 33.9965 8.79516 34.0197C8.82349 34.0428 8.85622 34.06 8.89137 34.0702C8.92652 34.0804 8.96337 34.0834 8.99971 34.079C9.03604 34.0746 9.0711 34.0629 9.10279 34.0446C9.13448 34.0262 9.16214 34.0017 9.18409 33.9724C9.20605 33.9431 9.22186 33.9097 9.23057 33.8742C9.23928 33.8386 9.2407 33.8017 9.23476 33.7656C9.22882 33.7294 9.21564 33.6949 9.196 33.664ZM1.99584 28.3721C1.99584 27.8533 2.1497 27.3461 2.43795 26.9147C2.72621 26.4833 3.13592 26.147 3.61527 25.9485C4.09462 25.7499 4.62209 25.698 5.13097 25.7992C5.63985 25.9004 6.10728 26.1502 6.47416 26.5171C6.84104 26.884 7.09089 27.3514 7.19211 27.8603C7.29334 28.3692 7.24138 28.8967 7.04283 29.376C6.84428 29.8554 6.50804 30.2651 6.07663 30.5533C5.64522 30.8416 5.13803 30.9955 4.61918 30.9955C3.92369 30.9946 3.25692 30.718 2.76513 30.2262C2.27334 29.7344 1.99668 29.0676 1.99584 28.3721Z" fill="black"/>
<rect x="6.51633" y="10.1067" width="16.0837" height="16.0837" rx="8.04185" stroke="black" stroke-width="0.549253"/>
<path d="M14.5559 16.7924C16.0869 16.7924 17.328 15.5512 17.328 14.0202C17.328 12.4892 16.0869 11.248 14.5559 11.248C13.0248 11.248 11.7837 12.4892 11.7837 14.0202C11.7837 15.5512 13.0248 16.7924 14.5559 16.7924Z" stroke="black" stroke-width="1.21579" stroke-linecap="round" stroke-linejoin="round"/>
<path d="M20.7916 25.1114C20.7916 21.6666 17.999 18.874 14.5543 18.874C11.1095 18.874 8.31689 21.6666 8.31689 25.1114" stroke="black" stroke-width="1.21579" stroke-linecap="round" stroke-linejoin="round"/>
<path d="M14.5538 25.1114L15.9399 23.3788L14.5538 18.874L13.1677 23.3788L14.5538 25.1114Z" stroke="black" stroke-width="1.21579" stroke-linecap="round" stroke-linejoin="round"/>
<path d="M14.5977 28.1138C20.1042 28.1138 24.5682 23.6499 24.5682 18.1433C24.5682 12.6368 20.1042 8.17285 14.5977 8.17285C9.09113 8.17285 4.6272 12.6368 4.6272 18.1433C4.6272 23.6499 9.09113 28.1138 14.5977 28.1138Z" stroke="black" stroke-width="1.04211" stroke-linecap="round" stroke-linejoin="round"/>
<path d="M24.208 25.2021L21.7446 27.6663M23.0742 28.9966L25.5398 26.5302L32.998 33.9883L30.5316 36.454L23.0742 28.9966Z" stroke="black" stroke-width="1.04211" stroke-linecap="round" stroke-linejoin="round"/>
<g clip-path="url(#clip1_392_385)">
<rect width="4.31556" height="4.31556" transform="translate(3.61279 15.8154)" fill="white"/>
<path d="M5.38576 18.7439L4.6228 17.9807L4.87706 17.7265L5.38576 18.235L6.40279 17.2178L6.65723 17.4722L5.38576 18.7439Z" fill="black"/>
<path fill-rule="evenodd" clip-rule="evenodd" d="M3.72729 16.7027C3.72729 16.5119 3.80307 16.329 3.93796 16.1941C4.07285 16.0592 4.2558 15.9834 4.44655 15.9834H6.96396C7.15472 15.9834 7.33767 16.0592 7.47256 16.1941C7.60745 16.329 7.68322 16.5119 7.68322 16.7027V19.2201C7.68322 19.4108 7.60745 19.5938 7.47256 19.7287C7.33767 19.8635 7.15472 19.9393 6.96396 19.9393H4.44655C4.2558 19.9393 4.07285 19.8635 3.93796 19.7287C3.80307 19.5938 3.72729 19.4108 3.72729 19.2201V16.7027ZM4.44655 16.343H6.96396C7.05934 16.343 7.15082 16.3809 7.21826 16.4484C7.2857 16.5158 7.32359 16.6073 7.32359 16.7027V19.2201C7.32359 19.3154 7.2857 19.4069 7.21826 19.4744C7.15082 19.5418 7.05934 19.5797 6.96396 19.5797H4.44655C4.35118 19.5797 4.2597 19.5418 4.19226 19.4744C4.12481 19.4069 4.08692 19.3154 4.08692 19.2201V16.7027C4.08692 16.6073 4.12481 16.5158 4.19226 16.4484C4.2597 16.3809 4.35118 16.343 4.44655 16.343Z" fill="black"/>
</g>
</g>
<defs>
<clipPath id="clip0_392_385">
<rect width="33" height="35.617" fill="white" transform="translate(0 0.835938)"/>
</clipPath>
<clipPath id="clip1_392_385">
<rect width="4.31556" height="4.31556" fill="white" transform="translate(3.61279 15.8154)"/>
</clipPath>
</defs>
</svg>
