<svg width="24" height="22" viewBox="0 0 24 22" fill="none" xmlns="http://www.w3.org/2000/svg">
<path d="M21.8182 15.2727V2.18182H2.18182V15.2727H21.8182ZM21.8182 0C22.3968 0 22.9518 0.229869 23.361 0.63904C23.7701 1.04821 24 1.60316 24 2.18182V15.2727C24 15.8514 23.7701 16.4063 23.361 16.8155C22.9518 17.2247 22.3968 17.4545 21.8182 17.4545H14.1818V19.6364H16.3636V21.8182H7.63636V19.6364H9.81818V17.4545H2.18182C1.60316 17.4545 1.04821 17.2247 0.63904 16.8155C0.22987 16.4063 0 15.8514 0 15.2727V2.18182C0 0.970909 0.970909 0 2.18182 0H21.8182ZM4.36364 4.36364H14.1818V9.81818H4.36364V4.36364ZM15.2727 4.36364H19.6364V6.54545H15.2727V4.36364ZM19.6364 7.63636V13.0909H15.2727V7.63636H19.6364ZM4.36364 10.9091H8.72727V13.0909H4.36364V10.9091ZM9.81818 10.9091H14.1818V13.0909H9.81818V10.9091Z" fill="black"/>
</svg>
